%TF.GenerationSoftware,KiCad,Pcbnew,6.0.10+dfsg-1~bpo11+1*%
%TF.CreationDate,2023-02-01T20:55:54+01:00*%
%TF.ProjectId,double_pt100,646f7562-6c65-45f7-9074-3130302e6b69,rev?*%
%TF.SameCoordinates,Original*%
%TF.FileFunction,Copper,L1,Top*%
%TF.FilePolarity,Positive*%
%FSLAX46Y46*%
G04 Gerber Fmt 4.6, Leading zero omitted, Abs format (unit mm)*
G04 Created by KiCad (PCBNEW 6.0.10+dfsg-1~bpo11+1) date 2023-02-01 20:55:54*
%MOMM*%
%LPD*%
G01*
G04 APERTURE LIST*
G04 Aperture macros list*
%AMRoundRect*
0 Rectangle with rounded corners*
0 $1 Rounding radius*
0 $2 $3 $4 $5 $6 $7 $8 $9 X,Y pos of 4 corners*
0 Add a 4 corners polygon primitive as box body*
4,1,4,$2,$3,$4,$5,$6,$7,$8,$9,$2,$3,0*
0 Add four circle primitives for the rounded corners*
1,1,$1+$1,$2,$3*
1,1,$1+$1,$4,$5*
1,1,$1+$1,$6,$7*
1,1,$1+$1,$8,$9*
0 Add four rect primitives between the rounded corners*
20,1,$1+$1,$2,$3,$4,$5,0*
20,1,$1+$1,$4,$5,$6,$7,0*
20,1,$1+$1,$6,$7,$8,$9,0*
20,1,$1+$1,$8,$9,$2,$3,0*%
G04 Aperture macros list end*
%ADD10C,0.300000*%
%TA.AperFunction,NonConductor*%
%ADD11C,0.300000*%
%TD*%
%TA.AperFunction,SMDPad,CuDef*%
%ADD12RoundRect,0.200000X-0.200000X-0.275000X0.200000X-0.275000X0.200000X0.275000X-0.200000X0.275000X0*%
%TD*%
%TA.AperFunction,SMDPad,CuDef*%
%ADD13RoundRect,0.225000X0.225000X0.250000X-0.225000X0.250000X-0.225000X-0.250000X0.225000X-0.250000X0*%
%TD*%
%TA.AperFunction,SMDPad,CuDef*%
%ADD14RoundRect,0.225000X-0.250000X0.225000X-0.250000X-0.225000X0.250000X-0.225000X0.250000X0.225000X0*%
%TD*%
%TA.AperFunction,SMDPad,CuDef*%
%ADD15RoundRect,0.200000X-0.275000X0.200000X-0.275000X-0.200000X0.275000X-0.200000X0.275000X0.200000X0*%
%TD*%
%TA.AperFunction,SMDPad,CuDef*%
%ADD16RoundRect,0.225000X0.250000X-0.225000X0.250000X0.225000X-0.250000X0.225000X-0.250000X-0.225000X0*%
%TD*%
%TA.AperFunction,SMDPad,CuDef*%
%ADD17R,1.000000X2.800000*%
%TD*%
%TA.AperFunction,ComponentPad*%
%ADD18R,2.000000X2.000000*%
%TD*%
%TA.AperFunction,ComponentPad*%
%ADD19O,2.000000X1.600000*%
%TD*%
%TA.AperFunction,ComponentPad*%
%ADD20C,1.524000*%
%TD*%
%TA.AperFunction,ViaPad*%
%ADD21C,0.800000*%
%TD*%
%TA.AperFunction,Conductor*%
%ADD22C,0.800000*%
%TD*%
%TA.AperFunction,Conductor*%
%ADD23C,0.400000*%
%TD*%
%TA.AperFunction,Conductor*%
%ADD24C,0.250000*%
%TD*%
G04 APERTURE END LIST*
D10*
D11*
X86684285Y-147932857D02*
X86912857Y-147932857D01*
X87027142Y-147990000D01*
X87141428Y-148104285D01*
X87198571Y-148332857D01*
X87198571Y-148732857D01*
X87141428Y-148961428D01*
X87027142Y-149075714D01*
X86912857Y-149132857D01*
X86684285Y-149132857D01*
X86570000Y-149075714D01*
X86455714Y-148961428D01*
X86398571Y-148732857D01*
X86398571Y-148332857D01*
X86455714Y-148104285D01*
X86570000Y-147990000D01*
X86684285Y-147932857D01*
X87712857Y-149132857D02*
X87712857Y-147932857D01*
X87712857Y-148504285D02*
X88398571Y-148504285D01*
X88398571Y-149132857D02*
X88398571Y-147932857D01*
X89827142Y-148047142D02*
X89884285Y-147990000D01*
X89998571Y-147932857D01*
X90284285Y-147932857D01*
X90398571Y-147990000D01*
X90455714Y-148047142D01*
X90512857Y-148161428D01*
X90512857Y-148275714D01*
X90455714Y-148447142D01*
X89770000Y-149132857D01*
X90512857Y-149132857D01*
X90912857Y-147932857D02*
X91655714Y-147932857D01*
X91255714Y-148390000D01*
X91427142Y-148390000D01*
X91541428Y-148447142D01*
X91598571Y-148504285D01*
X91655714Y-148618571D01*
X91655714Y-148904285D01*
X91598571Y-149018571D01*
X91541428Y-149075714D01*
X91427142Y-149132857D01*
X91084285Y-149132857D01*
X90970000Y-149075714D01*
X90912857Y-149018571D01*
X92398571Y-147932857D02*
X92512857Y-147932857D01*
X92627142Y-147990000D01*
X92684285Y-148047142D01*
X92741428Y-148161428D01*
X92798571Y-148390000D01*
X92798571Y-148675714D01*
X92741428Y-148904285D01*
X92684285Y-149018571D01*
X92627142Y-149075714D01*
X92512857Y-149132857D01*
X92398571Y-149132857D01*
X92284285Y-149075714D01*
X92227142Y-149018571D01*
X92170000Y-148904285D01*
X92112857Y-148675714D01*
X92112857Y-148390000D01*
X92170000Y-148161428D01*
X92227142Y-148047142D01*
X92284285Y-147990000D01*
X92398571Y-147932857D01*
X93941428Y-149132857D02*
X93255714Y-149132857D01*
X93598571Y-149132857D02*
X93598571Y-147932857D01*
X93484285Y-148104285D01*
X93370000Y-148218571D01*
X93255714Y-148275714D01*
D12*
%TO.P,R11,1*%
%TO.N,+3V3*%
X117920000Y-110490000D03*
%TO.P,R11,2*%
%TO.N,SCL*%
X119570000Y-110490000D03*
%TD*%
%TO.P,R6,1*%
%TO.N,Net-(R6-Pad1)*%
X103315000Y-118077500D03*
%TO.P,R6,2*%
%TO.N,CS2*%
X104965000Y-118077500D03*
%TD*%
D13*
%TO.P,C6,1*%
%TO.N,+5V*%
X155715000Y-119380000D03*
%TO.P,C6,2*%
%TO.N,GND*%
X154165000Y-119380000D03*
%TD*%
D14*
%TO.P,C5,1*%
%TO.N,+3V3*%
X119380000Y-113525000D03*
%TO.P,C5,2*%
%TO.N,GND*%
X119380000Y-115075000D03*
%TD*%
D15*
%TO.P,R1,1*%
%TO.N,+3V3*%
X108585000Y-109030000D03*
%TO.P,R1,2*%
%TO.N,SW*%
X108585000Y-110680000D03*
%TD*%
D12*
%TO.P,R2,1*%
%TO.N,Net-(R2-Pad1)*%
X103315000Y-125095000D03*
%TO.P,R2,2*%
%TO.N,SW*%
X104965000Y-125095000D03*
%TD*%
%TO.P,R10,1*%
%TO.N,+3V3*%
X117920000Y-107950000D03*
%TO.P,R10,2*%
%TO.N,SDA*%
X119570000Y-107950000D03*
%TD*%
%TO.P,R4,1*%
%TO.N,Net-(R4-Pad1)*%
X103315000Y-113030000D03*
%TO.P,R4,2*%
%TO.N,SDA*%
X104965000Y-113030000D03*
%TD*%
D16*
%TO.P,C1,1*%
%TO.N,+5V*%
X103505000Y-122695000D03*
%TO.P,C1,2*%
%TO.N,GND*%
X103505000Y-121145000D03*
%TD*%
D17*
%TO.P,SW1,1,1*%
%TO.N,GND*%
X115210000Y-114660000D03*
X115210000Y-108860000D03*
%TO.P,SW1,2,2*%
%TO.N,SW*%
X111210000Y-114660000D03*
X111210000Y-108860000D03*
%TD*%
D12*
%TO.P,R7,1*%
%TO.N,Net-(R7-Pad1)*%
X103315000Y-127635000D03*
%TO.P,R7,2*%
%TO.N,CLK*%
X104965000Y-127635000D03*
%TD*%
D13*
%TO.P,C2,1*%
%TO.N,+5V*%
X127775000Y-119380000D03*
%TO.P,C2,2*%
%TO.N,GND*%
X126225000Y-119380000D03*
%TD*%
D12*
%TO.P,R5,1*%
%TO.N,Net-(R5-Pad1)*%
X103315000Y-115647500D03*
%TO.P,R5,2*%
%TO.N,CS1*%
X104965000Y-115647500D03*
%TD*%
%TO.P,R8,1*%
%TO.N,Net-(R8-Pad1)*%
X103315000Y-130175000D03*
%TO.P,R8,2*%
%TO.N,SDO*%
X104965000Y-130175000D03*
%TD*%
%TO.P,R3,1*%
%TO.N,Net-(R3-Pad1)*%
X103315000Y-110490000D03*
%TO.P,R3,2*%
%TO.N,SCL*%
X104965000Y-110490000D03*
%TD*%
D18*
%TO.P,U1,1,~{RST}*%
%TO.N,unconnected-(U1-Pad1)*%
X77955000Y-105410000D03*
D19*
%TO.P,U1,2,A0*%
%TO.N,unconnected-(U1-Pad2)*%
X77955000Y-107950000D03*
%TO.P,U1,3,D0*%
%TO.N,Net-(R2-Pad1)*%
X77955000Y-110490000D03*
%TO.P,U1,4,SCK/D5*%
%TO.N,Net-(R7-Pad1)*%
X77955000Y-113030000D03*
%TO.P,U1,5,MISO/D6*%
%TO.N,Net-(R8-Pad1)*%
X77955000Y-115570000D03*
%TO.P,U1,6,MOSI/D7*%
%TO.N,Net-(R9-Pad1)*%
X77955000Y-118110000D03*
%TO.P,U1,7,CS/D8*%
%TO.N,unconnected-(U1-Pad7)*%
X77955000Y-120650000D03*
%TO.P,U1,8,3V3*%
%TO.N,+3V3*%
X77955000Y-123190000D03*
%TO.P,U1,9,5V*%
%TO.N,+5V*%
X100815000Y-123190000D03*
%TO.P,U1,10,GND*%
%TO.N,GND*%
X100815000Y-120650000D03*
%TO.P,U1,11,D4*%
%TO.N,Net-(R6-Pad1)*%
X100815000Y-118110000D03*
%TO.P,U1,12,D3*%
%TO.N,Net-(R5-Pad1)*%
X100815000Y-115570000D03*
%TO.P,U1,13,SDA/D2*%
%TO.N,Net-(R4-Pad1)*%
X100815000Y-113030000D03*
%TO.P,U1,14,SCL/D1*%
%TO.N,Net-(R3-Pad1)*%
X100815000Y-110490000D03*
%TO.P,U1,15,RX*%
%TO.N,unconnected-(U1-Pad15)*%
X100815000Y-107950000D03*
%TO.P,U1,16,TX*%
%TO.N,unconnected-(U1-Pad16)*%
X100815000Y-105410000D03*
%TD*%
D14*
%TO.P,C3,1*%
%TO.N,SW*%
X108585000Y-112890000D03*
%TO.P,C3,2*%
%TO.N,GND*%
X108585000Y-114440000D03*
%TD*%
D20*
%TO.P,U4,1,VIN*%
%TO.N,+5V*%
X128270000Y-123190000D03*
%TO.P,U4,2,GND*%
%TO.N,GND*%
X125730000Y-123190000D03*
%TO.P,U4,3,3V3*%
%TO.N,unconnected-(U4-Pad3)*%
X123190000Y-123190000D03*
%TO.P,U4,4,CLK*%
%TO.N,CLK*%
X120650000Y-123190000D03*
%TO.P,U4,5,SDO*%
%TO.N,SDO*%
X118110000Y-123190000D03*
%TO.P,U4,6,SDI*%
%TO.N,SDI*%
X115570000Y-123190000D03*
%TO.P,U4,7,CS*%
%TO.N,CS2*%
X113030000Y-123190000D03*
%TO.P,U4,8,RDY*%
%TO.N,unconnected-(U4-Pad8)*%
X110490000Y-123190000D03*
%TD*%
D12*
%TO.P,R9,1*%
%TO.N,Net-(R9-Pad1)*%
X103315000Y-132715000D03*
%TO.P,R9,2*%
%TO.N,SDI*%
X104965000Y-132715000D03*
%TD*%
D20*
%TO.P,U3,8,RDY*%
%TO.N,unconnected-(U3-Pad8)*%
X138430000Y-123190000D03*
%TO.P,U3,7,CS*%
%TO.N,CS1*%
X140970000Y-123190000D03*
%TO.P,U3,6,SDI*%
%TO.N,SDI*%
X143510000Y-123190000D03*
%TO.P,U3,5,SDO*%
%TO.N,SDO*%
X146050000Y-123190000D03*
%TO.P,U3,4,CLK*%
%TO.N,CLK*%
X148590000Y-123190000D03*
%TO.P,U3,3,3V3*%
%TO.N,unconnected-(U3-Pad3)*%
X151130000Y-123190000D03*
%TO.P,U3,2,GND*%
%TO.N,GND*%
X153670000Y-123190000D03*
%TO.P,U3,1,VIN*%
%TO.N,+5V*%
X156210000Y-123190000D03*
%TD*%
D14*
%TO.P,C4,1*%
%TO.N,+3V3*%
X78105000Y-126225000D03*
%TO.P,C4,2*%
%TO.N,GND*%
X78105000Y-127775000D03*
%TD*%
D20*
%TO.P,U2,1,SDA*%
%TO.N,SDA*%
X122555000Y-107950000D03*
%TO.P,U2,2,SCL*%
%TO.N,SCL*%
X122555000Y-110490000D03*
%TO.P,U2,3,VCC*%
%TO.N,+3V3*%
X122555000Y-113030000D03*
%TO.P,U2,4,GND*%
%TO.N,GND*%
X122555000Y-115570000D03*
%TD*%
D21*
%TO.N,+5V*%
X131445000Y-123571000D03*
%TO.N,SCL*%
X106045000Y-110617000D03*
%TO.N,SDA*%
X107061000Y-109855000D03*
%TO.N,CS1*%
X106172000Y-115443000D03*
X112268000Y-125984000D03*
%TO.N,CS2*%
X106299000Y-116713000D03*
%TO.N,GND*%
X98425000Y-105410000D03*
X97155000Y-105410000D03*
X160020000Y-148590000D03*
X113030000Y-108585000D03*
X80645000Y-105410000D03*
X104775000Y-148590000D03*
X132715000Y-148590000D03*
X115570000Y-117475000D03*
X80645000Y-120015000D03*
X80645000Y-121285000D03*
X128270000Y-116205000D03*
X104775000Y-105410000D03*
X106045000Y-148590000D03*
X161290000Y-147320000D03*
X108585000Y-116205000D03*
X160020000Y-105410000D03*
X81915000Y-105410000D03*
X98425000Y-106680000D03*
X74930000Y-106680000D03*
X74930000Y-147320000D03*
X133985000Y-148590000D03*
X76200000Y-148590000D03*
X103505000Y-105410000D03*
X74930000Y-105410000D03*
X161290000Y-105410000D03*
X80645000Y-106680000D03*
X74930000Y-148590000D03*
X103505000Y-106680000D03*
X161290000Y-106680000D03*
X161290000Y-148590000D03*
X129540000Y-117475000D03*
%TD*%
D22*
%TO.N,+3V3*%
X117920000Y-107950000D02*
X117920000Y-110490000D01*
X117920000Y-111570000D02*
X117920000Y-110490000D01*
X78105000Y-126225000D02*
X78105000Y-123340000D01*
X78105000Y-123340000D02*
X77955000Y-123190000D01*
X119380000Y-113030000D02*
X117920000Y-111570000D01*
X108585000Y-107315000D02*
X109220000Y-106680000D01*
X109220000Y-106680000D02*
X116840000Y-106680000D01*
X108585000Y-109030000D02*
X108585000Y-107315000D01*
X119380000Y-113525000D02*
X119380000Y-113030000D01*
X116840000Y-106680000D02*
X117920000Y-107760000D01*
X117920000Y-107760000D02*
X117920000Y-107950000D01*
X122555000Y-113030000D02*
X119380000Y-113030000D01*
%TO.N,+5V*%
X156210000Y-123190000D02*
X156210000Y-119875000D01*
X103365000Y-122695000D02*
X102870000Y-123190000D01*
X156210000Y-119875000D02*
X155715000Y-119380000D01*
X102870000Y-123190000D02*
X100815000Y-123190000D01*
X103505000Y-122695000D02*
X103365000Y-122695000D01*
X128270000Y-123190000D02*
X131064000Y-123190000D01*
X131064000Y-123190000D02*
X131445000Y-123571000D01*
X128270000Y-123190000D02*
X128270000Y-119875000D01*
X128270000Y-119875000D02*
X127775000Y-119380000D01*
D23*
%TO.N,SW*%
X108585000Y-111760000D02*
X108585000Y-112890000D01*
X111210000Y-116120000D02*
X111210000Y-114660000D01*
X111210000Y-108860000D02*
X111210000Y-111675000D01*
X111210000Y-111675000D02*
X111210000Y-114660000D01*
X105029000Y-125095000D02*
X105918000Y-124206000D01*
X108585000Y-110680000D02*
X108585000Y-111760000D01*
X108585000Y-111760000D02*
X111125000Y-111760000D01*
X105918000Y-124206000D02*
X105918000Y-121412000D01*
X104965000Y-125095000D02*
X105029000Y-125095000D01*
X105918000Y-121412000D02*
X111210000Y-116120000D01*
X111125000Y-111760000D02*
X111210000Y-111675000D01*
%TO.N,Net-(R2-Pad1)*%
X103315000Y-125095000D02*
X97155000Y-125095000D01*
X97155000Y-125095000D02*
X82550000Y-110490000D01*
X82550000Y-110490000D02*
X77955000Y-110490000D01*
%TO.N,Net-(R3-Pad1)*%
X100815000Y-110490000D02*
X103315000Y-110490000D01*
%TO.N,SCL*%
X105092000Y-110617000D02*
X104965000Y-110490000D01*
X122555000Y-110490000D02*
X119570000Y-110490000D01*
X106045000Y-110617000D02*
X105092000Y-110617000D01*
%TO.N,Net-(R4-Pad1)*%
X100815000Y-113030000D02*
X103315000Y-113030000D01*
%TO.N,SDA*%
X107061000Y-111125000D02*
X105156000Y-113030000D01*
X107061000Y-109855000D02*
X107061000Y-111125000D01*
X105156000Y-113030000D02*
X104965000Y-113030000D01*
X119570000Y-107950000D02*
X122555000Y-107950000D01*
%TO.N,Net-(R5-Pad1)*%
X103315000Y-115647500D02*
X100892500Y-115647500D01*
X100892500Y-115647500D02*
X100815000Y-115570000D01*
%TO.N,CS1*%
X116967000Y-125984000D02*
X118745000Y-127762000D01*
X135509000Y-124841000D02*
X139319000Y-124841000D01*
X139319000Y-124841000D02*
X140970000Y-123190000D01*
X118745000Y-127762000D02*
X132588000Y-127762000D01*
X106172000Y-115443000D02*
X105169500Y-115443000D01*
X132588000Y-127762000D02*
X135509000Y-124841000D01*
X105169500Y-115443000D02*
X104965000Y-115647500D01*
X112268000Y-125984000D02*
X116967000Y-125984000D01*
%TO.N,Net-(R6-Pad1)*%
X103282500Y-118110000D02*
X103315000Y-118077500D01*
X100815000Y-118110000D02*
X103282500Y-118110000D01*
%TO.N,CS2*%
X106299000Y-116743500D02*
X104965000Y-118077500D01*
X106299000Y-116713000D02*
X106299000Y-116743500D01*
%TO.N,Net-(R7-Pad1)*%
X83820000Y-113030000D02*
X77955000Y-113030000D01*
X98425000Y-127635000D02*
X83820000Y-113030000D01*
X103315000Y-127635000D02*
X98425000Y-127635000D01*
%TO.N,CLK*%
X106807000Y-125793000D02*
X104965000Y-127635000D01*
X120650000Y-123190000D02*
X122555000Y-125095000D01*
X122555000Y-125095000D02*
X131445000Y-125095000D01*
X137033000Y-119507000D02*
X144907000Y-119507000D01*
X144907000Y-119507000D02*
X148590000Y-123190000D01*
X131445000Y-125095000D02*
X137033000Y-119507000D01*
X106807000Y-121793000D02*
X109093000Y-119507000D01*
X116967000Y-119507000D02*
X120650000Y-123190000D01*
X109093000Y-119507000D02*
X116967000Y-119507000D01*
X106807000Y-121793000D02*
X106807000Y-125793000D01*
%TO.N,Net-(R8-Pad1)*%
X85090000Y-115570000D02*
X77955000Y-115570000D01*
X103315000Y-130175000D02*
X99695000Y-130175000D01*
X99695000Y-130175000D02*
X85090000Y-115570000D01*
%TO.N,SDO*%
X137414000Y-120396000D02*
X143256000Y-120396000D01*
X109474000Y-120396000D02*
X115316000Y-120396000D01*
X107696000Y-127444000D02*
X104965000Y-130175000D01*
X107696000Y-122174000D02*
X107696000Y-127444000D01*
X115316000Y-120396000D02*
X118110000Y-123190000D01*
X131826000Y-125984000D02*
X137414000Y-120396000D01*
X120904000Y-125984000D02*
X131826000Y-125984000D01*
X143256000Y-120396000D02*
X146050000Y-123190000D01*
X118110000Y-123190000D02*
X120904000Y-125984000D01*
X107696000Y-122174000D02*
X109474000Y-120396000D01*
%TO.N,Net-(R9-Pad1)*%
X100965000Y-132715000D02*
X86360000Y-118110000D01*
X103315000Y-132715000D02*
X100965000Y-132715000D01*
X86360000Y-118110000D02*
X77955000Y-118110000D01*
%TO.N,SDI*%
X109855000Y-121285000D02*
X113665000Y-121285000D01*
X132207000Y-126873000D02*
X137795000Y-121285000D01*
X119253000Y-126873000D02*
X132207000Y-126873000D01*
X137795000Y-121285000D02*
X141605000Y-121285000D01*
X113665000Y-121285000D02*
X115570000Y-123190000D01*
X115570000Y-123190000D02*
X119253000Y-126873000D01*
X108585000Y-129095000D02*
X104965000Y-132715000D01*
X108585000Y-122555000D02*
X108585000Y-129095000D01*
X141605000Y-121285000D02*
X143510000Y-123190000D01*
X108585000Y-122555000D02*
X109855000Y-121285000D01*
D24*
%TO.N,GND*%
X115210000Y-117115000D02*
X115570000Y-117475000D01*
X108585000Y-114440000D02*
X108585000Y-116205000D01*
X115210000Y-114660000D02*
X115210000Y-117115000D01*
%TD*%
%TA.AperFunction,Conductor*%
%TO.N,GND*%
G36*
X76388621Y-104668502D02*
G01*
X76435114Y-104722158D01*
X76446500Y-104774500D01*
X76446500Y-106458134D01*
X76453255Y-106520316D01*
X76504385Y-106656705D01*
X76591739Y-106773261D01*
X76708295Y-106860615D01*
X76716704Y-106863767D01*
X76716707Y-106863769D01*
X76732768Y-106869790D01*
X76789533Y-106912431D01*
X76814234Y-106978992D01*
X76799027Y-107048341D01*
X76777635Y-107076867D01*
X76748802Y-107105700D01*
X76745645Y-107110208D01*
X76745643Y-107110211D01*
X76706780Y-107165714D01*
X76617477Y-107293251D01*
X76615154Y-107298233D01*
X76615151Y-107298238D01*
X76588115Y-107356218D01*
X76520716Y-107500757D01*
X76519294Y-107506065D01*
X76519293Y-107506067D01*
X76487316Y-107625405D01*
X76461457Y-107721913D01*
X76441502Y-107950000D01*
X76461457Y-108178087D01*
X76520716Y-108399243D01*
X76523039Y-108404224D01*
X76523039Y-108404225D01*
X76615151Y-108601762D01*
X76615154Y-108601767D01*
X76617477Y-108606749D01*
X76656003Y-108661770D01*
X76743438Y-108786639D01*
X76748802Y-108794300D01*
X76910700Y-108956198D01*
X76915208Y-108959355D01*
X76915211Y-108959357D01*
X76957390Y-108988891D01*
X77098251Y-109087523D01*
X77103233Y-109089846D01*
X77103238Y-109089849D01*
X77137457Y-109105805D01*
X77190742Y-109152722D01*
X77210203Y-109220999D01*
X77189661Y-109288959D01*
X77137457Y-109334195D01*
X77103238Y-109350151D01*
X77103233Y-109350154D01*
X77098251Y-109352477D01*
X76993389Y-109425902D01*
X76915211Y-109480643D01*
X76915208Y-109480645D01*
X76910700Y-109483802D01*
X76748802Y-109645700D01*
X76745645Y-109650208D01*
X76745643Y-109650211D01*
X76691336Y-109727770D01*
X76617477Y-109833251D01*
X76615154Y-109838233D01*
X76615151Y-109838238D01*
X76523039Y-110035775D01*
X76520716Y-110040757D01*
X76461457Y-110261913D01*
X76441502Y-110490000D01*
X76461457Y-110718087D01*
X76462881Y-110723400D01*
X76462881Y-110723402D01*
X76517034Y-110925500D01*
X76520716Y-110939243D01*
X76523039Y-110944224D01*
X76523039Y-110944225D01*
X76615151Y-111141762D01*
X76615154Y-111141767D01*
X76617477Y-111146749D01*
X76656272Y-111202154D01*
X76743438Y-111326639D01*
X76748802Y-111334300D01*
X76910700Y-111496198D01*
X76915208Y-111499355D01*
X76915211Y-111499357D01*
X76980405Y-111545006D01*
X77098251Y-111627523D01*
X77103233Y-111629846D01*
X77103238Y-111629849D01*
X77137457Y-111645805D01*
X77190742Y-111692722D01*
X77210203Y-111760999D01*
X77189661Y-111828959D01*
X77137457Y-111874195D01*
X77103238Y-111890151D01*
X77103233Y-111890154D01*
X77098251Y-111892477D01*
X77047271Y-111928174D01*
X76915211Y-112020643D01*
X76915208Y-112020645D01*
X76910700Y-112023802D01*
X76748802Y-112185700D01*
X76745645Y-112190208D01*
X76745643Y-112190211D01*
X76701856Y-112252746D01*
X76617477Y-112373251D01*
X76615154Y-112378233D01*
X76615151Y-112378238D01*
X76579806Y-112454037D01*
X76520716Y-112580757D01*
X76519294Y-112586065D01*
X76519293Y-112586067D01*
X76493722Y-112681500D01*
X76461457Y-112801913D01*
X76441502Y-113030000D01*
X76461457Y-113258087D01*
X76462881Y-113263400D01*
X76462881Y-113263402D01*
X76508878Y-113435062D01*
X76520716Y-113479243D01*
X76523039Y-113484224D01*
X76523039Y-113484225D01*
X76615151Y-113681762D01*
X76615154Y-113681767D01*
X76617477Y-113686749D01*
X76660296Y-113747901D01*
X76743438Y-113866639D01*
X76748802Y-113874300D01*
X76910700Y-114036198D01*
X76915208Y-114039355D01*
X76915211Y-114039357D01*
X76993389Y-114094098D01*
X77098251Y-114167523D01*
X77103233Y-114169846D01*
X77103238Y-114169849D01*
X77137457Y-114185805D01*
X77190742Y-114232722D01*
X77210203Y-114300999D01*
X77189661Y-114368959D01*
X77137457Y-114414195D01*
X77103238Y-114430151D01*
X77103233Y-114430154D01*
X77098251Y-114432477D01*
X77045944Y-114469103D01*
X76915211Y-114560643D01*
X76915208Y-114560645D01*
X76910700Y-114563802D01*
X76748802Y-114725700D01*
X76617477Y-114913251D01*
X76615154Y-114918233D01*
X76615151Y-114918238D01*
X76543711Y-115071444D01*
X76520716Y-115120757D01*
X76519294Y-115126065D01*
X76519293Y-115126067D01*
X76463143Y-115335619D01*
X76461457Y-115341913D01*
X76441502Y-115570000D01*
X76461457Y-115798087D01*
X76462881Y-115803400D01*
X76462881Y-115803402D01*
X76506183Y-115965004D01*
X76520716Y-116019243D01*
X76523039Y-116024224D01*
X76523039Y-116024225D01*
X76615151Y-116221762D01*
X76615154Y-116221767D01*
X76617477Y-116226749D01*
X76667576Y-116298297D01*
X76745598Y-116409724D01*
X76748802Y-116414300D01*
X76910700Y-116576198D01*
X76915208Y-116579355D01*
X76915211Y-116579357D01*
X76979329Y-116624253D01*
X77098251Y-116707523D01*
X77103233Y-116709846D01*
X77103238Y-116709849D01*
X77137457Y-116725805D01*
X77190742Y-116772722D01*
X77210203Y-116840999D01*
X77189661Y-116908959D01*
X77137457Y-116954195D01*
X77103238Y-116970151D01*
X77103233Y-116970154D01*
X77098251Y-116972477D01*
X76993389Y-117045902D01*
X76915211Y-117100643D01*
X76915208Y-117100645D01*
X76910700Y-117103802D01*
X76748802Y-117265700D01*
X76617477Y-117453251D01*
X76615154Y-117458233D01*
X76615151Y-117458238D01*
X76595567Y-117500237D01*
X76520716Y-117660757D01*
X76461457Y-117881913D01*
X76441502Y-118110000D01*
X76461457Y-118338087D01*
X76462881Y-118343400D01*
X76462881Y-118343402D01*
X76517647Y-118547788D01*
X76520716Y-118559243D01*
X76523039Y-118564224D01*
X76523039Y-118564225D01*
X76615151Y-118761762D01*
X76615154Y-118761767D01*
X76617477Y-118766749D01*
X76655942Y-118821682D01*
X76737375Y-118937980D01*
X76748802Y-118954300D01*
X76910700Y-119116198D01*
X76915208Y-119119355D01*
X76915211Y-119119357D01*
X76993389Y-119174098D01*
X77098251Y-119247523D01*
X77103233Y-119249846D01*
X77103238Y-119249849D01*
X77137457Y-119265805D01*
X77190742Y-119312722D01*
X77210203Y-119380999D01*
X77189661Y-119448959D01*
X77137457Y-119494195D01*
X77103238Y-119510151D01*
X77103233Y-119510154D01*
X77098251Y-119512477D01*
X77038946Y-119554003D01*
X76915211Y-119640643D01*
X76915208Y-119640645D01*
X76910700Y-119643802D01*
X76748802Y-119805700D01*
X76617477Y-119993251D01*
X76615154Y-119998233D01*
X76615151Y-119998238D01*
X76570696Y-120093574D01*
X76520716Y-120200757D01*
X76519294Y-120206065D01*
X76519293Y-120206067D01*
X76477333Y-120362663D01*
X76461457Y-120421913D01*
X76441502Y-120650000D01*
X76461457Y-120878087D01*
X76462881Y-120883400D01*
X76462881Y-120883402D01*
X76478222Y-120940653D01*
X76520716Y-121099243D01*
X76523039Y-121104224D01*
X76523039Y-121104225D01*
X76615151Y-121301762D01*
X76615154Y-121301767D01*
X76617477Y-121306749D01*
X76686179Y-121404865D01*
X76713035Y-121443219D01*
X76748802Y-121494300D01*
X76910700Y-121656198D01*
X76915208Y-121659355D01*
X76915211Y-121659357D01*
X76937743Y-121675134D01*
X77098251Y-121787523D01*
X77103233Y-121789846D01*
X77103238Y-121789849D01*
X77137457Y-121805805D01*
X77190742Y-121852722D01*
X77210203Y-121920999D01*
X77189661Y-121988959D01*
X77137457Y-122034195D01*
X77103238Y-122050151D01*
X77103233Y-122050154D01*
X77098251Y-122052477D01*
X77045944Y-122089103D01*
X76915211Y-122180643D01*
X76915208Y-122180645D01*
X76910700Y-122183802D01*
X76748802Y-122345700D01*
X76745645Y-122350208D01*
X76745643Y-122350211D01*
X76696164Y-122420875D01*
X76617477Y-122533251D01*
X76615154Y-122538233D01*
X76615151Y-122538238D01*
X76548581Y-122681000D01*
X76520716Y-122740757D01*
X76519294Y-122746065D01*
X76519293Y-122746067D01*
X76462881Y-122956598D01*
X76461457Y-122961913D01*
X76441502Y-123190000D01*
X76461457Y-123418087D01*
X76462881Y-123423400D01*
X76462881Y-123423402D01*
X76500025Y-123562022D01*
X76520716Y-123639243D01*
X76523039Y-123644224D01*
X76523039Y-123644225D01*
X76615151Y-123841762D01*
X76615154Y-123841767D01*
X76617477Y-123846749D01*
X76674693Y-123928461D01*
X76742625Y-124025478D01*
X76748802Y-124034300D01*
X76910700Y-124196198D01*
X76915208Y-124199355D01*
X76915211Y-124199357D01*
X76964955Y-124234188D01*
X77098251Y-124327523D01*
X77103236Y-124329848D01*
X77103242Y-124329851D01*
X77123749Y-124339413D01*
X77177034Y-124386329D01*
X77196500Y-124453608D01*
X77196500Y-125638807D01*
X77185622Y-125687874D01*
X77185698Y-125687899D01*
X77131851Y-125850243D01*
X77121500Y-125951268D01*
X77121500Y-126498732D01*
X77132113Y-126601019D01*
X77134295Y-126607559D01*
X77183537Y-126755153D01*
X77186244Y-126763268D01*
X77190096Y-126769492D01*
X77190096Y-126769493D01*
X77205524Y-126794424D01*
X77276248Y-126908713D01*
X77281430Y-126913886D01*
X77285977Y-126919623D01*
X77284170Y-126921055D01*
X77312902Y-126973575D01*
X77307892Y-127044395D01*
X77284501Y-127080853D01*
X77285552Y-127081683D01*
X77272002Y-127098840D01*
X77189996Y-127231880D01*
X77183849Y-127245061D01*
X77134509Y-127393814D01*
X77131642Y-127407190D01*
X77122328Y-127498097D01*
X77122071Y-127503126D01*
X77126475Y-127518124D01*
X77127865Y-127519329D01*
X77135548Y-127521000D01*
X79069885Y-127521000D01*
X79085124Y-127516525D01*
X79086329Y-127515135D01*
X79088000Y-127507452D01*
X79088000Y-127504562D01*
X79087663Y-127498047D01*
X79078106Y-127405943D01*
X79075212Y-127392544D01*
X79025619Y-127243893D01*
X79019445Y-127230714D01*
X78937212Y-127097827D01*
X78923629Y-127080689D01*
X78925559Y-127079159D01*
X78897097Y-127027120D01*
X78902113Y-126956301D01*
X78925799Y-126919383D01*
X78924843Y-126918628D01*
X78929381Y-126912882D01*
X78934552Y-126907702D01*
X78943923Y-126892500D01*
X79020462Y-126768331D01*
X79020463Y-126768329D01*
X79024302Y-126762101D01*
X79078149Y-126599757D01*
X79088500Y-126498732D01*
X79088500Y-125951268D01*
X79077887Y-125848981D01*
X79023756Y-125686732D01*
X79024144Y-125686603D01*
X79013500Y-125638787D01*
X79013500Y-124234188D01*
X79033502Y-124166067D01*
X79050405Y-124145093D01*
X79161198Y-124034300D01*
X79167376Y-124025478D01*
X79235307Y-123928461D01*
X79292523Y-123846749D01*
X79294846Y-123841767D01*
X79294849Y-123841762D01*
X79386961Y-123644225D01*
X79386961Y-123644224D01*
X79389284Y-123639243D01*
X79409976Y-123562022D01*
X79447119Y-123423402D01*
X79447119Y-123423400D01*
X79448543Y-123418087D01*
X79468498Y-123190000D01*
X79448543Y-122961913D01*
X79447119Y-122956598D01*
X79390707Y-122746067D01*
X79390706Y-122746065D01*
X79389284Y-122740757D01*
X79361419Y-122681000D01*
X79294849Y-122538238D01*
X79294846Y-122538233D01*
X79292523Y-122533251D01*
X79213836Y-122420875D01*
X79164357Y-122350211D01*
X79164355Y-122350208D01*
X79161198Y-122345700D01*
X78999300Y-122183802D01*
X78994792Y-122180645D01*
X78994789Y-122180643D01*
X78864056Y-122089103D01*
X78811749Y-122052477D01*
X78806767Y-122050154D01*
X78806762Y-122050151D01*
X78772543Y-122034195D01*
X78719258Y-121987278D01*
X78699797Y-121919001D01*
X78720339Y-121851041D01*
X78772543Y-121805805D01*
X78806762Y-121789849D01*
X78806767Y-121789846D01*
X78811749Y-121787523D01*
X78972257Y-121675134D01*
X78994789Y-121659357D01*
X78994792Y-121659355D01*
X78999300Y-121656198D01*
X79161198Y-121494300D01*
X79196966Y-121443219D01*
X79223821Y-121404865D01*
X79292523Y-121306749D01*
X79294846Y-121301767D01*
X79294849Y-121301762D01*
X79386961Y-121104225D01*
X79386961Y-121104224D01*
X79389284Y-121099243D01*
X79431779Y-120940653D01*
X79447119Y-120883402D01*
X79447119Y-120883400D01*
X79448543Y-120878087D01*
X79468498Y-120650000D01*
X79448543Y-120421913D01*
X79432667Y-120362663D01*
X79390707Y-120206067D01*
X79390706Y-120206065D01*
X79389284Y-120200757D01*
X79339304Y-120093574D01*
X79294849Y-119998238D01*
X79294846Y-119998233D01*
X79292523Y-119993251D01*
X79161198Y-119805700D01*
X78999300Y-119643802D01*
X78994792Y-119640645D01*
X78994789Y-119640643D01*
X78871054Y-119554003D01*
X78811749Y-119512477D01*
X78806767Y-119510154D01*
X78806762Y-119510151D01*
X78772543Y-119494195D01*
X78719258Y-119447278D01*
X78699797Y-119379001D01*
X78720339Y-119311041D01*
X78772543Y-119265805D01*
X78806762Y-119249849D01*
X78806767Y-119249846D01*
X78811749Y-119247523D01*
X78916611Y-119174098D01*
X78994789Y-119119357D01*
X78994792Y-119119355D01*
X78999300Y-119116198D01*
X79161198Y-118954300D01*
X79171301Y-118939872D01*
X79218665Y-118872229D01*
X79274122Y-118827901D01*
X79321878Y-118818500D01*
X86014340Y-118818500D01*
X86082461Y-118838502D01*
X86103435Y-118855405D01*
X100443550Y-133195520D01*
X100449404Y-133201785D01*
X100487439Y-133245385D01*
X100493653Y-133249752D01*
X100539719Y-133282128D01*
X100545014Y-133286061D01*
X100595282Y-133325476D01*
X100602198Y-133328599D01*
X100604484Y-133329983D01*
X100619165Y-133338357D01*
X100621525Y-133339622D01*
X100627739Y-133343990D01*
X100634818Y-133346750D01*
X100634820Y-133346751D01*
X100687275Y-133367202D01*
X100693344Y-133369753D01*
X100751573Y-133396045D01*
X100759046Y-133397430D01*
X100761612Y-133398234D01*
X100777835Y-133402855D01*
X100780427Y-133403520D01*
X100787509Y-133406282D01*
X100795044Y-133407274D01*
X100850861Y-133414622D01*
X100857377Y-133415654D01*
X100892097Y-133422089D01*
X100920186Y-133427295D01*
X100927766Y-133426858D01*
X100927767Y-133426858D01*
X100982380Y-133423709D01*
X100989633Y-133423500D01*
X102494290Y-133423500D01*
X102562411Y-133443502D01*
X102583385Y-133460405D01*
X102674619Y-133551639D01*
X102821301Y-133640472D01*
X102828548Y-133642743D01*
X102828550Y-133642744D01*
X102894836Y-133663517D01*
X102984938Y-133691753D01*
X103058365Y-133698500D01*
X103061263Y-133698500D01*
X103315665Y-133698499D01*
X103571634Y-133698499D01*
X103574492Y-133698236D01*
X103574501Y-133698236D01*
X103610004Y-133694974D01*
X103645062Y-133691753D01*
X103651447Y-133689752D01*
X103801450Y-133642744D01*
X103801452Y-133642743D01*
X103808699Y-133640472D01*
X103955381Y-133551639D01*
X104050905Y-133456115D01*
X104113217Y-133422089D01*
X104184032Y-133427154D01*
X104229095Y-133456115D01*
X104324619Y-133551639D01*
X104471301Y-133640472D01*
X104478548Y-133642743D01*
X104478550Y-133642744D01*
X104544836Y-133663517D01*
X104634938Y-133691753D01*
X104708365Y-133698500D01*
X104711263Y-133698500D01*
X104965665Y-133698499D01*
X105221634Y-133698499D01*
X105224492Y-133698236D01*
X105224501Y-133698236D01*
X105260004Y-133694974D01*
X105295062Y-133691753D01*
X105301447Y-133689752D01*
X105451450Y-133642744D01*
X105451452Y-133642743D01*
X105458699Y-133640472D01*
X105605381Y-133551639D01*
X105726639Y-133430381D01*
X105815472Y-133283699D01*
X105826111Y-133249752D01*
X105841142Y-133201785D01*
X105866753Y-133120062D01*
X105873500Y-133046635D01*
X105873500Y-132860660D01*
X105893502Y-132792539D01*
X105910405Y-132771565D01*
X109065528Y-129616443D01*
X109071793Y-129610589D01*
X109109664Y-129577552D01*
X109109665Y-129577551D01*
X109115385Y-129572561D01*
X109152136Y-129520271D01*
X109156028Y-129515029D01*
X109195476Y-129464718D01*
X109198600Y-129457799D01*
X109199988Y-129455507D01*
X109208357Y-129440835D01*
X109209622Y-129438475D01*
X109213990Y-129432261D01*
X109237203Y-129372723D01*
X109239759Y-129366642D01*
X109250102Y-129343737D01*
X109266045Y-129308427D01*
X109267430Y-129300954D01*
X109268234Y-129298388D01*
X109272855Y-129282165D01*
X109273520Y-129279573D01*
X109276282Y-129272491D01*
X109284622Y-129209139D01*
X109285654Y-129202623D01*
X109295911Y-129147281D01*
X109297295Y-129139814D01*
X109293709Y-129077620D01*
X109293500Y-129070367D01*
X109293500Y-126491000D01*
X109313502Y-126422879D01*
X109367158Y-126376386D01*
X109419500Y-126365000D01*
X111366180Y-126365000D01*
X111434301Y-126385002D01*
X111475299Y-126428000D01*
X111528960Y-126520944D01*
X111533378Y-126525851D01*
X111533379Y-126525852D01*
X111652037Y-126657635D01*
X111656747Y-126662866D01*
X111725065Y-126712502D01*
X111801907Y-126768331D01*
X111811248Y-126775118D01*
X111817276Y-126777802D01*
X111817278Y-126777803D01*
X111979681Y-126850109D01*
X111985712Y-126852794D01*
X112079112Y-126872647D01*
X112166056Y-126891128D01*
X112166061Y-126891128D01*
X112172513Y-126892500D01*
X112363487Y-126892500D01*
X112369939Y-126891128D01*
X112369944Y-126891128D01*
X112456888Y-126872647D01*
X112550288Y-126852794D01*
X112556319Y-126850109D01*
X112718722Y-126777803D01*
X112718724Y-126777802D01*
X112724752Y-126775118D01*
X112734094Y-126768331D01*
X112805344Y-126716564D01*
X112872211Y-126692706D01*
X112879405Y-126692500D01*
X116621340Y-126692500D01*
X116689461Y-126712502D01*
X116710435Y-126729405D01*
X118223550Y-128242520D01*
X118229404Y-128248785D01*
X118267439Y-128292385D01*
X118273657Y-128296755D01*
X118319697Y-128329112D01*
X118324993Y-128333045D01*
X118375282Y-128372477D01*
X118382204Y-128375602D01*
X118384452Y-128376964D01*
X118399185Y-128385368D01*
X118401524Y-128386622D01*
X118407739Y-128390990D01*
X118414815Y-128393749D01*
X118414819Y-128393751D01*
X118467269Y-128414200D01*
X118473334Y-128416749D01*
X118531573Y-128443045D01*
X118539038Y-128444429D01*
X118541582Y-128445226D01*
X118557848Y-128449859D01*
X118560428Y-128450521D01*
X118567509Y-128453282D01*
X118575042Y-128454274D01*
X118575043Y-128454274D01*
X118588261Y-128456014D01*
X118630857Y-128461622D01*
X118637355Y-128462650D01*
X118700187Y-128474296D01*
X118707767Y-128473859D01*
X118707768Y-128473859D01*
X118762398Y-128470709D01*
X118769651Y-128470500D01*
X132559088Y-128470500D01*
X132567658Y-128470792D01*
X132617776Y-128474209D01*
X132617780Y-128474209D01*
X132625352Y-128474725D01*
X132632829Y-128473420D01*
X132632830Y-128473420D01*
X132659308Y-128468799D01*
X132688303Y-128463738D01*
X132694821Y-128462777D01*
X132758242Y-128455102D01*
X132765343Y-128452419D01*
X132767952Y-128451778D01*
X132784262Y-128447315D01*
X132786798Y-128446550D01*
X132794284Y-128445243D01*
X132852800Y-128419556D01*
X132858904Y-128417065D01*
X132863319Y-128415397D01*
X132918656Y-128394487D01*
X132924919Y-128390183D01*
X132927285Y-128388946D01*
X132942097Y-128380701D01*
X132944351Y-128379368D01*
X132951305Y-128376315D01*
X133002002Y-128337413D01*
X133007332Y-128333541D01*
X133053720Y-128301661D01*
X133053725Y-128301656D01*
X133059981Y-128297357D01*
X133101436Y-128250829D01*
X133106416Y-128245554D01*
X135765565Y-125586405D01*
X135827877Y-125552379D01*
X135854660Y-125549500D01*
X139290088Y-125549500D01*
X139298658Y-125549792D01*
X139348776Y-125553209D01*
X139348780Y-125553209D01*
X139356352Y-125553725D01*
X139363829Y-125552420D01*
X139363830Y-125552420D01*
X139390308Y-125547799D01*
X139419303Y-125542738D01*
X139425821Y-125541777D01*
X139489242Y-125534102D01*
X139496343Y-125531419D01*
X139498952Y-125530778D01*
X139515262Y-125526315D01*
X139517798Y-125525550D01*
X139525284Y-125524243D01*
X139583800Y-125498556D01*
X139589904Y-125496065D01*
X139642548Y-125476173D01*
X139642549Y-125476172D01*
X139649656Y-125473487D01*
X139655919Y-125469183D01*
X139658285Y-125467946D01*
X139673097Y-125459701D01*
X139675351Y-125458368D01*
X139682305Y-125455315D01*
X139733002Y-125416413D01*
X139738332Y-125412541D01*
X139784720Y-125380661D01*
X139784725Y-125380656D01*
X139790981Y-125376357D01*
X139832436Y-125329829D01*
X139837416Y-125324554D01*
X140677064Y-124484906D01*
X140739376Y-124450880D01*
X140777138Y-124448480D01*
X140970000Y-124465353D01*
X141191463Y-124445978D01*
X141335051Y-124407503D01*
X141400886Y-124389863D01*
X141400888Y-124389862D01*
X141406196Y-124388440D01*
X141413751Y-124384917D01*
X141602690Y-124296814D01*
X141602695Y-124296811D01*
X141607677Y-124294488D01*
X141774056Y-124177988D01*
X141785270Y-124170136D01*
X141785273Y-124170134D01*
X141789781Y-124166977D01*
X141946977Y-124009781D01*
X141952774Y-124001503D01*
X142071331Y-123832185D01*
X142071332Y-123832183D01*
X142074488Y-123827676D01*
X142076811Y-123822694D01*
X142076814Y-123822689D01*
X142125805Y-123717627D01*
X142172723Y-123664342D01*
X142241000Y-123644881D01*
X142308960Y-123665423D01*
X142354195Y-123717627D01*
X142403186Y-123822689D01*
X142403189Y-123822694D01*
X142405512Y-123827676D01*
X142408668Y-123832183D01*
X142408669Y-123832185D01*
X142527227Y-124001503D01*
X142533023Y-124009781D01*
X142690219Y-124166977D01*
X142694727Y-124170134D01*
X142694730Y-124170136D01*
X142705944Y-124177988D01*
X142872323Y-124294488D01*
X142877305Y-124296811D01*
X142877310Y-124296814D01*
X143066249Y-124384917D01*
X143073804Y-124388440D01*
X143079112Y-124389862D01*
X143079114Y-124389863D01*
X143144949Y-124407503D01*
X143288537Y-124445978D01*
X143510000Y-124465353D01*
X143731463Y-124445978D01*
X143875051Y-124407503D01*
X143940886Y-124389863D01*
X143940888Y-124389862D01*
X143946196Y-124388440D01*
X143953751Y-124384917D01*
X144142690Y-124296814D01*
X144142695Y-124296811D01*
X144147677Y-124294488D01*
X144314056Y-124177988D01*
X144325270Y-124170136D01*
X144325273Y-124170134D01*
X144329781Y-124166977D01*
X144486977Y-124009781D01*
X144492774Y-124001503D01*
X144611331Y-123832185D01*
X144611332Y-123832183D01*
X144614488Y-123827676D01*
X144616811Y-123822694D01*
X144616814Y-123822689D01*
X144665805Y-123717627D01*
X144712723Y-123664342D01*
X144781000Y-123644881D01*
X144848960Y-123665423D01*
X144894195Y-123717627D01*
X144943186Y-123822689D01*
X144943189Y-123822694D01*
X144945512Y-123827676D01*
X144948668Y-123832183D01*
X144948669Y-123832185D01*
X145067227Y-124001503D01*
X145073023Y-124009781D01*
X145230219Y-124166977D01*
X145234727Y-124170134D01*
X145234730Y-124170136D01*
X145245944Y-124177988D01*
X145412323Y-124294488D01*
X145417305Y-124296811D01*
X145417310Y-124296814D01*
X145606249Y-124384917D01*
X145613804Y-124388440D01*
X145619112Y-124389862D01*
X145619114Y-124389863D01*
X145684949Y-124407503D01*
X145828537Y-124445978D01*
X146050000Y-124465353D01*
X146271463Y-124445978D01*
X146415051Y-124407503D01*
X146480886Y-124389863D01*
X146480888Y-124389862D01*
X146486196Y-124388440D01*
X146493751Y-124384917D01*
X146682690Y-124296814D01*
X146682695Y-124296811D01*
X146687677Y-124294488D01*
X146854056Y-124177988D01*
X146865270Y-124170136D01*
X146865273Y-124170134D01*
X146869781Y-124166977D01*
X147026977Y-124009781D01*
X147032774Y-124001503D01*
X147151331Y-123832185D01*
X147151332Y-123832183D01*
X147154488Y-123827676D01*
X147156811Y-123822694D01*
X147156814Y-123822689D01*
X147205805Y-123717627D01*
X147252723Y-123664342D01*
X147321000Y-123644881D01*
X147388960Y-123665423D01*
X147434195Y-123717627D01*
X147483186Y-123822689D01*
X147483189Y-123822694D01*
X147485512Y-123827676D01*
X147488668Y-123832183D01*
X147488669Y-123832185D01*
X147607227Y-124001503D01*
X147613023Y-124009781D01*
X147770219Y-124166977D01*
X147774727Y-124170134D01*
X147774730Y-124170136D01*
X147785944Y-124177988D01*
X147952323Y-124294488D01*
X147957305Y-124296811D01*
X147957310Y-124296814D01*
X148146249Y-124384917D01*
X148153804Y-124388440D01*
X148159112Y-124389862D01*
X148159114Y-124389863D01*
X148224949Y-124407503D01*
X148368537Y-124445978D01*
X148590000Y-124465353D01*
X148811463Y-124445978D01*
X148955051Y-124407503D01*
X149020886Y-124389863D01*
X149020888Y-124389862D01*
X149026196Y-124388440D01*
X149033751Y-124384917D01*
X149222690Y-124296814D01*
X149222695Y-124296811D01*
X149227677Y-124294488D01*
X149394056Y-124177988D01*
X149405270Y-124170136D01*
X149405273Y-124170134D01*
X149409781Y-124166977D01*
X149566977Y-124009781D01*
X149572774Y-124001503D01*
X149691331Y-123832185D01*
X149691332Y-123832183D01*
X149694488Y-123827676D01*
X149696811Y-123822694D01*
X149696814Y-123822689D01*
X149745805Y-123717627D01*
X149792723Y-123664342D01*
X149861000Y-123644881D01*
X149928960Y-123665423D01*
X149974195Y-123717627D01*
X150023186Y-123822689D01*
X150023189Y-123822694D01*
X150025512Y-123827676D01*
X150028668Y-123832183D01*
X150028669Y-123832185D01*
X150147227Y-124001503D01*
X150153023Y-124009781D01*
X150310219Y-124166977D01*
X150314727Y-124170134D01*
X150314730Y-124170136D01*
X150325944Y-124177988D01*
X150492323Y-124294488D01*
X150497305Y-124296811D01*
X150497310Y-124296814D01*
X150686249Y-124384917D01*
X150693804Y-124388440D01*
X150699112Y-124389862D01*
X150699114Y-124389863D01*
X150764949Y-124407503D01*
X150908537Y-124445978D01*
X151130000Y-124465353D01*
X151351463Y-124445978D01*
X151495051Y-124407503D01*
X151560886Y-124389863D01*
X151560888Y-124389862D01*
X151566196Y-124388440D01*
X151573751Y-124384917D01*
X151762690Y-124296814D01*
X151762695Y-124296811D01*
X151767677Y-124294488D01*
X151832959Y-124248777D01*
X152975777Y-124248777D01*
X152985074Y-124260793D01*
X153028069Y-124290898D01*
X153037555Y-124296376D01*
X153228993Y-124385645D01*
X153239285Y-124389391D01*
X153443309Y-124444059D01*
X153454104Y-124445962D01*
X153664525Y-124464372D01*
X153675475Y-124464372D01*
X153885896Y-124445962D01*
X153896691Y-124444059D01*
X154100715Y-124389391D01*
X154111007Y-124385645D01*
X154302445Y-124296376D01*
X154311931Y-124290898D01*
X154355764Y-124260207D01*
X154364139Y-124249729D01*
X154357071Y-124236281D01*
X153682812Y-123562022D01*
X153668868Y-123554408D01*
X153667035Y-123554539D01*
X153660420Y-123558790D01*
X152982207Y-124237003D01*
X152975777Y-124248777D01*
X151832959Y-124248777D01*
X151934056Y-124177988D01*
X151945270Y-124170136D01*
X151945273Y-124170134D01*
X151949781Y-124166977D01*
X152106977Y-124009781D01*
X152112774Y-124001503D01*
X152231331Y-123832185D01*
X152231332Y-123832183D01*
X152234488Y-123827676D01*
X152236811Y-123822694D01*
X152236814Y-123822689D01*
X152286081Y-123717035D01*
X152332999Y-123663750D01*
X152401276Y-123644289D01*
X152469236Y-123664831D01*
X152514471Y-123717035D01*
X152563623Y-123822441D01*
X152569103Y-123831932D01*
X152599794Y-123875765D01*
X152610271Y-123884140D01*
X152623718Y-123877072D01*
X153297978Y-123202812D01*
X153304356Y-123191132D01*
X154034408Y-123191132D01*
X154034539Y-123192965D01*
X154038790Y-123199580D01*
X154717003Y-123877793D01*
X154728777Y-123884223D01*
X154740793Y-123874926D01*
X154770897Y-123831932D01*
X154776377Y-123822441D01*
X154825529Y-123717035D01*
X154872447Y-123663750D01*
X154940724Y-123644289D01*
X155008684Y-123664831D01*
X155053919Y-123717035D01*
X155103186Y-123822689D01*
X155103189Y-123822694D01*
X155105512Y-123827676D01*
X155108668Y-123832183D01*
X155108669Y-123832185D01*
X155227227Y-124001503D01*
X155233023Y-124009781D01*
X155390219Y-124166977D01*
X155394727Y-124170134D01*
X155394730Y-124170136D01*
X155405944Y-124177988D01*
X155572323Y-124294488D01*
X155577305Y-124296811D01*
X155577310Y-124296814D01*
X155766249Y-124384917D01*
X155773804Y-124388440D01*
X155779112Y-124389862D01*
X155779114Y-124389863D01*
X155844949Y-124407503D01*
X155988537Y-124445978D01*
X156210000Y-124465353D01*
X156431463Y-124445978D01*
X156575051Y-124407503D01*
X156640886Y-124389863D01*
X156640888Y-124389862D01*
X156646196Y-124388440D01*
X156653751Y-124384917D01*
X156842690Y-124296814D01*
X156842695Y-124296811D01*
X156847677Y-124294488D01*
X157014056Y-124177988D01*
X157025270Y-124170136D01*
X157025273Y-124170134D01*
X157029781Y-124166977D01*
X157186977Y-124009781D01*
X157192774Y-124001503D01*
X157311331Y-123832185D01*
X157311332Y-123832183D01*
X157314488Y-123827676D01*
X157316811Y-123822694D01*
X157316814Y-123822689D01*
X157406117Y-123631178D01*
X157406118Y-123631177D01*
X157408440Y-123626196D01*
X157465978Y-123411463D01*
X157485353Y-123190000D01*
X157465978Y-122968537D01*
X157408440Y-122753804D01*
X157365805Y-122662373D01*
X157316814Y-122557311D01*
X157316811Y-122557306D01*
X157314488Y-122552324D01*
X157300946Y-122532984D01*
X157190136Y-122374730D01*
X157190134Y-122374727D01*
X157186977Y-122370219D01*
X157155405Y-122338647D01*
X157121379Y-122276335D01*
X157118500Y-122249552D01*
X157118500Y-119956417D01*
X157120051Y-119936707D01*
X157121220Y-119929327D01*
X157121220Y-119929326D01*
X157122252Y-119922810D01*
X157118673Y-119854520D01*
X157118500Y-119847926D01*
X157118500Y-119827390D01*
X157118156Y-119824116D01*
X157116353Y-119806958D01*
X157115836Y-119800384D01*
X157112603Y-119738696D01*
X157112603Y-119738694D01*
X157112257Y-119732097D01*
X157108615Y-119718504D01*
X157105014Y-119699075D01*
X157104232Y-119691639D01*
X157103542Y-119685072D01*
X157082407Y-119620025D01*
X157080535Y-119613706D01*
X157064538Y-119554003D01*
X157064537Y-119554000D01*
X157062830Y-119547630D01*
X157056438Y-119535085D01*
X157048874Y-119516823D01*
X157046848Y-119510586D01*
X157044527Y-119503444D01*
X157039187Y-119494195D01*
X157010336Y-119444223D01*
X157007188Y-119438426D01*
X156979126Y-119383351D01*
X156979124Y-119383348D01*
X156976129Y-119377470D01*
X156967273Y-119366533D01*
X156956073Y-119350237D01*
X156952343Y-119343776D01*
X156952340Y-119343772D01*
X156949040Y-119338056D01*
X156944623Y-119333150D01*
X156944619Y-119333145D01*
X156903278Y-119287231D01*
X156898994Y-119282216D01*
X156888148Y-119268823D01*
X156886072Y-119266259D01*
X156871557Y-119251744D01*
X156867016Y-119246959D01*
X156825673Y-119201043D01*
X156821253Y-119196134D01*
X156809865Y-119187860D01*
X156794832Y-119175019D01*
X156701925Y-119082112D01*
X156667899Y-119019800D01*
X156665693Y-119006022D01*
X156664746Y-118996899D01*
X156662887Y-118978981D01*
X156631580Y-118885142D01*
X156611073Y-118823676D01*
X156611072Y-118823674D01*
X156608756Y-118816732D01*
X156602702Y-118806948D01*
X156522606Y-118677515D01*
X156518752Y-118671287D01*
X156397702Y-118550448D01*
X156276762Y-118475899D01*
X156258331Y-118464538D01*
X156258329Y-118464537D01*
X156252101Y-118460698D01*
X156089757Y-118406851D01*
X156082920Y-118406151D01*
X156082918Y-118406150D01*
X156041599Y-118401917D01*
X155988732Y-118396500D01*
X155441268Y-118396500D01*
X155438022Y-118396837D01*
X155438018Y-118396837D01*
X155408730Y-118399876D01*
X155338981Y-118407113D01*
X155330963Y-118409788D01*
X155183676Y-118458927D01*
X155183674Y-118458928D01*
X155176732Y-118461244D01*
X155031287Y-118551248D01*
X155026114Y-118556430D01*
X155020377Y-118560977D01*
X155018945Y-118559170D01*
X154966425Y-118587902D01*
X154895605Y-118582892D01*
X154859147Y-118559501D01*
X154858317Y-118560552D01*
X154841160Y-118547002D01*
X154708120Y-118464996D01*
X154694939Y-118458849D01*
X154546186Y-118409509D01*
X154532810Y-118406642D01*
X154441903Y-118397328D01*
X154436874Y-118397071D01*
X154421876Y-118401475D01*
X154420671Y-118402865D01*
X154419000Y-118410548D01*
X154419000Y-120344885D01*
X154423475Y-120360124D01*
X154424865Y-120361329D01*
X154432548Y-120363000D01*
X154435438Y-120363000D01*
X154441953Y-120362663D01*
X154534057Y-120353106D01*
X154547456Y-120350212D01*
X154696107Y-120300619D01*
X154709286Y-120294445D01*
X154842173Y-120212212D01*
X154859311Y-120198629D01*
X154860841Y-120200559D01*
X154912880Y-120172097D01*
X154983699Y-120177113D01*
X155020617Y-120200799D01*
X155021372Y-120199843D01*
X155027118Y-120204381D01*
X155032298Y-120209552D01*
X155177899Y-120299302D01*
X155184847Y-120301607D01*
X155184848Y-120301607D01*
X155215168Y-120311664D01*
X155273528Y-120352096D01*
X155300764Y-120417660D01*
X155301500Y-120431257D01*
X155301500Y-122249552D01*
X155281498Y-122317673D01*
X155264595Y-122338647D01*
X155233023Y-122370219D01*
X155229866Y-122374727D01*
X155229864Y-122374730D01*
X155119054Y-122532984D01*
X155105512Y-122552324D01*
X155103189Y-122557306D01*
X155103186Y-122557311D01*
X155053919Y-122662965D01*
X155007001Y-122716250D01*
X154938724Y-122735711D01*
X154870764Y-122715169D01*
X154825529Y-122662965D01*
X154776377Y-122557559D01*
X154770897Y-122548068D01*
X154740206Y-122504235D01*
X154729729Y-122495860D01*
X154716282Y-122502928D01*
X154042022Y-123177188D01*
X154034408Y-123191132D01*
X153304356Y-123191132D01*
X153305592Y-123188868D01*
X153305461Y-123187035D01*
X153301210Y-123180420D01*
X152622997Y-122502207D01*
X152611223Y-122495777D01*
X152599207Y-122505074D01*
X152569103Y-122548068D01*
X152563623Y-122557559D01*
X152514471Y-122662965D01*
X152467553Y-122716250D01*
X152399276Y-122735711D01*
X152331316Y-122715169D01*
X152286081Y-122662965D01*
X152236814Y-122557311D01*
X152236811Y-122557306D01*
X152234488Y-122552324D01*
X152220946Y-122532984D01*
X152110136Y-122374730D01*
X152110134Y-122374727D01*
X152106977Y-122370219D01*
X151949781Y-122213023D01*
X151945273Y-122209866D01*
X151945270Y-122209864D01*
X151867630Y-122155500D01*
X151831599Y-122130271D01*
X152975860Y-122130271D01*
X152982928Y-122143718D01*
X153657188Y-122817978D01*
X153671132Y-122825592D01*
X153672965Y-122825461D01*
X153679580Y-122821210D01*
X154357793Y-122142997D01*
X154364223Y-122131223D01*
X154354926Y-122119207D01*
X154311931Y-122089102D01*
X154302445Y-122083624D01*
X154111007Y-121994355D01*
X154100715Y-121990609D01*
X153896691Y-121935941D01*
X153885896Y-121934038D01*
X153675475Y-121915628D01*
X153664525Y-121915628D01*
X153454104Y-121934038D01*
X153443309Y-121935941D01*
X153239285Y-121990609D01*
X153228993Y-121994355D01*
X153037559Y-122083623D01*
X153028068Y-122089103D01*
X152984235Y-122119794D01*
X152975860Y-122130271D01*
X151831599Y-122130271D01*
X151767677Y-122085512D01*
X151762695Y-122083189D01*
X151762690Y-122083186D01*
X151571178Y-121993883D01*
X151571177Y-121993882D01*
X151566196Y-121991560D01*
X151560888Y-121990138D01*
X151560886Y-121990137D01*
X151495051Y-121972497D01*
X151351463Y-121934022D01*
X151130000Y-121914647D01*
X150908537Y-121934022D01*
X150764949Y-121972497D01*
X150699114Y-121990137D01*
X150699112Y-121990138D01*
X150693804Y-121991560D01*
X150688823Y-121993882D01*
X150688822Y-121993883D01*
X150497311Y-122083186D01*
X150497306Y-122083189D01*
X150492324Y-122085512D01*
X150487817Y-122088668D01*
X150487815Y-122088669D01*
X150314730Y-122209864D01*
X150314727Y-122209866D01*
X150310219Y-122213023D01*
X150153023Y-122370219D01*
X150149866Y-122374727D01*
X150149864Y-122374730D01*
X150039054Y-122532984D01*
X150025512Y-122552324D01*
X150023189Y-122557306D01*
X150023186Y-122557311D01*
X149974195Y-122662373D01*
X149927277Y-122715658D01*
X149859000Y-122735119D01*
X149791040Y-122714577D01*
X149745805Y-122662373D01*
X149696814Y-122557311D01*
X149696811Y-122557306D01*
X149694488Y-122552324D01*
X149680946Y-122532984D01*
X149570136Y-122374730D01*
X149570134Y-122374727D01*
X149566977Y-122370219D01*
X149409781Y-122213023D01*
X149405273Y-122209866D01*
X149405270Y-122209864D01*
X149327630Y-122155500D01*
X149227677Y-122085512D01*
X149222695Y-122083189D01*
X149222690Y-122083186D01*
X149031178Y-121993883D01*
X149031177Y-121993882D01*
X149026196Y-121991560D01*
X149020888Y-121990138D01*
X149020886Y-121990137D01*
X148955051Y-121972497D01*
X148811463Y-121934022D01*
X148590000Y-121914647D01*
X148397140Y-121931520D01*
X148327537Y-121917531D01*
X148297065Y-121895094D01*
X146077408Y-119675438D01*
X153207000Y-119675438D01*
X153207337Y-119681953D01*
X153216894Y-119774057D01*
X153219788Y-119787456D01*
X153269381Y-119936107D01*
X153275555Y-119949286D01*
X153357788Y-120082173D01*
X153366824Y-120093574D01*
X153477429Y-120203986D01*
X153488840Y-120212998D01*
X153621880Y-120295004D01*
X153635061Y-120301151D01*
X153783814Y-120350491D01*
X153797190Y-120353358D01*
X153888097Y-120362672D01*
X153893126Y-120362929D01*
X153908124Y-120358525D01*
X153909329Y-120357135D01*
X153911000Y-120349452D01*
X153911000Y-119652115D01*
X153906525Y-119636876D01*
X153905135Y-119635671D01*
X153897452Y-119634000D01*
X153225115Y-119634000D01*
X153209876Y-119638475D01*
X153208671Y-119639865D01*
X153207000Y-119647548D01*
X153207000Y-119675438D01*
X146077408Y-119675438D01*
X145509855Y-119107885D01*
X153207000Y-119107885D01*
X153211475Y-119123124D01*
X153212865Y-119124329D01*
X153220548Y-119126000D01*
X153892885Y-119126000D01*
X153908124Y-119121525D01*
X153909329Y-119120135D01*
X153911000Y-119112452D01*
X153911000Y-118415115D01*
X153906525Y-118399876D01*
X153905135Y-118398671D01*
X153897452Y-118397000D01*
X153894562Y-118397000D01*
X153888047Y-118397337D01*
X153795943Y-118406894D01*
X153782544Y-118409788D01*
X153633893Y-118459381D01*
X153620714Y-118465555D01*
X153487827Y-118547788D01*
X153476426Y-118556824D01*
X153366014Y-118667429D01*
X153357002Y-118678840D01*
X153274996Y-118811880D01*
X153268849Y-118825061D01*
X153219509Y-118973814D01*
X153216642Y-118987190D01*
X153207328Y-119078097D01*
X153207000Y-119084514D01*
X153207000Y-119107885D01*
X145509855Y-119107885D01*
X145428450Y-119026480D01*
X145422596Y-119020215D01*
X145420812Y-119018170D01*
X145384561Y-118976615D01*
X145332280Y-118939871D01*
X145326986Y-118935939D01*
X145282693Y-118901209D01*
X145276718Y-118896524D01*
X145269802Y-118893401D01*
X145267516Y-118892017D01*
X145252835Y-118883643D01*
X145250475Y-118882378D01*
X145244261Y-118878010D01*
X145237182Y-118875250D01*
X145237180Y-118875249D01*
X145184725Y-118854798D01*
X145178656Y-118852247D01*
X145120427Y-118825955D01*
X145112960Y-118824571D01*
X145110405Y-118823770D01*
X145094152Y-118819141D01*
X145091572Y-118818478D01*
X145084491Y-118815718D01*
X145076960Y-118814727D01*
X145076958Y-118814726D01*
X145044909Y-118810507D01*
X145021139Y-118807378D01*
X145014641Y-118806348D01*
X144951814Y-118794704D01*
X144944234Y-118795141D01*
X144944233Y-118795141D01*
X144889608Y-118798291D01*
X144882354Y-118798500D01*
X137061912Y-118798500D01*
X137053342Y-118798208D01*
X137003224Y-118794791D01*
X137003220Y-118794791D01*
X136995648Y-118794275D01*
X136988171Y-118795580D01*
X136988170Y-118795580D01*
X136971440Y-118798500D01*
X136932703Y-118805261D01*
X136926186Y-118806222D01*
X136862758Y-118813898D01*
X136855650Y-118816584D01*
X136853056Y-118817221D01*
X136836750Y-118821682D01*
X136834199Y-118822452D01*
X136826716Y-118823758D01*
X136819764Y-118826810D01*
X136819763Y-118826810D01*
X136768212Y-118849439D01*
X136762105Y-118851931D01*
X136709452Y-118871827D01*
X136702344Y-118874513D01*
X136696083Y-118878816D01*
X136693717Y-118880053D01*
X136678937Y-118888280D01*
X136676652Y-118889631D01*
X136669695Y-118892685D01*
X136663675Y-118897305D01*
X136663669Y-118897308D01*
X136632542Y-118921194D01*
X136618998Y-118931587D01*
X136613668Y-118935459D01*
X136567280Y-118967339D01*
X136567275Y-118967344D01*
X136561019Y-118971643D01*
X136555968Y-118977313D01*
X136555966Y-118977314D01*
X136519565Y-119018170D01*
X136514584Y-119023446D01*
X132419302Y-123118728D01*
X132356990Y-123152754D01*
X132286175Y-123147689D01*
X132229339Y-123105142D01*
X132217942Y-123086840D01*
X132214127Y-123079353D01*
X132214125Y-123079350D01*
X132211129Y-123073470D01*
X132202273Y-123062533D01*
X132191073Y-123046237D01*
X132187343Y-123039776D01*
X132187340Y-123039772D01*
X132184040Y-123034056D01*
X132179623Y-123029150D01*
X132179619Y-123029145D01*
X132138278Y-122983231D01*
X132133994Y-122978216D01*
X132125229Y-122967393D01*
X132121072Y-122962259D01*
X132106557Y-122947744D01*
X132102016Y-122942959D01*
X132060673Y-122897043D01*
X132056253Y-122892134D01*
X132044865Y-122883860D01*
X132029832Y-122871019D01*
X131763981Y-122605168D01*
X131751140Y-122590135D01*
X131746746Y-122584087D01*
X131746745Y-122584086D01*
X131742866Y-122578747D01*
X131692041Y-122532984D01*
X131687256Y-122528443D01*
X131672741Y-122513928D01*
X131658267Y-122502207D01*
X131656784Y-122501006D01*
X131651769Y-122496722D01*
X131605855Y-122455381D01*
X131605850Y-122455377D01*
X131600944Y-122450960D01*
X131595228Y-122447660D01*
X131595224Y-122447657D01*
X131588763Y-122443927D01*
X131572466Y-122432727D01*
X131566660Y-122428025D01*
X131566658Y-122428024D01*
X131561530Y-122423871D01*
X131500577Y-122392814D01*
X131494782Y-122389667D01*
X131441279Y-122358777D01*
X131441278Y-122358776D01*
X131435556Y-122355473D01*
X131429274Y-122353432D01*
X131429272Y-122353431D01*
X131422174Y-122351125D01*
X131403907Y-122343559D01*
X131391370Y-122337171D01*
X131325299Y-122319467D01*
X131318997Y-122317600D01*
X131253928Y-122296458D01*
X131247363Y-122295768D01*
X131247354Y-122295766D01*
X131239925Y-122294985D01*
X131220491Y-122291383D01*
X131213286Y-122289453D01*
X131213284Y-122289453D01*
X131206903Y-122287743D01*
X131200312Y-122287398D01*
X131200308Y-122287397D01*
X131138616Y-122284164D01*
X131132042Y-122283647D01*
X131114884Y-122281844D01*
X131114882Y-122281844D01*
X131111610Y-122281500D01*
X131091074Y-122281500D01*
X131084480Y-122281327D01*
X131022782Y-122278093D01*
X131022777Y-122278093D01*
X131016190Y-122277748D01*
X131002292Y-122279949D01*
X130982583Y-122281500D01*
X129304500Y-122281500D01*
X129236379Y-122261498D01*
X129189886Y-122207842D01*
X129178500Y-122155500D01*
X129178500Y-119956417D01*
X129180051Y-119936707D01*
X129181220Y-119929327D01*
X129181220Y-119929326D01*
X129182252Y-119922810D01*
X129178673Y-119854520D01*
X129178500Y-119847926D01*
X129178500Y-119827390D01*
X129178156Y-119824116D01*
X129176353Y-119806958D01*
X129175836Y-119800384D01*
X129172603Y-119738696D01*
X129172603Y-119738694D01*
X129172257Y-119732097D01*
X129168615Y-119718504D01*
X129165014Y-119699075D01*
X129164232Y-119691639D01*
X129163542Y-119685072D01*
X129142407Y-119620025D01*
X129140535Y-119613706D01*
X129124538Y-119554003D01*
X129124537Y-119554000D01*
X129122830Y-119547630D01*
X129116438Y-119535085D01*
X129108874Y-119516823D01*
X129106848Y-119510586D01*
X129104527Y-119503444D01*
X129099187Y-119494195D01*
X129070336Y-119444223D01*
X129067188Y-119438426D01*
X129039126Y-119383351D01*
X129039124Y-119383348D01*
X129036129Y-119377470D01*
X129027273Y-119366533D01*
X129016073Y-119350237D01*
X129012343Y-119343776D01*
X129012340Y-119343772D01*
X129009040Y-119338056D01*
X129004623Y-119333150D01*
X129004619Y-119333145D01*
X128963278Y-119287231D01*
X128958994Y-119282216D01*
X128948148Y-119268823D01*
X128946072Y-119266259D01*
X128931557Y-119251744D01*
X128927016Y-119246959D01*
X128885673Y-119201043D01*
X128881253Y-119196134D01*
X128869865Y-119187860D01*
X128854832Y-119175019D01*
X128761925Y-119082112D01*
X128727899Y-119019800D01*
X128725693Y-119006022D01*
X128724746Y-118996899D01*
X128722887Y-118978981D01*
X128691580Y-118885142D01*
X128671073Y-118823676D01*
X128671072Y-118823674D01*
X128668756Y-118816732D01*
X128662702Y-118806948D01*
X128582606Y-118677515D01*
X128578752Y-118671287D01*
X128457702Y-118550448D01*
X128336762Y-118475899D01*
X128318331Y-118464538D01*
X128318329Y-118464537D01*
X128312101Y-118460698D01*
X128149757Y-118406851D01*
X128142920Y-118406151D01*
X128142918Y-118406150D01*
X128101599Y-118401917D01*
X128048732Y-118396500D01*
X127501268Y-118396500D01*
X127498022Y-118396837D01*
X127498018Y-118396837D01*
X127468730Y-118399876D01*
X127398981Y-118407113D01*
X127390963Y-118409788D01*
X127243676Y-118458927D01*
X127243674Y-118458928D01*
X127236732Y-118461244D01*
X127091287Y-118551248D01*
X127086114Y-118556430D01*
X127080377Y-118560977D01*
X127078945Y-118559170D01*
X127026425Y-118587902D01*
X126955605Y-118582892D01*
X126919147Y-118559501D01*
X126918317Y-118560552D01*
X126901160Y-118547002D01*
X126768120Y-118464996D01*
X126754939Y-118458849D01*
X126606186Y-118409509D01*
X126592810Y-118406642D01*
X126501903Y-118397328D01*
X126496874Y-118397071D01*
X126481876Y-118401475D01*
X126480671Y-118402865D01*
X126479000Y-118410548D01*
X126479000Y-120344885D01*
X126483475Y-120360124D01*
X126484865Y-120361329D01*
X126492548Y-120363000D01*
X126495438Y-120363000D01*
X126501953Y-120362663D01*
X126594057Y-120353106D01*
X126607456Y-120350212D01*
X126756107Y-120300619D01*
X126769286Y-120294445D01*
X126902173Y-120212212D01*
X126919311Y-120198629D01*
X126920841Y-120200559D01*
X126972880Y-120172097D01*
X127043699Y-120177113D01*
X127080617Y-120200799D01*
X127081372Y-120199843D01*
X127087118Y-120204381D01*
X127092298Y-120209552D01*
X127237899Y-120299302D01*
X127244847Y-120301607D01*
X127244848Y-120301607D01*
X127275168Y-120311664D01*
X127333528Y-120352096D01*
X127360764Y-120417660D01*
X127361500Y-120431257D01*
X127361500Y-122249552D01*
X127341498Y-122317673D01*
X127324595Y-122338647D01*
X127293023Y-122370219D01*
X127289866Y-122374727D01*
X127289864Y-122374730D01*
X127179054Y-122532984D01*
X127165512Y-122552324D01*
X127163189Y-122557306D01*
X127163186Y-122557311D01*
X127113919Y-122662965D01*
X127067001Y-122716250D01*
X126998724Y-122735711D01*
X126930764Y-122715169D01*
X126885529Y-122662965D01*
X126836377Y-122557559D01*
X126830897Y-122548068D01*
X126800206Y-122504235D01*
X126789729Y-122495860D01*
X126776282Y-122502928D01*
X126102022Y-123177188D01*
X126094408Y-123191132D01*
X126094539Y-123192965D01*
X126098790Y-123199580D01*
X126777003Y-123877793D01*
X126788777Y-123884223D01*
X126800793Y-123874926D01*
X126830897Y-123831932D01*
X126836377Y-123822441D01*
X126885529Y-123717035D01*
X126932447Y-123663750D01*
X127000724Y-123644289D01*
X127068684Y-123664831D01*
X127113919Y-123717035D01*
X127163186Y-123822689D01*
X127163189Y-123822694D01*
X127165512Y-123827676D01*
X127168668Y-123832183D01*
X127168669Y-123832185D01*
X127287227Y-124001503D01*
X127293023Y-124009781D01*
X127450219Y-124166977D01*
X127449720Y-124167476D01*
X127486719Y-124223089D01*
X127487845Y-124294077D01*
X127450413Y-124354404D01*
X127386308Y-124384917D01*
X127366401Y-124386500D01*
X126551041Y-124386500D01*
X126482920Y-124366498D01*
X126436427Y-124312842D01*
X126426948Y-124255071D01*
X126417071Y-124236281D01*
X125742812Y-123562022D01*
X125728868Y-123554408D01*
X125727035Y-123554539D01*
X125720420Y-123558790D01*
X125042207Y-124237003D01*
X125034593Y-124250947D01*
X125034633Y-124251510D01*
X125019542Y-124320885D01*
X124969340Y-124371087D01*
X124908954Y-124386500D01*
X124093599Y-124386500D01*
X124025478Y-124366498D01*
X123978985Y-124312842D01*
X123968881Y-124242568D01*
X123998375Y-124177988D01*
X124009020Y-124167510D01*
X124009781Y-124166977D01*
X124166977Y-124009781D01*
X124172774Y-124001503D01*
X124291331Y-123832185D01*
X124291332Y-123832183D01*
X124294488Y-123827676D01*
X124296811Y-123822694D01*
X124296814Y-123822689D01*
X124346081Y-123717035D01*
X124392999Y-123663750D01*
X124461276Y-123644289D01*
X124529236Y-123664831D01*
X124574471Y-123717035D01*
X124623623Y-123822441D01*
X124629103Y-123831932D01*
X124659794Y-123875765D01*
X124670271Y-123884140D01*
X124683718Y-123877072D01*
X125357978Y-123202812D01*
X125365592Y-123188868D01*
X125365461Y-123187035D01*
X125361210Y-123180420D01*
X124682997Y-122502207D01*
X124671223Y-122495777D01*
X124659207Y-122505074D01*
X124629103Y-122548068D01*
X124623623Y-122557559D01*
X124574471Y-122662965D01*
X124527553Y-122716250D01*
X124459276Y-122735711D01*
X124391316Y-122715169D01*
X124346081Y-122662965D01*
X124296814Y-122557311D01*
X124296811Y-122557306D01*
X124294488Y-122552324D01*
X124280946Y-122532984D01*
X124170136Y-122374730D01*
X124170134Y-122374727D01*
X124166977Y-122370219D01*
X124009781Y-122213023D01*
X124005273Y-122209866D01*
X124005270Y-122209864D01*
X123927630Y-122155500D01*
X123891599Y-122130271D01*
X125035860Y-122130271D01*
X125042928Y-122143718D01*
X125717188Y-122817978D01*
X125731132Y-122825592D01*
X125732965Y-122825461D01*
X125739580Y-122821210D01*
X126417793Y-122142997D01*
X126424223Y-122131223D01*
X126414926Y-122119207D01*
X126371931Y-122089102D01*
X126362445Y-122083624D01*
X126171007Y-121994355D01*
X126160715Y-121990609D01*
X125956691Y-121935941D01*
X125945896Y-121934038D01*
X125735475Y-121915628D01*
X125724525Y-121915628D01*
X125514104Y-121934038D01*
X125503309Y-121935941D01*
X125299285Y-121990609D01*
X125288993Y-121994355D01*
X125097559Y-122083623D01*
X125088068Y-122089103D01*
X125044235Y-122119794D01*
X125035860Y-122130271D01*
X123891599Y-122130271D01*
X123827677Y-122085512D01*
X123822695Y-122083189D01*
X123822690Y-122083186D01*
X123631178Y-121993883D01*
X123631177Y-121993882D01*
X123626196Y-121991560D01*
X123620888Y-121990138D01*
X123620886Y-121990137D01*
X123555051Y-121972497D01*
X123411463Y-121934022D01*
X123190000Y-121914647D01*
X122968537Y-121934022D01*
X122824949Y-121972497D01*
X122759114Y-121990137D01*
X122759112Y-121990138D01*
X122753804Y-121991560D01*
X122748823Y-121993882D01*
X122748822Y-121993883D01*
X122557311Y-122083186D01*
X122557306Y-122083189D01*
X122552324Y-122085512D01*
X122547817Y-122088668D01*
X122547815Y-122088669D01*
X122374730Y-122209864D01*
X122374727Y-122209866D01*
X122370219Y-122213023D01*
X122213023Y-122370219D01*
X122209866Y-122374727D01*
X122209864Y-122374730D01*
X122099054Y-122532984D01*
X122085512Y-122552324D01*
X122083189Y-122557306D01*
X122083186Y-122557311D01*
X122034195Y-122662373D01*
X121987277Y-122715658D01*
X121919000Y-122735119D01*
X121851040Y-122714577D01*
X121805805Y-122662373D01*
X121756814Y-122557311D01*
X121756811Y-122557306D01*
X121754488Y-122552324D01*
X121740946Y-122532984D01*
X121630136Y-122374730D01*
X121630134Y-122374727D01*
X121626977Y-122370219D01*
X121469781Y-122213023D01*
X121465273Y-122209866D01*
X121465270Y-122209864D01*
X121387630Y-122155500D01*
X121287677Y-122085512D01*
X121282695Y-122083189D01*
X121282690Y-122083186D01*
X121091178Y-121993883D01*
X121091177Y-121993882D01*
X121086196Y-121991560D01*
X121080888Y-121990138D01*
X121080886Y-121990137D01*
X121015051Y-121972497D01*
X120871463Y-121934022D01*
X120650000Y-121914647D01*
X120457140Y-121931520D01*
X120387537Y-121917531D01*
X120357065Y-121895094D01*
X118137408Y-119675438D01*
X125267000Y-119675438D01*
X125267337Y-119681953D01*
X125276894Y-119774057D01*
X125279788Y-119787456D01*
X125329381Y-119936107D01*
X125335555Y-119949286D01*
X125417788Y-120082173D01*
X125426824Y-120093574D01*
X125537429Y-120203986D01*
X125548840Y-120212998D01*
X125681880Y-120295004D01*
X125695061Y-120301151D01*
X125843814Y-120350491D01*
X125857190Y-120353358D01*
X125948097Y-120362672D01*
X125953126Y-120362929D01*
X125968124Y-120358525D01*
X125969329Y-120357135D01*
X125971000Y-120349452D01*
X125971000Y-119652115D01*
X125966525Y-119636876D01*
X125965135Y-119635671D01*
X125957452Y-119634000D01*
X125285115Y-119634000D01*
X125269876Y-119638475D01*
X125268671Y-119639865D01*
X125267000Y-119647548D01*
X125267000Y-119675438D01*
X118137408Y-119675438D01*
X117569855Y-119107885D01*
X125267000Y-119107885D01*
X125271475Y-119123124D01*
X125272865Y-119124329D01*
X125280548Y-119126000D01*
X125952885Y-119126000D01*
X125968124Y-119121525D01*
X125969329Y-119120135D01*
X125971000Y-119112452D01*
X125971000Y-118415115D01*
X125966525Y-118399876D01*
X125965135Y-118398671D01*
X125957452Y-118397000D01*
X125954562Y-118397000D01*
X125948047Y-118397337D01*
X125855943Y-118406894D01*
X125842544Y-118409788D01*
X125693893Y-118459381D01*
X125680714Y-118465555D01*
X125547827Y-118547788D01*
X125536426Y-118556824D01*
X125426014Y-118667429D01*
X125417002Y-118678840D01*
X125334996Y-118811880D01*
X125328849Y-118825061D01*
X125279509Y-118973814D01*
X125276642Y-118987190D01*
X125267328Y-119078097D01*
X125267000Y-119084514D01*
X125267000Y-119107885D01*
X117569855Y-119107885D01*
X117488450Y-119026480D01*
X117482596Y-119020215D01*
X117480812Y-119018170D01*
X117444561Y-118976615D01*
X117392280Y-118939871D01*
X117386986Y-118935939D01*
X117342693Y-118901209D01*
X117336718Y-118896524D01*
X117329802Y-118893401D01*
X117327516Y-118892017D01*
X117312835Y-118883643D01*
X117310475Y-118882378D01*
X117304261Y-118878010D01*
X117297182Y-118875250D01*
X117297180Y-118875249D01*
X117244725Y-118854798D01*
X117238656Y-118852247D01*
X117180427Y-118825955D01*
X117172960Y-118824571D01*
X117170405Y-118823770D01*
X117154152Y-118819141D01*
X117151572Y-118818478D01*
X117144491Y-118815718D01*
X117136960Y-118814727D01*
X117136958Y-118814726D01*
X117104909Y-118810507D01*
X117081139Y-118807378D01*
X117074641Y-118806348D01*
X117011814Y-118794704D01*
X117004234Y-118795141D01*
X117004233Y-118795141D01*
X116949608Y-118798291D01*
X116942354Y-118798500D01*
X109837661Y-118798500D01*
X109769540Y-118778498D01*
X109723047Y-118724842D01*
X109712943Y-118654568D01*
X109742437Y-118589988D01*
X109748566Y-118583405D01*
X111690528Y-116641443D01*
X111696793Y-116635589D01*
X111704602Y-116628777D01*
X121860777Y-116628777D01*
X121870074Y-116640793D01*
X121913069Y-116670898D01*
X121922555Y-116676376D01*
X122113993Y-116765645D01*
X122124285Y-116769391D01*
X122328309Y-116824059D01*
X122339104Y-116825962D01*
X122549525Y-116844372D01*
X122560475Y-116844372D01*
X122770896Y-116825962D01*
X122781691Y-116824059D01*
X122985715Y-116769391D01*
X122996007Y-116765645D01*
X123187445Y-116676376D01*
X123196931Y-116670898D01*
X123240764Y-116640207D01*
X123249139Y-116629729D01*
X123242071Y-116616281D01*
X122567812Y-115942022D01*
X122553868Y-115934408D01*
X122552035Y-115934539D01*
X122545420Y-115938790D01*
X121867207Y-116617003D01*
X121860777Y-116628777D01*
X111704602Y-116628777D01*
X111740385Y-116597561D01*
X111741429Y-116598758D01*
X111794354Y-116566151D01*
X111809979Y-116563188D01*
X111812458Y-116562599D01*
X111820316Y-116561745D01*
X111956705Y-116510615D01*
X112073261Y-116423261D01*
X112160615Y-116306705D01*
X112211745Y-116170316D01*
X112218500Y-116108134D01*
X112218500Y-116104669D01*
X114202001Y-116104669D01*
X114202371Y-116111490D01*
X114207895Y-116162352D01*
X114211521Y-116177604D01*
X114256676Y-116298054D01*
X114265214Y-116313649D01*
X114341715Y-116415724D01*
X114354276Y-116428285D01*
X114456351Y-116504786D01*
X114471946Y-116513324D01*
X114592394Y-116558478D01*
X114607649Y-116562105D01*
X114658514Y-116567631D01*
X114665328Y-116568000D01*
X114937885Y-116568000D01*
X114953124Y-116563525D01*
X114954329Y-116562135D01*
X114956000Y-116554452D01*
X114956000Y-116549884D01*
X115464000Y-116549884D01*
X115468475Y-116565123D01*
X115469865Y-116566328D01*
X115477548Y-116567999D01*
X115754669Y-116567999D01*
X115761490Y-116567629D01*
X115812352Y-116562105D01*
X115827604Y-116558479D01*
X115948054Y-116513324D01*
X115963649Y-116504786D01*
X116065724Y-116428285D01*
X116078285Y-116415724D01*
X116154786Y-116313649D01*
X116163324Y-116298054D01*
X116208478Y-116177606D01*
X116212105Y-116162351D01*
X116217631Y-116111486D01*
X116218000Y-116104672D01*
X116218000Y-115345438D01*
X118397000Y-115345438D01*
X118397337Y-115351953D01*
X118406894Y-115444057D01*
X118409788Y-115457456D01*
X118459381Y-115606107D01*
X118465555Y-115619286D01*
X118547788Y-115752173D01*
X118556824Y-115763574D01*
X118667429Y-115873986D01*
X118678840Y-115882998D01*
X118811880Y-115965004D01*
X118825061Y-115971151D01*
X118973814Y-116020491D01*
X118987190Y-116023358D01*
X119078097Y-116032672D01*
X119084513Y-116033000D01*
X119107885Y-116033000D01*
X119123124Y-116028525D01*
X119124329Y-116027135D01*
X119126000Y-116019452D01*
X119126000Y-116014885D01*
X119634000Y-116014885D01*
X119638475Y-116030124D01*
X119639865Y-116031329D01*
X119647548Y-116033000D01*
X119675438Y-116033000D01*
X119681953Y-116032663D01*
X119774057Y-116023106D01*
X119787456Y-116020212D01*
X119936107Y-115970619D01*
X119949286Y-115964445D01*
X120082173Y-115882212D01*
X120093574Y-115873176D01*
X120203986Y-115762571D01*
X120212998Y-115751160D01*
X120295004Y-115618120D01*
X120301151Y-115604939D01*
X120310924Y-115575475D01*
X121280628Y-115575475D01*
X121299038Y-115785896D01*
X121300941Y-115796691D01*
X121355609Y-116000715D01*
X121359355Y-116011007D01*
X121448623Y-116202441D01*
X121454103Y-116211932D01*
X121484794Y-116255765D01*
X121495271Y-116264140D01*
X121508718Y-116257072D01*
X122182978Y-115582812D01*
X122189356Y-115571132D01*
X122919408Y-115571132D01*
X122919539Y-115572965D01*
X122923790Y-115579580D01*
X123602003Y-116257793D01*
X123613777Y-116264223D01*
X123625793Y-116254926D01*
X123655897Y-116211932D01*
X123661377Y-116202441D01*
X123750645Y-116011007D01*
X123754391Y-116000715D01*
X123809059Y-115796691D01*
X123810962Y-115785896D01*
X123829372Y-115575475D01*
X123829372Y-115564525D01*
X123810962Y-115354104D01*
X123809059Y-115343309D01*
X123754391Y-115139285D01*
X123750645Y-115128993D01*
X123661377Y-114937559D01*
X123655897Y-114928068D01*
X123625206Y-114884235D01*
X123614729Y-114875860D01*
X123601282Y-114882928D01*
X122927022Y-115557188D01*
X122919408Y-115571132D01*
X122189356Y-115571132D01*
X122190592Y-115568868D01*
X122190461Y-115567035D01*
X122186210Y-115560420D01*
X121507997Y-114882207D01*
X121496223Y-114875777D01*
X121484207Y-114885074D01*
X121454103Y-114928068D01*
X121448623Y-114937559D01*
X121359355Y-115128993D01*
X121355609Y-115139285D01*
X121300941Y-115343309D01*
X121299038Y-115354104D01*
X121280628Y-115564525D01*
X121280628Y-115575475D01*
X120310924Y-115575475D01*
X120350491Y-115456186D01*
X120353358Y-115442810D01*
X120362672Y-115351903D01*
X120362929Y-115346874D01*
X120358525Y-115331876D01*
X120357135Y-115330671D01*
X120349452Y-115329000D01*
X119652115Y-115329000D01*
X119636876Y-115333475D01*
X119635671Y-115334865D01*
X119634000Y-115342548D01*
X119634000Y-116014885D01*
X119126000Y-116014885D01*
X119126000Y-115347115D01*
X119121525Y-115331876D01*
X119120135Y-115330671D01*
X119112452Y-115329000D01*
X118415115Y-115329000D01*
X118399876Y-115333475D01*
X118398671Y-115334865D01*
X118397000Y-115342548D01*
X118397000Y-115345438D01*
X116218000Y-115345438D01*
X116218000Y-114932115D01*
X116213525Y-114916876D01*
X116212135Y-114915671D01*
X116204452Y-114914000D01*
X115482115Y-114914000D01*
X115466876Y-114918475D01*
X115465671Y-114919865D01*
X115464000Y-114927548D01*
X115464000Y-116549884D01*
X114956000Y-116549884D01*
X114956000Y-114932115D01*
X114951525Y-114916876D01*
X114950135Y-114915671D01*
X114942452Y-114914000D01*
X114220116Y-114914000D01*
X114204877Y-114918475D01*
X114203672Y-114919865D01*
X114202001Y-114927548D01*
X114202001Y-116104669D01*
X112218500Y-116104669D01*
X112218500Y-114387885D01*
X114202000Y-114387885D01*
X114206475Y-114403124D01*
X114207865Y-114404329D01*
X114215548Y-114406000D01*
X114937885Y-114406000D01*
X114953124Y-114401525D01*
X114954329Y-114400135D01*
X114956000Y-114392452D01*
X114956000Y-114387885D01*
X115464000Y-114387885D01*
X115468475Y-114403124D01*
X115469865Y-114404329D01*
X115477548Y-114406000D01*
X116199884Y-114406000D01*
X116215123Y-114401525D01*
X116216328Y-114400135D01*
X116217999Y-114392452D01*
X116217999Y-113215331D01*
X116217629Y-113208510D01*
X116212105Y-113157648D01*
X116208479Y-113142396D01*
X116163324Y-113021946D01*
X116154786Y-113006351D01*
X116078285Y-112904276D01*
X116065724Y-112891715D01*
X115963649Y-112815214D01*
X115948054Y-112806676D01*
X115827606Y-112761522D01*
X115812351Y-112757895D01*
X115761486Y-112752369D01*
X115754672Y-112752000D01*
X115482115Y-112752000D01*
X115466876Y-112756475D01*
X115465671Y-112757865D01*
X115464000Y-112765548D01*
X115464000Y-114387885D01*
X114956000Y-114387885D01*
X114956000Y-112770116D01*
X114951525Y-112754877D01*
X114950135Y-112753672D01*
X114942452Y-112752001D01*
X114665331Y-112752001D01*
X114658510Y-112752371D01*
X114607648Y-112757895D01*
X114592396Y-112761521D01*
X114471946Y-112806676D01*
X114456351Y-112815214D01*
X114354276Y-112891715D01*
X114341715Y-112904276D01*
X114265214Y-113006351D01*
X114256676Y-113021946D01*
X114211522Y-113142394D01*
X114207895Y-113157649D01*
X114202369Y-113208514D01*
X114202000Y-113215328D01*
X114202000Y-114387885D01*
X112218500Y-114387885D01*
X112218500Y-113211866D01*
X112211745Y-113149684D01*
X112160615Y-113013295D01*
X112073261Y-112896739D01*
X111968935Y-112818551D01*
X111926420Y-112761692D01*
X111918500Y-112717725D01*
X111918500Y-111751867D01*
X111920610Y-111728904D01*
X111920911Y-111727279D01*
X111922295Y-111719814D01*
X111918709Y-111657620D01*
X111918500Y-111650367D01*
X111918500Y-110802275D01*
X111938502Y-110734154D01*
X111968935Y-110701449D01*
X112066081Y-110628642D01*
X112073261Y-110623261D01*
X112160615Y-110506705D01*
X112211745Y-110370316D01*
X112218500Y-110308134D01*
X112218500Y-110304669D01*
X114202001Y-110304669D01*
X114202371Y-110311490D01*
X114207895Y-110362352D01*
X114211521Y-110377604D01*
X114256676Y-110498054D01*
X114265214Y-110513649D01*
X114341715Y-110615724D01*
X114354276Y-110628285D01*
X114456351Y-110704786D01*
X114471946Y-110713324D01*
X114592394Y-110758478D01*
X114607649Y-110762105D01*
X114658514Y-110767631D01*
X114665328Y-110768000D01*
X114937885Y-110768000D01*
X114953124Y-110763525D01*
X114954329Y-110762135D01*
X114956000Y-110754452D01*
X114956000Y-110749884D01*
X115464000Y-110749884D01*
X115468475Y-110765123D01*
X115469865Y-110766328D01*
X115477548Y-110767999D01*
X115754669Y-110767999D01*
X115761490Y-110767629D01*
X115812352Y-110762105D01*
X115827604Y-110758479D01*
X115948054Y-110713324D01*
X115963649Y-110704786D01*
X116065724Y-110628285D01*
X116078285Y-110615724D01*
X116154786Y-110513649D01*
X116163324Y-110498054D01*
X116208478Y-110377606D01*
X116212105Y-110362351D01*
X116217631Y-110311486D01*
X116218000Y-110304672D01*
X116218000Y-109132115D01*
X116213525Y-109116876D01*
X116212135Y-109115671D01*
X116204452Y-109114000D01*
X115482115Y-109114000D01*
X115466876Y-109118475D01*
X115465671Y-109119865D01*
X115464000Y-109127548D01*
X115464000Y-110749884D01*
X114956000Y-110749884D01*
X114956000Y-109132115D01*
X114951525Y-109116876D01*
X114950135Y-109115671D01*
X114942452Y-109114000D01*
X114220116Y-109114000D01*
X114204877Y-109118475D01*
X114203672Y-109119865D01*
X114202001Y-109127548D01*
X114202001Y-110304669D01*
X112218500Y-110304669D01*
X112218500Y-107714500D01*
X112238502Y-107646379D01*
X112292158Y-107599886D01*
X112344500Y-107588500D01*
X114076000Y-107588500D01*
X114144121Y-107608502D01*
X114190614Y-107662158D01*
X114202000Y-107714500D01*
X114202000Y-108587885D01*
X114206475Y-108603124D01*
X114207865Y-108604329D01*
X114215548Y-108606000D01*
X116199884Y-108606000D01*
X116215123Y-108601525D01*
X116216328Y-108600135D01*
X116217999Y-108592452D01*
X116217999Y-107714500D01*
X116238001Y-107646379D01*
X116291657Y-107599886D01*
X116343999Y-107588500D01*
X116411497Y-107588500D01*
X116479618Y-107608502D01*
X116500592Y-107625405D01*
X116974595Y-108099408D01*
X117008621Y-108161720D01*
X117011500Y-108188503D01*
X117011500Y-111488583D01*
X117009949Y-111508292D01*
X117007748Y-111522190D01*
X117008093Y-111528777D01*
X117008093Y-111528782D01*
X117011327Y-111590480D01*
X117011500Y-111597074D01*
X117011500Y-111617610D01*
X117011844Y-111620882D01*
X117011844Y-111620884D01*
X117013647Y-111638042D01*
X117014164Y-111644616D01*
X117014846Y-111657620D01*
X117017743Y-111712903D01*
X117019453Y-111719284D01*
X117019453Y-111719286D01*
X117021383Y-111726491D01*
X117024985Y-111745925D01*
X117025766Y-111753354D01*
X117025768Y-111753363D01*
X117026458Y-111759928D01*
X117047600Y-111824997D01*
X117049467Y-111831299D01*
X117067171Y-111897370D01*
X117073559Y-111909907D01*
X117081125Y-111928173D01*
X117085473Y-111941556D01*
X117088776Y-111947278D01*
X117088777Y-111947279D01*
X117119667Y-112000782D01*
X117122814Y-112006577D01*
X117153871Y-112067530D01*
X117158024Y-112072658D01*
X117158025Y-112072660D01*
X117162727Y-112078466D01*
X117173927Y-112094763D01*
X117177657Y-112101224D01*
X117177660Y-112101228D01*
X117180960Y-112106944D01*
X117185377Y-112111850D01*
X117185381Y-112111855D01*
X117226722Y-112157769D01*
X117231006Y-112162784D01*
X117243928Y-112178741D01*
X117258443Y-112193256D01*
X117262984Y-112198041D01*
X117308747Y-112248866D01*
X117314086Y-112252745D01*
X117314087Y-112252746D01*
X117320135Y-112257140D01*
X117335168Y-112269981D01*
X118359595Y-113294408D01*
X118393621Y-113356720D01*
X118396500Y-113383503D01*
X118396500Y-113798732D01*
X118407113Y-113901019D01*
X118409295Y-113907559D01*
X118453267Y-114039357D01*
X118461244Y-114063268D01*
X118551248Y-114208713D01*
X118556430Y-114213886D01*
X118560977Y-114219623D01*
X118559170Y-114221055D01*
X118587902Y-114273575D01*
X118582892Y-114344395D01*
X118559501Y-114380853D01*
X118560552Y-114381683D01*
X118547002Y-114398840D01*
X118464996Y-114531880D01*
X118458849Y-114545061D01*
X118409509Y-114693814D01*
X118406642Y-114707190D01*
X118397328Y-114798097D01*
X118397071Y-114803126D01*
X118401475Y-114818124D01*
X118402865Y-114819329D01*
X118410548Y-114821000D01*
X120344885Y-114821000D01*
X120360124Y-114816525D01*
X120361329Y-114815135D01*
X120363000Y-114807452D01*
X120363000Y-114804562D01*
X120362663Y-114798047D01*
X120353106Y-114705943D01*
X120350212Y-114692544D01*
X120300619Y-114543893D01*
X120294445Y-114530714D01*
X120212212Y-114397827D01*
X120198629Y-114380689D01*
X120200559Y-114379159D01*
X120172097Y-114327120D01*
X120177113Y-114256301D01*
X120200799Y-114219383D01*
X120199843Y-114218628D01*
X120204381Y-114212882D01*
X120209552Y-114207702D01*
X120299302Y-114062101D01*
X120307894Y-114036198D01*
X120311664Y-114024832D01*
X120352096Y-113966472D01*
X120417660Y-113939236D01*
X120431257Y-113938500D01*
X121614552Y-113938500D01*
X121682673Y-113958502D01*
X121703647Y-113975405D01*
X121735219Y-114006977D01*
X121739727Y-114010134D01*
X121739730Y-114010136D01*
X121771385Y-114032301D01*
X121917323Y-114134488D01*
X121922305Y-114136811D01*
X121922310Y-114136814D01*
X121993155Y-114169849D01*
X122021624Y-114183124D01*
X122027965Y-114186081D01*
X122081250Y-114232998D01*
X122100711Y-114301275D01*
X122080169Y-114369235D01*
X122027965Y-114414471D01*
X121922559Y-114463623D01*
X121913068Y-114469103D01*
X121869235Y-114499794D01*
X121860860Y-114510271D01*
X121867928Y-114523718D01*
X122542188Y-115197978D01*
X122556132Y-115205592D01*
X122557965Y-115205461D01*
X122564580Y-115201210D01*
X123242793Y-114522997D01*
X123249223Y-114511223D01*
X123239926Y-114499207D01*
X123196931Y-114469102D01*
X123187445Y-114463624D01*
X123082035Y-114414471D01*
X123028750Y-114367554D01*
X123009289Y-114299277D01*
X123029831Y-114231317D01*
X123082035Y-114186081D01*
X123088377Y-114183124D01*
X123116845Y-114169849D01*
X123187690Y-114136814D01*
X123187695Y-114136811D01*
X123192677Y-114134488D01*
X123338615Y-114032301D01*
X123370270Y-114010136D01*
X123370273Y-114010134D01*
X123374781Y-114006977D01*
X123531977Y-113849781D01*
X123540306Y-113837887D01*
X123656331Y-113672185D01*
X123656332Y-113672183D01*
X123659488Y-113667676D01*
X123661811Y-113662694D01*
X123661814Y-113662689D01*
X123751117Y-113471178D01*
X123751118Y-113471177D01*
X123753440Y-113466196D01*
X123761783Y-113435062D01*
X123782774Y-113356720D01*
X123810978Y-113251463D01*
X123830353Y-113030000D01*
X123810978Y-112808537D01*
X123772503Y-112664949D01*
X123754863Y-112599114D01*
X123754862Y-112599112D01*
X123753440Y-112593804D01*
X123722335Y-112527099D01*
X123661814Y-112397311D01*
X123661811Y-112397306D01*
X123659488Y-112392324D01*
X123646133Y-112373251D01*
X123535136Y-112214730D01*
X123535134Y-112214727D01*
X123531977Y-112210219D01*
X123374781Y-112053023D01*
X123370273Y-112049866D01*
X123370270Y-112049864D01*
X123215590Y-111941556D01*
X123192677Y-111925512D01*
X123187695Y-111923189D01*
X123187690Y-111923186D01*
X123082627Y-111874195D01*
X123029342Y-111827278D01*
X123009881Y-111759001D01*
X123030423Y-111691041D01*
X123082627Y-111645805D01*
X123187690Y-111596814D01*
X123187695Y-111596811D01*
X123192677Y-111594488D01*
X123343925Y-111488583D01*
X123370270Y-111470136D01*
X123370273Y-111470134D01*
X123374781Y-111466977D01*
X123531977Y-111309781D01*
X123535140Y-111305265D01*
X123656331Y-111132185D01*
X123656332Y-111132183D01*
X123659488Y-111127676D01*
X123661811Y-111122694D01*
X123661814Y-111122689D01*
X123751117Y-110931178D01*
X123751118Y-110931177D01*
X123753440Y-110926196D01*
X123810978Y-110711463D01*
X123830353Y-110490000D01*
X123810978Y-110268537D01*
X123753440Y-110053804D01*
X123747355Y-110040755D01*
X123661814Y-109857311D01*
X123661811Y-109857306D01*
X123659488Y-109852324D01*
X123648479Y-109836601D01*
X123535136Y-109674730D01*
X123535134Y-109674727D01*
X123531977Y-109670219D01*
X123374781Y-109513023D01*
X123370273Y-109509866D01*
X123370270Y-109509864D01*
X123294505Y-109456813D01*
X123192677Y-109385512D01*
X123187695Y-109383189D01*
X123187690Y-109383186D01*
X123082627Y-109334195D01*
X123029342Y-109287278D01*
X123009881Y-109219001D01*
X123030423Y-109151041D01*
X123082627Y-109105805D01*
X123187690Y-109056814D01*
X123187695Y-109056811D01*
X123192677Y-109054488D01*
X123338615Y-108952301D01*
X123370270Y-108930136D01*
X123370273Y-108930134D01*
X123374781Y-108926977D01*
X123531977Y-108769781D01*
X123535140Y-108765265D01*
X123656331Y-108592185D01*
X123656332Y-108592183D01*
X123659488Y-108587676D01*
X123661811Y-108582694D01*
X123661814Y-108582689D01*
X123751117Y-108391178D01*
X123751118Y-108391177D01*
X123753440Y-108386196D01*
X123810978Y-108171463D01*
X123818743Y-108082703D01*
X145210743Y-108082703D01*
X145211302Y-108086947D01*
X145211302Y-108086951D01*
X145224000Y-108183402D01*
X145248268Y-108367734D01*
X145249401Y-108371874D01*
X145249401Y-108371876D01*
X145255326Y-108393534D01*
X145324129Y-108645036D01*
X145325813Y-108648984D01*
X145420741Y-108871537D01*
X145436923Y-108909476D01*
X145462553Y-108952301D01*
X145581497Y-109151041D01*
X145584561Y-109156161D01*
X145764313Y-109380528D01*
X145781397Y-109396740D01*
X145958209Y-109564528D01*
X145972851Y-109578423D01*
X146095175Y-109666322D01*
X146180689Y-109727770D01*
X146206317Y-109746186D01*
X146210112Y-109748195D01*
X146210113Y-109748196D01*
X146231869Y-109759715D01*
X146460392Y-109880712D01*
X146575600Y-109922872D01*
X146676005Y-109959615D01*
X146730373Y-109979511D01*
X147011264Y-110040755D01*
X147039841Y-110043004D01*
X147234282Y-110058307D01*
X147234291Y-110058307D01*
X147236739Y-110058500D01*
X147392271Y-110058500D01*
X147394407Y-110058354D01*
X147394418Y-110058354D01*
X147602548Y-110044165D01*
X147602554Y-110044164D01*
X147606825Y-110043873D01*
X147611020Y-110043004D01*
X147611022Y-110043004D01*
X147747584Y-110014723D01*
X147888342Y-109985574D01*
X148159343Y-109889607D01*
X148414812Y-109757750D01*
X148418313Y-109755289D01*
X148418317Y-109755287D01*
X148544901Y-109666322D01*
X148650023Y-109592441D01*
X148860622Y-109396740D01*
X149042713Y-109174268D01*
X149192927Y-108929142D01*
X149216487Y-108875472D01*
X149306757Y-108669830D01*
X149308483Y-108665898D01*
X149387244Y-108389406D01*
X149427751Y-108104784D01*
X149427780Y-108099408D01*
X149429235Y-107821583D01*
X149429235Y-107821576D01*
X149429257Y-107817297D01*
X149416700Y-107721913D01*
X149403994Y-107625405D01*
X149391732Y-107532266D01*
X149385319Y-107508822D01*
X149349175Y-107376705D01*
X149315871Y-107254964D01*
X149264589Y-107134735D01*
X149204763Y-106994476D01*
X149204761Y-106994472D01*
X149203077Y-106990524D01*
X149122105Y-106855229D01*
X149057643Y-106747521D01*
X149057640Y-106747517D01*
X149055439Y-106743839D01*
X148875687Y-106519472D01*
X148667149Y-106321577D01*
X148433683Y-106153814D01*
X148411843Y-106142250D01*
X148309667Y-106088151D01*
X148179608Y-106019288D01*
X147909627Y-105920489D01*
X147628736Y-105859245D01*
X147597685Y-105856801D01*
X147405718Y-105841693D01*
X147405709Y-105841693D01*
X147403261Y-105841500D01*
X147247729Y-105841500D01*
X147245593Y-105841646D01*
X147245582Y-105841646D01*
X147037452Y-105855835D01*
X147037446Y-105855836D01*
X147033175Y-105856127D01*
X147028980Y-105856996D01*
X147028978Y-105856996D01*
X146919518Y-105879664D01*
X146751658Y-105914426D01*
X146480657Y-106010393D01*
X146225188Y-106142250D01*
X146221687Y-106144711D01*
X146221683Y-106144713D01*
X146211594Y-106151804D01*
X145989977Y-106307559D01*
X145974892Y-106321577D01*
X145824284Y-106461531D01*
X145779378Y-106503260D01*
X145597287Y-106725732D01*
X145447073Y-106970858D01*
X145445347Y-106974791D01*
X145445346Y-106974792D01*
X145386247Y-107109424D01*
X145331517Y-107234102D01*
X145330342Y-107238229D01*
X145330341Y-107238230D01*
X145329410Y-107241500D01*
X145252756Y-107510594D01*
X145212249Y-107795216D01*
X145212227Y-107799505D01*
X145212226Y-107799512D01*
X145211438Y-107950000D01*
X145210743Y-108082703D01*
X123818743Y-108082703D01*
X123830353Y-107950000D01*
X123810978Y-107728537D01*
X123753440Y-107513804D01*
X123745033Y-107495775D01*
X123661814Y-107317311D01*
X123661811Y-107317306D01*
X123659488Y-107312324D01*
X123644710Y-107291219D01*
X123535136Y-107134730D01*
X123535134Y-107134727D01*
X123531977Y-107130219D01*
X123374781Y-106973023D01*
X123370273Y-106969866D01*
X123370270Y-106969864D01*
X123287267Y-106911745D01*
X123192677Y-106845512D01*
X123187695Y-106843189D01*
X123187690Y-106843186D01*
X122996178Y-106753883D01*
X122996177Y-106753882D01*
X122991196Y-106751560D01*
X122985888Y-106750138D01*
X122985886Y-106750137D01*
X122908442Y-106729386D01*
X122776463Y-106694022D01*
X122555000Y-106674647D01*
X122333537Y-106694022D01*
X122201558Y-106729386D01*
X122124114Y-106750137D01*
X122124112Y-106750138D01*
X122118804Y-106751560D01*
X122113823Y-106753882D01*
X122113822Y-106753883D01*
X121922311Y-106843186D01*
X121922306Y-106843189D01*
X121917324Y-106845512D01*
X121912817Y-106848668D01*
X121912815Y-106848669D01*
X121739730Y-106969864D01*
X121739727Y-106969866D01*
X121735219Y-106973023D01*
X121578023Y-107130219D01*
X121574865Y-107134729D01*
X121574860Y-107134735D01*
X121537725Y-107187770D01*
X121482268Y-107232099D01*
X121434512Y-107241500D01*
X120390710Y-107241500D01*
X120322589Y-107221498D01*
X120301615Y-107204595D01*
X120210381Y-107113361D01*
X120063699Y-107024528D01*
X120056452Y-107022257D01*
X120056450Y-107022256D01*
X119966297Y-106994004D01*
X119900062Y-106973247D01*
X119826635Y-106966500D01*
X119823737Y-106966500D01*
X119569335Y-106966501D01*
X119313366Y-106966501D01*
X119310508Y-106966764D01*
X119310499Y-106966764D01*
X119276761Y-106969864D01*
X119239938Y-106973247D01*
X119233560Y-106975246D01*
X119233559Y-106975246D01*
X119083550Y-107022256D01*
X119083548Y-107022257D01*
X119076301Y-107024528D01*
X118929619Y-107113361D01*
X118834095Y-107208885D01*
X118771783Y-107242911D01*
X118700968Y-107237846D01*
X118655905Y-107208885D01*
X118561614Y-107114594D01*
X118557073Y-107109809D01*
X118535675Y-107086044D01*
X118535670Y-107086039D01*
X118531253Y-107081134D01*
X118519865Y-107072860D01*
X118504832Y-107060019D01*
X117539981Y-106095168D01*
X117527140Y-106080135D01*
X117522746Y-106074087D01*
X117522745Y-106074086D01*
X117518866Y-106068747D01*
X117468041Y-106022984D01*
X117463256Y-106018443D01*
X117448741Y-106003928D01*
X117441282Y-105997888D01*
X117432784Y-105991006D01*
X117427769Y-105986722D01*
X117381855Y-105945381D01*
X117381850Y-105945377D01*
X117376944Y-105940960D01*
X117371228Y-105937660D01*
X117371224Y-105937657D01*
X117364763Y-105933927D01*
X117348466Y-105922727D01*
X117342660Y-105918025D01*
X117342658Y-105918024D01*
X117337530Y-105913871D01*
X117276573Y-105882812D01*
X117270782Y-105879667D01*
X117217279Y-105848777D01*
X117217278Y-105848776D01*
X117211556Y-105845473D01*
X117205274Y-105843432D01*
X117205272Y-105843431D01*
X117198174Y-105841125D01*
X117179907Y-105833559D01*
X117179903Y-105833557D01*
X117167370Y-105827171D01*
X117101291Y-105809465D01*
X117094997Y-105807600D01*
X117029928Y-105786458D01*
X117023363Y-105785768D01*
X117023354Y-105785766D01*
X117015925Y-105784985D01*
X116996491Y-105781383D01*
X116989286Y-105779453D01*
X116989284Y-105779453D01*
X116982903Y-105777743D01*
X116976312Y-105777398D01*
X116976308Y-105777397D01*
X116914616Y-105774164D01*
X116908042Y-105773647D01*
X116890884Y-105771844D01*
X116890882Y-105771844D01*
X116887610Y-105771500D01*
X116867074Y-105771500D01*
X116860480Y-105771327D01*
X116798782Y-105768093D01*
X116798777Y-105768093D01*
X116792190Y-105767748D01*
X116778292Y-105769949D01*
X116758583Y-105771500D01*
X109301417Y-105771500D01*
X109281707Y-105769949D01*
X109274327Y-105768780D01*
X109274326Y-105768780D01*
X109267810Y-105767748D01*
X109261223Y-105768093D01*
X109261218Y-105768093D01*
X109199520Y-105771327D01*
X109192926Y-105771500D01*
X109172390Y-105771500D01*
X109169118Y-105771844D01*
X109169116Y-105771844D01*
X109151958Y-105773647D01*
X109145384Y-105774164D01*
X109083696Y-105777397D01*
X109083694Y-105777397D01*
X109077097Y-105777743D01*
X109063504Y-105781385D01*
X109044075Y-105784986D01*
X109030072Y-105786458D01*
X108965025Y-105807593D01*
X108958712Y-105809463D01*
X108938074Y-105814993D01*
X108899003Y-105825462D01*
X108899000Y-105825463D01*
X108892630Y-105827170D01*
X108880085Y-105833562D01*
X108861826Y-105841125D01*
X108848444Y-105845473D01*
X108842723Y-105848776D01*
X108789223Y-105879664D01*
X108783426Y-105882812D01*
X108728351Y-105910874D01*
X108728348Y-105910876D01*
X108722470Y-105913871D01*
X108717342Y-105918024D01*
X108717340Y-105918025D01*
X108711534Y-105922727D01*
X108695237Y-105933927D01*
X108688776Y-105937657D01*
X108688772Y-105937660D01*
X108683056Y-105940960D01*
X108678150Y-105945377D01*
X108678145Y-105945381D01*
X108632231Y-105986722D01*
X108627216Y-105991006D01*
X108618718Y-105997888D01*
X108611259Y-106003928D01*
X108596744Y-106018443D01*
X108591959Y-106022984D01*
X108541134Y-106068747D01*
X108537255Y-106074086D01*
X108537254Y-106074087D01*
X108532860Y-106080135D01*
X108520019Y-106095168D01*
X108000168Y-106615019D01*
X107985135Y-106627860D01*
X107973747Y-106636134D01*
X107939070Y-106674647D01*
X107927984Y-106686959D01*
X107923443Y-106691744D01*
X107908928Y-106706259D01*
X107906852Y-106708823D01*
X107896006Y-106722216D01*
X107891722Y-106727231D01*
X107850381Y-106773145D01*
X107850377Y-106773150D01*
X107845960Y-106778056D01*
X107842660Y-106783772D01*
X107842657Y-106783776D01*
X107838927Y-106790237D01*
X107827727Y-106806533D01*
X107818871Y-106817470D01*
X107792213Y-106869790D01*
X107787815Y-106878421D01*
X107784669Y-106884215D01*
X107750473Y-106943444D01*
X107748432Y-106949726D01*
X107748431Y-106949728D01*
X107746125Y-106956826D01*
X107738560Y-106975092D01*
X107732171Y-106987630D01*
X107715904Y-107048341D01*
X107714469Y-107053695D01*
X107712600Y-107060003D01*
X107691458Y-107125072D01*
X107690768Y-107131637D01*
X107690766Y-107131646D01*
X107689985Y-107139075D01*
X107686383Y-107158509D01*
X107684453Y-107165714D01*
X107682743Y-107172097D01*
X107682398Y-107178688D01*
X107682397Y-107178692D01*
X107679164Y-107240384D01*
X107678647Y-107246958D01*
X107678221Y-107251016D01*
X107676500Y-107267390D01*
X107676500Y-107287926D01*
X107676327Y-107294520D01*
X107675133Y-107317311D01*
X107672748Y-107362810D01*
X107673780Y-107369325D01*
X107674949Y-107376705D01*
X107676500Y-107396417D01*
X107676500Y-108473802D01*
X107665338Y-108525650D01*
X107663462Y-108529806D01*
X107659528Y-108536301D01*
X107657257Y-108543548D01*
X107657256Y-108543550D01*
X107639088Y-108601525D01*
X107608247Y-108699938D01*
X107601500Y-108773365D01*
X107601500Y-108907146D01*
X107581498Y-108975267D01*
X107527842Y-109021760D01*
X107457568Y-109031864D01*
X107424251Y-109022253D01*
X107349319Y-108988891D01*
X107349318Y-108988891D01*
X107343288Y-108986206D01*
X107249887Y-108966353D01*
X107162944Y-108947872D01*
X107162939Y-108947872D01*
X107156487Y-108946500D01*
X106965513Y-108946500D01*
X106959061Y-108947872D01*
X106959056Y-108947872D01*
X106872113Y-108966353D01*
X106778712Y-108986206D01*
X106772682Y-108988891D01*
X106772681Y-108988891D01*
X106610278Y-109061197D01*
X106610276Y-109061198D01*
X106604248Y-109063882D01*
X106449747Y-109176134D01*
X106445326Y-109181044D01*
X106445325Y-109181045D01*
X106349673Y-109287278D01*
X106321960Y-109318056D01*
X106226473Y-109483444D01*
X106224432Y-109489726D01*
X106181636Y-109621437D01*
X106141562Y-109680042D01*
X106076165Y-109707679D01*
X106061803Y-109708500D01*
X105949513Y-109708500D01*
X105943061Y-109709872D01*
X105943056Y-109709872D01*
X105778096Y-109744936D01*
X105707305Y-109739534D01*
X105662804Y-109710784D01*
X105605381Y-109653361D01*
X105458699Y-109564528D01*
X105451452Y-109562257D01*
X105451450Y-109562256D01*
X105349146Y-109530196D01*
X105295062Y-109513247D01*
X105221635Y-109506500D01*
X105218737Y-109506500D01*
X104964335Y-109506501D01*
X104708366Y-109506501D01*
X104705508Y-109506764D01*
X104705499Y-109506764D01*
X104671761Y-109509864D01*
X104634938Y-109513247D01*
X104628560Y-109515246D01*
X104628559Y-109515246D01*
X104478550Y-109562256D01*
X104478548Y-109562257D01*
X104471301Y-109564528D01*
X104324619Y-109653361D01*
X104229095Y-109748885D01*
X104166783Y-109782911D01*
X104095968Y-109777846D01*
X104050905Y-109748885D01*
X103955381Y-109653361D01*
X103808699Y-109564528D01*
X103801452Y-109562257D01*
X103801450Y-109562256D01*
X103699146Y-109530196D01*
X103645062Y-109513247D01*
X103571635Y-109506500D01*
X103568737Y-109506500D01*
X103314335Y-109506501D01*
X103058366Y-109506501D01*
X103055508Y-109506764D01*
X103055499Y-109506764D01*
X103021761Y-109509864D01*
X102984938Y-109513247D01*
X102978560Y-109515246D01*
X102978559Y-109515246D01*
X102828550Y-109562256D01*
X102828548Y-109562257D01*
X102821301Y-109564528D01*
X102674619Y-109653361D01*
X102583385Y-109744595D01*
X102521073Y-109778621D01*
X102494290Y-109781500D01*
X102181878Y-109781500D01*
X102113757Y-109761498D01*
X102078665Y-109727771D01*
X102024357Y-109650211D01*
X102024355Y-109650208D01*
X102021198Y-109645700D01*
X101859300Y-109483802D01*
X101854792Y-109480645D01*
X101854789Y-109480643D01*
X101776611Y-109425902D01*
X101671749Y-109352477D01*
X101666767Y-109350154D01*
X101666762Y-109350151D01*
X101632543Y-109334195D01*
X101579258Y-109287278D01*
X101559797Y-109219001D01*
X101580339Y-109151041D01*
X101632543Y-109105805D01*
X101666762Y-109089849D01*
X101666767Y-109089846D01*
X101671749Y-109087523D01*
X101812610Y-108988891D01*
X101854789Y-108959357D01*
X101854792Y-108959355D01*
X101859300Y-108956198D01*
X102021198Y-108794300D01*
X102026563Y-108786639D01*
X102113997Y-108661770D01*
X102152523Y-108606749D01*
X102154846Y-108601767D01*
X102154849Y-108601762D01*
X102246961Y-108404225D01*
X102246961Y-108404224D01*
X102249284Y-108399243D01*
X102308543Y-108178087D01*
X102328498Y-107950000D01*
X102308543Y-107721913D01*
X102282684Y-107625405D01*
X102250707Y-107506067D01*
X102250706Y-107506065D01*
X102249284Y-107500757D01*
X102181885Y-107356218D01*
X102154849Y-107298238D01*
X102154846Y-107298233D01*
X102152523Y-107293251D01*
X102063220Y-107165714D01*
X102024357Y-107110211D01*
X102024355Y-107110208D01*
X102021198Y-107105700D01*
X101859300Y-106943802D01*
X101854792Y-106940645D01*
X101854789Y-106940643D01*
X101770114Y-106881353D01*
X101671749Y-106812477D01*
X101666767Y-106810154D01*
X101666762Y-106810151D01*
X101632543Y-106794195D01*
X101579258Y-106747278D01*
X101559797Y-106679001D01*
X101580339Y-106611041D01*
X101632543Y-106565805D01*
X101666762Y-106549849D01*
X101666767Y-106549846D01*
X101671749Y-106547523D01*
X101794558Y-106461531D01*
X101854789Y-106419357D01*
X101854792Y-106419355D01*
X101859300Y-106416198D01*
X102021198Y-106254300D01*
X102152523Y-106066749D01*
X102154846Y-106061767D01*
X102154849Y-106061762D01*
X102246961Y-105864225D01*
X102246961Y-105864224D01*
X102249284Y-105859243D01*
X102252089Y-105848777D01*
X102307119Y-105643402D01*
X102307119Y-105643400D01*
X102308543Y-105638087D01*
X102328498Y-105410000D01*
X102308543Y-105181913D01*
X102249284Y-104960757D01*
X102187262Y-104827749D01*
X102176601Y-104757558D01*
X102205581Y-104692745D01*
X102265001Y-104653889D01*
X102301457Y-104648500D01*
X161925500Y-104648500D01*
X161993621Y-104668502D01*
X162040114Y-104722158D01*
X162051500Y-104774500D01*
X162051500Y-149225500D01*
X162031498Y-149293621D01*
X161977842Y-149340114D01*
X161925500Y-149351500D01*
X94954500Y-149351500D01*
X94886379Y-149331498D01*
X94839886Y-149277842D01*
X94828500Y-149225500D01*
X94828500Y-146890500D01*
X85511500Y-146890500D01*
X85511500Y-149225500D01*
X85491498Y-149293621D01*
X85437842Y-149340114D01*
X85385500Y-149351500D01*
X74294500Y-149351500D01*
X74226379Y-149331498D01*
X74179886Y-149277842D01*
X74168500Y-149225500D01*
X74168500Y-146182703D01*
X76630743Y-146182703D01*
X76631302Y-146186947D01*
X76631302Y-146186951D01*
X76634210Y-146209036D01*
X76668268Y-146467734D01*
X76744129Y-146745036D01*
X76856923Y-147009476D01*
X76868693Y-147029142D01*
X77002357Y-147252478D01*
X77004561Y-147256161D01*
X77184313Y-147480528D01*
X77392851Y-147678423D01*
X77626317Y-147846186D01*
X77630112Y-147848195D01*
X77630113Y-147848196D01*
X77651867Y-147859714D01*
X77880392Y-147980712D01*
X77908609Y-147991038D01*
X78146340Y-148078035D01*
X78150373Y-148079511D01*
X78431264Y-148140755D01*
X78459828Y-148143003D01*
X78654282Y-148158307D01*
X78654291Y-148158307D01*
X78656739Y-148158500D01*
X78812271Y-148158500D01*
X78814407Y-148158354D01*
X78814418Y-148158354D01*
X79022548Y-148144165D01*
X79022554Y-148144164D01*
X79026825Y-148143873D01*
X79031020Y-148143004D01*
X79031022Y-148143004D01*
X79167583Y-148114724D01*
X79308342Y-148085574D01*
X79579343Y-147989607D01*
X79834812Y-147857750D01*
X79838313Y-147855289D01*
X79838317Y-147855287D01*
X79952418Y-147775095D01*
X80070023Y-147692441D01*
X80280622Y-147496740D01*
X80462713Y-147274268D01*
X80612927Y-147029142D01*
X80728483Y-146765898D01*
X80807244Y-146489406D01*
X80847751Y-146204784D01*
X80847845Y-146186951D01*
X80847867Y-146182703D01*
X99490743Y-146182703D01*
X99491302Y-146186947D01*
X99491302Y-146186951D01*
X99494210Y-146209036D01*
X99528268Y-146467734D01*
X99604129Y-146745036D01*
X99716923Y-147009476D01*
X99728693Y-147029142D01*
X99862357Y-147252478D01*
X99864561Y-147256161D01*
X100044313Y-147480528D01*
X100252851Y-147678423D01*
X100486317Y-147846186D01*
X100490112Y-147848195D01*
X100490113Y-147848196D01*
X100511867Y-147859714D01*
X100740392Y-147980712D01*
X100768609Y-147991038D01*
X101006340Y-148078035D01*
X101010373Y-148079511D01*
X101291264Y-148140755D01*
X101319828Y-148143003D01*
X101514282Y-148158307D01*
X101514291Y-148158307D01*
X101516739Y-148158500D01*
X101672271Y-148158500D01*
X101674407Y-148158354D01*
X101674418Y-148158354D01*
X101882548Y-148144165D01*
X101882554Y-148144164D01*
X101886825Y-148143873D01*
X101891020Y-148143004D01*
X101891022Y-148143004D01*
X102027583Y-148114724D01*
X102168342Y-148085574D01*
X102439343Y-147989607D01*
X102694812Y-147857750D01*
X102698313Y-147855289D01*
X102698317Y-147855287D01*
X102812418Y-147775095D01*
X102930023Y-147692441D01*
X103140622Y-147496740D01*
X103322713Y-147274268D01*
X103472927Y-147029142D01*
X103588483Y-146765898D01*
X103667244Y-146489406D01*
X103707751Y-146204784D01*
X103707845Y-146186951D01*
X103707867Y-146182703D01*
X107110743Y-146182703D01*
X107111302Y-146186947D01*
X107111302Y-146186951D01*
X107114210Y-146209036D01*
X107148268Y-146467734D01*
X107224129Y-146745036D01*
X107336923Y-147009476D01*
X107348693Y-147029142D01*
X107482357Y-147252478D01*
X107484561Y-147256161D01*
X107664313Y-147480528D01*
X107872851Y-147678423D01*
X108106317Y-147846186D01*
X108110112Y-147848195D01*
X108110113Y-147848196D01*
X108131867Y-147859714D01*
X108360392Y-147980712D01*
X108388609Y-147991038D01*
X108626340Y-148078035D01*
X108630373Y-148079511D01*
X108911264Y-148140755D01*
X108939828Y-148143003D01*
X109134282Y-148158307D01*
X109134291Y-148158307D01*
X109136739Y-148158500D01*
X109292271Y-148158500D01*
X109294407Y-148158354D01*
X109294418Y-148158354D01*
X109502548Y-148144165D01*
X109502554Y-148144164D01*
X109506825Y-148143873D01*
X109511020Y-148143004D01*
X109511022Y-148143004D01*
X109647583Y-148114724D01*
X109788342Y-148085574D01*
X110059343Y-147989607D01*
X110314812Y-147857750D01*
X110318313Y-147855289D01*
X110318317Y-147855287D01*
X110432418Y-147775095D01*
X110550023Y-147692441D01*
X110760622Y-147496740D01*
X110942713Y-147274268D01*
X111092927Y-147029142D01*
X111208483Y-146765898D01*
X111287244Y-146489406D01*
X111327751Y-146204784D01*
X111327845Y-146186951D01*
X111327867Y-146182703D01*
X127430743Y-146182703D01*
X127431302Y-146186947D01*
X127431302Y-146186951D01*
X127434210Y-146209036D01*
X127468268Y-146467734D01*
X127544129Y-146745036D01*
X127656923Y-147009476D01*
X127668693Y-147029142D01*
X127802357Y-147252478D01*
X127804561Y-147256161D01*
X127984313Y-147480528D01*
X128192851Y-147678423D01*
X128426317Y-147846186D01*
X128430112Y-147848195D01*
X128430113Y-147848196D01*
X128451867Y-147859714D01*
X128680392Y-147980712D01*
X128708609Y-147991038D01*
X128946340Y-148078035D01*
X128950373Y-148079511D01*
X129231264Y-148140755D01*
X129259828Y-148143003D01*
X129454282Y-148158307D01*
X129454291Y-148158307D01*
X129456739Y-148158500D01*
X129612271Y-148158500D01*
X129614407Y-148158354D01*
X129614418Y-148158354D01*
X129822548Y-148144165D01*
X129822554Y-148144164D01*
X129826825Y-148143873D01*
X129831020Y-148143004D01*
X129831022Y-148143004D01*
X129967583Y-148114724D01*
X130108342Y-148085574D01*
X130379343Y-147989607D01*
X130634812Y-147857750D01*
X130638313Y-147855289D01*
X130638317Y-147855287D01*
X130752418Y-147775095D01*
X130870023Y-147692441D01*
X131080622Y-147496740D01*
X131262713Y-147274268D01*
X131412927Y-147029142D01*
X131528483Y-146765898D01*
X131607244Y-146489406D01*
X131647751Y-146204784D01*
X131647845Y-146186951D01*
X131647867Y-146182703D01*
X135050743Y-146182703D01*
X135051302Y-146186947D01*
X135051302Y-146186951D01*
X135054210Y-146209036D01*
X135088268Y-146467734D01*
X135164129Y-146745036D01*
X135276923Y-147009476D01*
X135288693Y-147029142D01*
X135422357Y-147252478D01*
X135424561Y-147256161D01*
X135604313Y-147480528D01*
X135812851Y-147678423D01*
X136046317Y-147846186D01*
X136050112Y-147848195D01*
X136050113Y-147848196D01*
X136071867Y-147859714D01*
X136300392Y-147980712D01*
X136328609Y-147991038D01*
X136566340Y-148078035D01*
X136570373Y-148079511D01*
X136851264Y-148140755D01*
X136879828Y-148143003D01*
X137074282Y-148158307D01*
X137074291Y-148158307D01*
X137076739Y-148158500D01*
X137232271Y-148158500D01*
X137234407Y-148158354D01*
X137234418Y-148158354D01*
X137442548Y-148144165D01*
X137442554Y-148144164D01*
X137446825Y-148143873D01*
X137451020Y-148143004D01*
X137451022Y-148143004D01*
X137587583Y-148114724D01*
X137728342Y-148085574D01*
X137999343Y-147989607D01*
X138254812Y-147857750D01*
X138258313Y-147855289D01*
X138258317Y-147855287D01*
X138372418Y-147775095D01*
X138490023Y-147692441D01*
X138700622Y-147496740D01*
X138882713Y-147274268D01*
X139032927Y-147029142D01*
X139148483Y-146765898D01*
X139227244Y-146489406D01*
X139267751Y-146204784D01*
X139267845Y-146186951D01*
X139267867Y-146182702D01*
X155370742Y-146182702D01*
X155371301Y-146186946D01*
X155371301Y-146186950D01*
X155373649Y-146204783D01*
X155408267Y-146467733D01*
X155484128Y-146745035D01*
X155485812Y-146748983D01*
X155546175Y-146890500D01*
X155596922Y-147009475D01*
X155744560Y-147256160D01*
X155924312Y-147480527D01*
X156132850Y-147678422D01*
X156366316Y-147846185D01*
X156370111Y-147848194D01*
X156370112Y-147848195D01*
X156388158Y-147857750D01*
X156620391Y-147980711D01*
X156890372Y-148079510D01*
X157171263Y-148140754D01*
X157199840Y-148143003D01*
X157394281Y-148158306D01*
X157394290Y-148158306D01*
X157396738Y-148158499D01*
X157552270Y-148158499D01*
X157554406Y-148158353D01*
X157554417Y-148158353D01*
X157762547Y-148144164D01*
X157762553Y-148144163D01*
X157766824Y-148143872D01*
X157771019Y-148143003D01*
X157771021Y-148143003D01*
X157907582Y-148114723D01*
X158048341Y-148085573D01*
X158319342Y-147989606D01*
X158574811Y-147857749D01*
X158578314Y-147855287D01*
X158578316Y-147855286D01*
X158806516Y-147694904D01*
X158810022Y-147692440D01*
X159020621Y-147496739D01*
X159202712Y-147274267D01*
X159352926Y-147029141D01*
X159468482Y-146765897D01*
X159474425Y-146745036D01*
X159546067Y-146493533D01*
X159547243Y-146489405D01*
X159587750Y-146204783D01*
X159587772Y-146200494D01*
X159587773Y-146200487D01*
X159589234Y-145921582D01*
X159589234Y-145921575D01*
X159589256Y-145917296D01*
X159585790Y-145890964D01*
X159552291Y-145636521D01*
X159551731Y-145632265D01*
X159475870Y-145354963D01*
X159363076Y-145090523D01*
X159288526Y-144965959D01*
X159217642Y-144847520D01*
X159217639Y-144847516D01*
X159215438Y-144843838D01*
X159035686Y-144619471D01*
X158827148Y-144421576D01*
X158593682Y-144253813D01*
X158571842Y-144242249D01*
X158548653Y-144229971D01*
X158339607Y-144119287D01*
X158204617Y-144069888D01*
X158073657Y-144021963D01*
X158073655Y-144021962D01*
X158069626Y-144020488D01*
X157788735Y-143959244D01*
X157749129Y-143956127D01*
X157565717Y-143941692D01*
X157565708Y-143941692D01*
X157563260Y-143941499D01*
X157407728Y-143941499D01*
X157405592Y-143941645D01*
X157405581Y-143941645D01*
X157197451Y-143955834D01*
X157197445Y-143955835D01*
X157193174Y-143956126D01*
X157188979Y-143956995D01*
X157188977Y-143956995D01*
X157052416Y-143985275D01*
X156911657Y-144014425D01*
X156640656Y-144110392D01*
X156385187Y-144242249D01*
X156381686Y-144244710D01*
X156381682Y-144244712D01*
X156267581Y-144324904D01*
X156149976Y-144407558D01*
X155939377Y-144603259D01*
X155757286Y-144825731D01*
X155607072Y-145070857D01*
X155491516Y-145334101D01*
X155412755Y-145610593D01*
X155372248Y-145895215D01*
X155372226Y-145899504D01*
X155372225Y-145899511D01*
X155370764Y-146178416D01*
X155370742Y-146182702D01*
X139267867Y-146182702D01*
X139269235Y-145921583D01*
X139269235Y-145921576D01*
X139269257Y-145917297D01*
X139266916Y-145899511D01*
X139232292Y-145636522D01*
X139232292Y-145636521D01*
X139231732Y-145632266D01*
X139155871Y-145354964D01*
X139043077Y-145090524D01*
X138895439Y-144843839D01*
X138715687Y-144619472D01*
X138507149Y-144421577D01*
X138273683Y-144253814D01*
X138251843Y-144242250D01*
X138228654Y-144229972D01*
X138019608Y-144119288D01*
X137749627Y-144020489D01*
X137468736Y-143959245D01*
X137437685Y-143956801D01*
X137245718Y-143941693D01*
X137245709Y-143941693D01*
X137243261Y-143941500D01*
X137087729Y-143941500D01*
X137085593Y-143941646D01*
X137085582Y-143941646D01*
X136877452Y-143955835D01*
X136877446Y-143955836D01*
X136873175Y-143956127D01*
X136868980Y-143956996D01*
X136868978Y-143956996D01*
X136732417Y-143985276D01*
X136591658Y-144014426D01*
X136320657Y-144110393D01*
X136065188Y-144242250D01*
X136061687Y-144244711D01*
X136061683Y-144244713D01*
X136048734Y-144253814D01*
X135829977Y-144407559D01*
X135619378Y-144603260D01*
X135437287Y-144825732D01*
X135287073Y-145070858D01*
X135171517Y-145334102D01*
X135170342Y-145338229D01*
X135170341Y-145338230D01*
X135164395Y-145359103D01*
X135092756Y-145610594D01*
X135052249Y-145895216D01*
X135052227Y-145899505D01*
X135052226Y-145899512D01*
X135050765Y-146178416D01*
X135050743Y-146182703D01*
X131647867Y-146182703D01*
X131649235Y-145921583D01*
X131649235Y-145921576D01*
X131649257Y-145917297D01*
X131646916Y-145899511D01*
X131612292Y-145636522D01*
X131612292Y-145636521D01*
X131611732Y-145632266D01*
X131535871Y-145354964D01*
X131423077Y-145090524D01*
X131275439Y-144843839D01*
X131095687Y-144619472D01*
X130887149Y-144421577D01*
X130653683Y-144253814D01*
X130631843Y-144242250D01*
X130608654Y-144229972D01*
X130399608Y-144119288D01*
X130129627Y-144020489D01*
X129848736Y-143959245D01*
X129817685Y-143956801D01*
X129625718Y-143941693D01*
X129625709Y-143941693D01*
X129623261Y-143941500D01*
X129467729Y-143941500D01*
X129465593Y-143941646D01*
X129465582Y-143941646D01*
X129257452Y-143955835D01*
X129257446Y-143955836D01*
X129253175Y-143956127D01*
X129248980Y-143956996D01*
X129248978Y-143956996D01*
X129112417Y-143985276D01*
X128971658Y-144014426D01*
X128700657Y-144110393D01*
X128445188Y-144242250D01*
X128441687Y-144244711D01*
X128441683Y-144244713D01*
X128428734Y-144253814D01*
X128209977Y-144407559D01*
X127999378Y-144603260D01*
X127817287Y-144825732D01*
X127667073Y-145070858D01*
X127551517Y-145334102D01*
X127550342Y-145338229D01*
X127550341Y-145338230D01*
X127544395Y-145359103D01*
X127472756Y-145610594D01*
X127432249Y-145895216D01*
X127432227Y-145899505D01*
X127432226Y-145899512D01*
X127430765Y-146178416D01*
X127430743Y-146182703D01*
X111327867Y-146182703D01*
X111329235Y-145921583D01*
X111329235Y-145921576D01*
X111329257Y-145917297D01*
X111326916Y-145899511D01*
X111292292Y-145636522D01*
X111292292Y-145636521D01*
X111291732Y-145632266D01*
X111215871Y-145354964D01*
X111103077Y-145090524D01*
X110955439Y-144843839D01*
X110775687Y-144619472D01*
X110567149Y-144421577D01*
X110333683Y-144253814D01*
X110311843Y-144242250D01*
X110288654Y-144229972D01*
X110079608Y-144119288D01*
X109809627Y-144020489D01*
X109528736Y-143959245D01*
X109497685Y-143956801D01*
X109305718Y-143941693D01*
X109305709Y-143941693D01*
X109303261Y-143941500D01*
X109147729Y-143941500D01*
X109145593Y-143941646D01*
X109145582Y-143941646D01*
X108937452Y-143955835D01*
X108937446Y-143955836D01*
X108933175Y-143956127D01*
X108928980Y-143956996D01*
X108928978Y-143956996D01*
X108792417Y-143985276D01*
X108651658Y-144014426D01*
X108380657Y-144110393D01*
X108125188Y-144242250D01*
X108121687Y-144244711D01*
X108121683Y-144244713D01*
X108108734Y-144253814D01*
X107889977Y-144407559D01*
X107679378Y-144603260D01*
X107497287Y-144825732D01*
X107347073Y-145070858D01*
X107231517Y-145334102D01*
X107230342Y-145338229D01*
X107230341Y-145338230D01*
X107224395Y-145359103D01*
X107152756Y-145610594D01*
X107112249Y-145895216D01*
X107112227Y-145899505D01*
X107112226Y-145899512D01*
X107110765Y-146178416D01*
X107110743Y-146182703D01*
X103707867Y-146182703D01*
X103709235Y-145921583D01*
X103709235Y-145921576D01*
X103709257Y-145917297D01*
X103706916Y-145899511D01*
X103672292Y-145636522D01*
X103672292Y-145636521D01*
X103671732Y-145632266D01*
X103595871Y-145354964D01*
X103483077Y-145090524D01*
X103335439Y-144843839D01*
X103155687Y-144619472D01*
X102947149Y-144421577D01*
X102713683Y-144253814D01*
X102691843Y-144242250D01*
X102668654Y-144229972D01*
X102459608Y-144119288D01*
X102189627Y-144020489D01*
X101908736Y-143959245D01*
X101877685Y-143956801D01*
X101685718Y-143941693D01*
X101685709Y-143941693D01*
X101683261Y-143941500D01*
X101527729Y-143941500D01*
X101525593Y-143941646D01*
X101525582Y-143941646D01*
X101317452Y-143955835D01*
X101317446Y-143955836D01*
X101313175Y-143956127D01*
X101308980Y-143956996D01*
X101308978Y-143956996D01*
X101172417Y-143985276D01*
X101031658Y-144014426D01*
X100760657Y-144110393D01*
X100505188Y-144242250D01*
X100501687Y-144244711D01*
X100501683Y-144244713D01*
X100488734Y-144253814D01*
X100269977Y-144407559D01*
X100059378Y-144603260D01*
X99877287Y-144825732D01*
X99727073Y-145070858D01*
X99611517Y-145334102D01*
X99610342Y-145338229D01*
X99610341Y-145338230D01*
X99604395Y-145359103D01*
X99532756Y-145610594D01*
X99492249Y-145895216D01*
X99492227Y-145899505D01*
X99492226Y-145899512D01*
X99490765Y-146178416D01*
X99490743Y-146182703D01*
X80847867Y-146182703D01*
X80849235Y-145921583D01*
X80849235Y-145921576D01*
X80849257Y-145917297D01*
X80846916Y-145899511D01*
X80812292Y-145636522D01*
X80812292Y-145636521D01*
X80811732Y-145632266D01*
X80735871Y-145354964D01*
X80623077Y-145090524D01*
X80475439Y-144843839D01*
X80295687Y-144619472D01*
X80087149Y-144421577D01*
X79853683Y-144253814D01*
X79831843Y-144242250D01*
X79808654Y-144229972D01*
X79599608Y-144119288D01*
X79329627Y-144020489D01*
X79048736Y-143959245D01*
X79017685Y-143956801D01*
X78825718Y-143941693D01*
X78825709Y-143941693D01*
X78823261Y-143941500D01*
X78667729Y-143941500D01*
X78665593Y-143941646D01*
X78665582Y-143941646D01*
X78457452Y-143955835D01*
X78457446Y-143955836D01*
X78453175Y-143956127D01*
X78448980Y-143956996D01*
X78448978Y-143956996D01*
X78312417Y-143985276D01*
X78171658Y-144014426D01*
X77900657Y-144110393D01*
X77645188Y-144242250D01*
X77641687Y-144244711D01*
X77641683Y-144244713D01*
X77628734Y-144253814D01*
X77409977Y-144407559D01*
X77199378Y-144603260D01*
X77017287Y-144825732D01*
X76867073Y-145070858D01*
X76751517Y-145334102D01*
X76750342Y-145338229D01*
X76750341Y-145338230D01*
X76744395Y-145359103D01*
X76672756Y-145610594D01*
X76632249Y-145895216D01*
X76632227Y-145899505D01*
X76632226Y-145899512D01*
X76630765Y-146178416D01*
X76630743Y-146182703D01*
X74168500Y-146182703D01*
X74168500Y-128045438D01*
X77122000Y-128045438D01*
X77122337Y-128051953D01*
X77131894Y-128144057D01*
X77134788Y-128157456D01*
X77184381Y-128306107D01*
X77190555Y-128319286D01*
X77272788Y-128452173D01*
X77281824Y-128463574D01*
X77392429Y-128573986D01*
X77403840Y-128582998D01*
X77536880Y-128665004D01*
X77550061Y-128671151D01*
X77698814Y-128720491D01*
X77712190Y-128723358D01*
X77803097Y-128732672D01*
X77809513Y-128733000D01*
X77832885Y-128733000D01*
X77848124Y-128728525D01*
X77849329Y-128727135D01*
X77851000Y-128719452D01*
X77851000Y-128714885D01*
X78359000Y-128714885D01*
X78363475Y-128730124D01*
X78364865Y-128731329D01*
X78372548Y-128733000D01*
X78400438Y-128733000D01*
X78406953Y-128732663D01*
X78499057Y-128723106D01*
X78512456Y-128720212D01*
X78661107Y-128670619D01*
X78674286Y-128664445D01*
X78807173Y-128582212D01*
X78818574Y-128573176D01*
X78928986Y-128462571D01*
X78937998Y-128451160D01*
X79020004Y-128318120D01*
X79026151Y-128304939D01*
X79075491Y-128156186D01*
X79078358Y-128142810D01*
X79087672Y-128051903D01*
X79087929Y-128046874D01*
X79083525Y-128031876D01*
X79082135Y-128030671D01*
X79074452Y-128029000D01*
X78377115Y-128029000D01*
X78361876Y-128033475D01*
X78360671Y-128034865D01*
X78359000Y-128042548D01*
X78359000Y-128714885D01*
X77851000Y-128714885D01*
X77851000Y-128047115D01*
X77846525Y-128031876D01*
X77845135Y-128030671D01*
X77837452Y-128029000D01*
X77140115Y-128029000D01*
X77124876Y-128033475D01*
X77123671Y-128034865D01*
X77122000Y-128042548D01*
X77122000Y-128045438D01*
X74168500Y-128045438D01*
X74168500Y-104774500D01*
X74188502Y-104706379D01*
X74242158Y-104659886D01*
X74294500Y-104648500D01*
X76320500Y-104648500D01*
X76388621Y-104668502D01*
G37*
%TD.AperFunction*%
%TA.AperFunction,Conductor*%
G36*
X99396664Y-104668502D02*
G01*
X99443157Y-104722158D01*
X99453261Y-104792432D01*
X99442738Y-104827749D01*
X99380716Y-104960757D01*
X99321457Y-105181913D01*
X99301502Y-105410000D01*
X99321457Y-105638087D01*
X99322881Y-105643400D01*
X99322881Y-105643402D01*
X99377912Y-105848777D01*
X99380716Y-105859243D01*
X99383039Y-105864224D01*
X99383039Y-105864225D01*
X99475151Y-106061762D01*
X99475154Y-106061767D01*
X99477477Y-106066749D01*
X99608802Y-106254300D01*
X99770700Y-106416198D01*
X99775208Y-106419355D01*
X99775211Y-106419357D01*
X99835442Y-106461531D01*
X99958251Y-106547523D01*
X99963233Y-106549846D01*
X99963238Y-106549849D01*
X99997457Y-106565805D01*
X100050742Y-106612722D01*
X100070203Y-106680999D01*
X100049661Y-106748959D01*
X99997457Y-106794195D01*
X99963238Y-106810151D01*
X99963233Y-106810154D01*
X99958251Y-106812477D01*
X99859886Y-106881353D01*
X99775211Y-106940643D01*
X99775208Y-106940645D01*
X99770700Y-106943802D01*
X99608802Y-107105700D01*
X99605645Y-107110208D01*
X99605643Y-107110211D01*
X99566780Y-107165714D01*
X99477477Y-107293251D01*
X99475154Y-107298233D01*
X99475151Y-107298238D01*
X99448115Y-107356218D01*
X99380716Y-107500757D01*
X99379294Y-107506065D01*
X99379293Y-107506067D01*
X99347316Y-107625405D01*
X99321457Y-107721913D01*
X99301502Y-107950000D01*
X99321457Y-108178087D01*
X99380716Y-108399243D01*
X99383039Y-108404224D01*
X99383039Y-108404225D01*
X99475151Y-108601762D01*
X99475154Y-108601767D01*
X99477477Y-108606749D01*
X99516003Y-108661770D01*
X99603438Y-108786639D01*
X99608802Y-108794300D01*
X99770700Y-108956198D01*
X99775208Y-108959355D01*
X99775211Y-108959357D01*
X99817390Y-108988891D01*
X99958251Y-109087523D01*
X99963233Y-109089846D01*
X99963238Y-109089849D01*
X99997457Y-109105805D01*
X100050742Y-109152722D01*
X100070203Y-109220999D01*
X100049661Y-109288959D01*
X99997457Y-109334195D01*
X99963238Y-109350151D01*
X99963233Y-109350154D01*
X99958251Y-109352477D01*
X99853389Y-109425902D01*
X99775211Y-109480643D01*
X99775208Y-109480645D01*
X99770700Y-109483802D01*
X99608802Y-109645700D01*
X99605645Y-109650208D01*
X99605643Y-109650211D01*
X99551336Y-109727770D01*
X99477477Y-109833251D01*
X99475154Y-109838233D01*
X99475151Y-109838238D01*
X99383039Y-110035775D01*
X99380716Y-110040757D01*
X99321457Y-110261913D01*
X99301502Y-110490000D01*
X99321457Y-110718087D01*
X99322881Y-110723400D01*
X99322881Y-110723402D01*
X99377034Y-110925500D01*
X99380716Y-110939243D01*
X99383039Y-110944224D01*
X99383039Y-110944225D01*
X99475151Y-111141762D01*
X99475154Y-111141767D01*
X99477477Y-111146749D01*
X99516272Y-111202154D01*
X99603438Y-111326639D01*
X99608802Y-111334300D01*
X99770700Y-111496198D01*
X99775208Y-111499355D01*
X99775211Y-111499357D01*
X99840405Y-111545006D01*
X99958251Y-111627523D01*
X99963233Y-111629846D01*
X99963238Y-111629849D01*
X99997457Y-111645805D01*
X100050742Y-111692722D01*
X100070203Y-111760999D01*
X100049661Y-111828959D01*
X99997457Y-111874195D01*
X99963238Y-111890151D01*
X99963233Y-111890154D01*
X99958251Y-111892477D01*
X99907271Y-111928174D01*
X99775211Y-112020643D01*
X99775208Y-112020645D01*
X99770700Y-112023802D01*
X99608802Y-112185700D01*
X99605645Y-112190208D01*
X99605643Y-112190211D01*
X99561856Y-112252746D01*
X99477477Y-112373251D01*
X99475154Y-112378233D01*
X99475151Y-112378238D01*
X99439806Y-112454037D01*
X99380716Y-112580757D01*
X99379294Y-112586065D01*
X99379293Y-112586067D01*
X99353722Y-112681500D01*
X99321457Y-112801913D01*
X99301502Y-113030000D01*
X99321457Y-113258087D01*
X99322881Y-113263400D01*
X99322881Y-113263402D01*
X99368878Y-113435062D01*
X99380716Y-113479243D01*
X99383039Y-113484224D01*
X99383039Y-113484225D01*
X99475151Y-113681762D01*
X99475154Y-113681767D01*
X99477477Y-113686749D01*
X99520296Y-113747901D01*
X99603438Y-113866639D01*
X99608802Y-113874300D01*
X99770700Y-114036198D01*
X99775208Y-114039355D01*
X99775211Y-114039357D01*
X99853389Y-114094098D01*
X99958251Y-114167523D01*
X99963233Y-114169846D01*
X99963238Y-114169849D01*
X99997457Y-114185805D01*
X100050742Y-114232722D01*
X100070203Y-114300999D01*
X100049661Y-114368959D01*
X99997457Y-114414195D01*
X99963238Y-114430151D01*
X99963233Y-114430154D01*
X99958251Y-114432477D01*
X99905944Y-114469103D01*
X99775211Y-114560643D01*
X99775208Y-114560645D01*
X99770700Y-114563802D01*
X99608802Y-114725700D01*
X99477477Y-114913251D01*
X99475154Y-114918233D01*
X99475151Y-114918238D01*
X99403711Y-115071444D01*
X99380716Y-115120757D01*
X99379294Y-115126065D01*
X99379293Y-115126067D01*
X99323143Y-115335619D01*
X99321457Y-115341913D01*
X99301502Y-115570000D01*
X99321457Y-115798087D01*
X99322881Y-115803400D01*
X99322881Y-115803402D01*
X99366183Y-115965004D01*
X99380716Y-116019243D01*
X99383039Y-116024224D01*
X99383039Y-116024225D01*
X99475151Y-116221762D01*
X99475154Y-116221767D01*
X99477477Y-116226749D01*
X99527576Y-116298297D01*
X99605598Y-116409724D01*
X99608802Y-116414300D01*
X99770700Y-116576198D01*
X99775208Y-116579355D01*
X99775211Y-116579357D01*
X99839329Y-116624253D01*
X99958251Y-116707523D01*
X99963233Y-116709846D01*
X99963238Y-116709849D01*
X99997457Y-116725805D01*
X100050742Y-116772722D01*
X100070203Y-116840999D01*
X100049661Y-116908959D01*
X99997457Y-116954195D01*
X99963238Y-116970151D01*
X99963233Y-116970154D01*
X99958251Y-116972477D01*
X99853389Y-117045902D01*
X99775211Y-117100643D01*
X99775208Y-117100645D01*
X99770700Y-117103802D01*
X99608802Y-117265700D01*
X99477477Y-117453251D01*
X99475154Y-117458233D01*
X99475151Y-117458238D01*
X99455567Y-117500237D01*
X99380716Y-117660757D01*
X99321457Y-117881913D01*
X99301502Y-118110000D01*
X99321457Y-118338087D01*
X99322881Y-118343400D01*
X99322881Y-118343402D01*
X99377647Y-118547788D01*
X99380716Y-118559243D01*
X99383039Y-118564224D01*
X99383039Y-118564225D01*
X99475151Y-118761762D01*
X99475154Y-118761767D01*
X99477477Y-118766749D01*
X99515942Y-118821682D01*
X99597375Y-118937980D01*
X99608802Y-118954300D01*
X99770700Y-119116198D01*
X99775208Y-119119355D01*
X99775211Y-119119357D01*
X99853389Y-119174098D01*
X99958251Y-119247523D01*
X99963233Y-119249846D01*
X99963238Y-119249849D01*
X99998049Y-119266081D01*
X100051334Y-119312998D01*
X100070795Y-119381275D01*
X100050253Y-119449235D01*
X99998049Y-119494471D01*
X99963489Y-119510586D01*
X99953993Y-119516069D01*
X99775533Y-119641028D01*
X99767125Y-119648084D01*
X99613084Y-119802125D01*
X99606028Y-119810533D01*
X99481069Y-119988993D01*
X99475586Y-119998489D01*
X99383510Y-120195947D01*
X99379764Y-120206239D01*
X99333606Y-120378503D01*
X99333942Y-120392599D01*
X99341884Y-120396000D01*
X102282967Y-120396000D01*
X102296498Y-120392027D01*
X102297727Y-120383478D01*
X102250236Y-120206239D01*
X102246490Y-120195947D01*
X102154414Y-119998489D01*
X102148931Y-119988993D01*
X102023972Y-119810533D01*
X102016916Y-119802125D01*
X101862875Y-119648084D01*
X101854467Y-119641028D01*
X101676007Y-119516069D01*
X101666511Y-119510586D01*
X101631951Y-119494471D01*
X101578666Y-119447554D01*
X101559205Y-119379277D01*
X101579747Y-119311317D01*
X101631951Y-119266081D01*
X101666762Y-119249849D01*
X101666767Y-119249846D01*
X101671749Y-119247523D01*
X101776611Y-119174098D01*
X101854789Y-119119357D01*
X101854792Y-119119355D01*
X101859300Y-119116198D01*
X102021198Y-118954300D01*
X102031301Y-118939872D01*
X102078665Y-118872229D01*
X102134122Y-118827901D01*
X102181878Y-118818500D01*
X102526790Y-118818500D01*
X102594911Y-118838502D01*
X102615885Y-118855405D01*
X102674619Y-118914139D01*
X102821301Y-119002972D01*
X102828548Y-119005243D01*
X102828550Y-119005244D01*
X102874999Y-119019800D01*
X102984938Y-119054253D01*
X103058365Y-119061000D01*
X103061263Y-119061000D01*
X103315665Y-119060999D01*
X103571634Y-119060999D01*
X103574492Y-119060736D01*
X103574501Y-119060736D01*
X103610004Y-119057474D01*
X103645062Y-119054253D01*
X103657057Y-119050494D01*
X103801450Y-119005244D01*
X103801452Y-119005243D01*
X103808699Y-119002972D01*
X103955381Y-118914139D01*
X104050905Y-118818615D01*
X104113217Y-118784589D01*
X104184032Y-118789654D01*
X104229095Y-118818615D01*
X104324619Y-118914139D01*
X104471301Y-119002972D01*
X104478548Y-119005243D01*
X104478550Y-119005244D01*
X104524999Y-119019800D01*
X104634938Y-119054253D01*
X104708365Y-119061000D01*
X104711263Y-119061000D01*
X104965665Y-119060999D01*
X105221634Y-119060999D01*
X105224492Y-119060736D01*
X105224501Y-119060736D01*
X105260004Y-119057474D01*
X105295062Y-119054253D01*
X105307057Y-119050494D01*
X105451450Y-119005244D01*
X105451452Y-119005243D01*
X105458699Y-119002972D01*
X105605381Y-118914139D01*
X105726639Y-118792881D01*
X105815472Y-118646199D01*
X105866753Y-118482562D01*
X105873500Y-118409135D01*
X105873500Y-118223160D01*
X105893502Y-118155039D01*
X105910405Y-118134065D01*
X106404266Y-117640204D01*
X106467164Y-117606052D01*
X106511826Y-117596559D01*
X106581288Y-117581794D01*
X106587319Y-117579109D01*
X106749722Y-117506803D01*
X106749724Y-117506802D01*
X106755752Y-117504118D01*
X106910253Y-117391866D01*
X106914675Y-117386955D01*
X107033621Y-117254852D01*
X107033622Y-117254851D01*
X107038040Y-117249944D01*
X107124532Y-117100136D01*
X107130223Y-117090279D01*
X107130224Y-117090278D01*
X107133527Y-117084556D01*
X107192542Y-116902928D01*
X107198516Y-116846094D01*
X107211814Y-116719565D01*
X107212504Y-116713000D01*
X107203886Y-116631000D01*
X107193232Y-116529635D01*
X107193232Y-116529633D01*
X107192542Y-116523072D01*
X107133527Y-116341444D01*
X107038040Y-116176056D01*
X106979942Y-116111531D01*
X106952924Y-116081525D01*
X106922206Y-116017518D01*
X106930971Y-115947064D01*
X106937432Y-115934231D01*
X107006527Y-115814556D01*
X107065542Y-115632928D01*
X107067099Y-115618120D01*
X107084814Y-115449565D01*
X107085504Y-115443000D01*
X107079761Y-115388358D01*
X107066232Y-115259635D01*
X107066232Y-115259633D01*
X107065542Y-115253072D01*
X107006527Y-115071444D01*
X106911040Y-114906056D01*
X106890216Y-114882928D01*
X106787675Y-114769045D01*
X106787674Y-114769044D01*
X106783253Y-114764134D01*
X106709347Y-114710438D01*
X107602000Y-114710438D01*
X107602337Y-114716953D01*
X107611894Y-114809057D01*
X107614788Y-114822456D01*
X107664381Y-114971107D01*
X107670555Y-114984286D01*
X107752788Y-115117173D01*
X107761824Y-115128574D01*
X107872429Y-115238986D01*
X107883840Y-115247998D01*
X108016880Y-115330004D01*
X108030061Y-115336151D01*
X108178814Y-115385491D01*
X108192190Y-115388358D01*
X108283097Y-115397672D01*
X108289513Y-115398000D01*
X108312885Y-115398000D01*
X108328124Y-115393525D01*
X108329329Y-115392135D01*
X108331000Y-115384452D01*
X108331000Y-115379885D01*
X108839000Y-115379885D01*
X108843475Y-115395124D01*
X108844865Y-115396329D01*
X108852548Y-115398000D01*
X108880438Y-115398000D01*
X108886953Y-115397663D01*
X108979057Y-115388106D01*
X108992456Y-115385212D01*
X109141107Y-115335619D01*
X109154286Y-115329445D01*
X109287173Y-115247212D01*
X109298574Y-115238176D01*
X109408986Y-115127571D01*
X109417998Y-115116160D01*
X109500004Y-114983120D01*
X109506151Y-114969939D01*
X109555491Y-114821186D01*
X109558359Y-114807808D01*
X109567672Y-114716903D01*
X109567929Y-114711874D01*
X109563525Y-114696876D01*
X109562135Y-114695671D01*
X109554452Y-114694000D01*
X108857115Y-114694000D01*
X108841876Y-114698475D01*
X108840671Y-114699865D01*
X108839000Y-114707548D01*
X108839000Y-115379885D01*
X108331000Y-115379885D01*
X108331000Y-114712115D01*
X108326525Y-114696876D01*
X108325135Y-114695671D01*
X108317452Y-114694000D01*
X107620115Y-114694000D01*
X107604876Y-114698475D01*
X107603671Y-114699865D01*
X107602000Y-114707548D01*
X107602000Y-114710438D01*
X106709347Y-114710438D01*
X106684157Y-114692136D01*
X106634094Y-114655763D01*
X106634093Y-114655762D01*
X106628752Y-114651882D01*
X106622721Y-114649197D01*
X106622716Y-114649194D01*
X106588216Y-114633834D01*
X106534119Y-114587855D01*
X106513469Y-114519928D01*
X106532820Y-114451620D01*
X106550368Y-114429632D01*
X107509959Y-113470041D01*
X107572271Y-113436015D01*
X107643086Y-113441080D01*
X107699922Y-113483627D01*
X107706198Y-113492833D01*
X107756248Y-113573713D01*
X107761430Y-113578886D01*
X107765977Y-113584623D01*
X107764170Y-113586055D01*
X107792902Y-113638575D01*
X107787892Y-113709395D01*
X107764501Y-113745853D01*
X107765552Y-113746683D01*
X107752002Y-113763840D01*
X107669996Y-113896880D01*
X107663849Y-113910061D01*
X107614509Y-114058814D01*
X107611642Y-114072190D01*
X107602328Y-114163097D01*
X107602071Y-114168126D01*
X107606475Y-114183124D01*
X107607865Y-114184329D01*
X107615548Y-114186000D01*
X109549885Y-114186000D01*
X109565124Y-114181525D01*
X109566329Y-114180135D01*
X109568000Y-114172452D01*
X109568000Y-114169562D01*
X109567663Y-114163047D01*
X109558106Y-114070943D01*
X109555212Y-114057544D01*
X109505619Y-113908893D01*
X109499446Y-113895717D01*
X109475675Y-113857302D01*
X109456838Y-113788850D01*
X109478000Y-113721081D01*
X109532441Y-113675510D01*
X109582820Y-113665000D01*
X110075500Y-113665000D01*
X110143621Y-113685002D01*
X110190114Y-113738658D01*
X110201500Y-113791000D01*
X110201500Y-116074340D01*
X110181498Y-116142461D01*
X110164595Y-116163435D01*
X105437480Y-120890550D01*
X105431215Y-120896404D01*
X105387615Y-120934439D01*
X105383248Y-120940653D01*
X105350872Y-120986719D01*
X105346939Y-120992014D01*
X105307524Y-121042282D01*
X105304401Y-121049198D01*
X105303017Y-121051484D01*
X105294643Y-121066165D01*
X105293378Y-121068525D01*
X105289010Y-121074739D01*
X105286250Y-121081818D01*
X105286249Y-121081820D01*
X105265798Y-121134275D01*
X105263247Y-121140344D01*
X105236955Y-121198573D01*
X105235571Y-121206040D01*
X105234770Y-121208595D01*
X105230141Y-121224848D01*
X105229478Y-121227428D01*
X105226718Y-121234509D01*
X105225727Y-121242040D01*
X105225726Y-121242042D01*
X105218379Y-121297852D01*
X105217348Y-121304359D01*
X105205704Y-121367186D01*
X105206141Y-121374766D01*
X105206141Y-121374767D01*
X105209291Y-121429392D01*
X105209500Y-121436646D01*
X105209500Y-121794000D01*
X105189498Y-121862121D01*
X105135842Y-121908614D01*
X105083500Y-121920000D01*
X104502754Y-121920000D01*
X104434633Y-121899998D01*
X104388140Y-121846342D01*
X104378036Y-121776068D01*
X104395494Y-121727885D01*
X104420002Y-121688125D01*
X104426151Y-121674939D01*
X104475491Y-121526186D01*
X104478358Y-121512810D01*
X104487672Y-121421903D01*
X104487929Y-121416874D01*
X104483525Y-121401876D01*
X104482135Y-121400671D01*
X104474452Y-121399000D01*
X102540115Y-121399000D01*
X102524876Y-121403475D01*
X102523671Y-121404865D01*
X102522000Y-121412548D01*
X102522000Y-121415438D01*
X102522337Y-121421953D01*
X102531894Y-121514057D01*
X102533792Y-121522844D01*
X102528620Y-121593652D01*
X102485989Y-121650423D01*
X102419431Y-121675134D01*
X102354282Y-121662140D01*
X102150715Y-121560357D01*
X102098731Y-121512002D01*
X102081142Y-121443219D01*
X102103851Y-121375389D01*
X102148928Y-121311012D01*
X102154414Y-121301511D01*
X102246490Y-121104053D01*
X102250236Y-121093761D01*
X102294908Y-120927041D01*
X102302888Y-120913950D01*
X102298476Y-120908436D01*
X102288116Y-120904000D01*
X99347033Y-120904000D01*
X99333502Y-120907973D01*
X99332273Y-120916522D01*
X99379764Y-121093761D01*
X99383510Y-121104053D01*
X99475586Y-121301511D01*
X99481069Y-121311007D01*
X99606028Y-121489467D01*
X99613084Y-121497875D01*
X99767125Y-121651916D01*
X99775533Y-121658972D01*
X99953993Y-121783931D01*
X99963489Y-121789414D01*
X99998049Y-121805529D01*
X100051334Y-121852446D01*
X100070795Y-121920723D01*
X100050253Y-121988683D01*
X99998049Y-122033919D01*
X99963238Y-122050151D01*
X99963233Y-122050154D01*
X99958251Y-122052477D01*
X99905944Y-122089103D01*
X99775211Y-122180643D01*
X99775208Y-122180645D01*
X99770700Y-122183802D01*
X99608802Y-122345700D01*
X99605645Y-122350208D01*
X99605643Y-122350211D01*
X99556164Y-122420875D01*
X99477477Y-122533251D01*
X99475154Y-122538233D01*
X99475151Y-122538238D01*
X99408581Y-122681000D01*
X99380716Y-122740757D01*
X99379294Y-122746065D01*
X99379293Y-122746067D01*
X99322881Y-122956598D01*
X99321457Y-122961913D01*
X99301502Y-123190000D01*
X99321457Y-123418087D01*
X99322881Y-123423400D01*
X99322881Y-123423402D01*
X99360025Y-123562022D01*
X99380716Y-123639243D01*
X99383039Y-123644224D01*
X99383039Y-123644225D01*
X99475151Y-123841762D01*
X99475154Y-123841767D01*
X99477477Y-123846749D01*
X99534693Y-123928461D01*
X99602625Y-124025478D01*
X99608802Y-124034300D01*
X99745907Y-124171405D01*
X99779933Y-124233717D01*
X99774868Y-124304532D01*
X99732321Y-124361368D01*
X99665801Y-124386179D01*
X99656812Y-124386500D01*
X97500660Y-124386500D01*
X97432539Y-124366498D01*
X97411565Y-124349595D01*
X93937912Y-120875942D01*
X102512415Y-120875942D01*
X102527864Y-120889328D01*
X102535548Y-120891000D01*
X103232885Y-120891000D01*
X103248124Y-120886525D01*
X103249329Y-120885135D01*
X103251000Y-120877452D01*
X103251000Y-120872885D01*
X103759000Y-120872885D01*
X103763475Y-120888124D01*
X103764865Y-120889329D01*
X103772548Y-120891000D01*
X104469885Y-120891000D01*
X104485124Y-120886525D01*
X104486329Y-120885135D01*
X104488000Y-120877452D01*
X104488000Y-120874562D01*
X104487663Y-120868047D01*
X104478106Y-120775943D01*
X104475212Y-120762544D01*
X104425619Y-120613893D01*
X104419445Y-120600714D01*
X104337212Y-120467827D01*
X104328176Y-120456426D01*
X104217571Y-120346014D01*
X104206160Y-120337002D01*
X104073120Y-120254996D01*
X104059939Y-120248849D01*
X103911186Y-120199509D01*
X103897810Y-120196642D01*
X103806903Y-120187328D01*
X103800486Y-120187000D01*
X103777115Y-120187000D01*
X103761876Y-120191475D01*
X103760671Y-120192865D01*
X103759000Y-120200548D01*
X103759000Y-120872885D01*
X103251000Y-120872885D01*
X103251000Y-120205115D01*
X103246525Y-120189876D01*
X103245135Y-120188671D01*
X103237452Y-120187000D01*
X103209562Y-120187000D01*
X103203047Y-120187337D01*
X103110943Y-120196894D01*
X103097544Y-120199788D01*
X102948893Y-120249381D01*
X102935714Y-120255555D01*
X102802827Y-120337788D01*
X102791426Y-120346824D01*
X102681014Y-120457429D01*
X102672002Y-120468840D01*
X102589996Y-120601880D01*
X102583849Y-120615061D01*
X102534509Y-120763814D01*
X102531642Y-120777190D01*
X102524575Y-120846166D01*
X102512415Y-120875942D01*
X93937912Y-120875942D01*
X83071450Y-110009480D01*
X83065596Y-110003215D01*
X83050965Y-109986443D01*
X83027561Y-109959615D01*
X82975280Y-109922871D01*
X82969986Y-109918939D01*
X82925693Y-109884209D01*
X82919718Y-109879524D01*
X82912802Y-109876401D01*
X82910516Y-109875017D01*
X82895835Y-109866643D01*
X82893475Y-109865378D01*
X82887261Y-109861010D01*
X82880182Y-109858250D01*
X82880180Y-109858249D01*
X82827725Y-109837798D01*
X82821656Y-109835247D01*
X82763427Y-109808955D01*
X82755960Y-109807571D01*
X82753405Y-109806770D01*
X82737152Y-109802141D01*
X82734572Y-109801478D01*
X82727491Y-109798718D01*
X82719960Y-109797727D01*
X82719958Y-109797726D01*
X82690339Y-109793827D01*
X82664139Y-109790378D01*
X82657641Y-109789348D01*
X82594814Y-109777704D01*
X82587234Y-109778141D01*
X82587233Y-109778141D01*
X82532608Y-109781291D01*
X82525354Y-109781500D01*
X79321878Y-109781500D01*
X79253757Y-109761498D01*
X79218665Y-109727771D01*
X79164357Y-109650211D01*
X79164355Y-109650208D01*
X79161198Y-109645700D01*
X78999300Y-109483802D01*
X78994792Y-109480645D01*
X78994789Y-109480643D01*
X78916611Y-109425902D01*
X78811749Y-109352477D01*
X78806767Y-109350154D01*
X78806762Y-109350151D01*
X78772543Y-109334195D01*
X78719258Y-109287278D01*
X78699797Y-109219001D01*
X78720339Y-109151041D01*
X78772543Y-109105805D01*
X78806762Y-109089849D01*
X78806767Y-109089846D01*
X78811749Y-109087523D01*
X78952610Y-108988891D01*
X78994789Y-108959357D01*
X78994792Y-108959355D01*
X78999300Y-108956198D01*
X79161198Y-108794300D01*
X79166563Y-108786639D01*
X79253997Y-108661770D01*
X79292523Y-108606749D01*
X79294846Y-108601767D01*
X79294849Y-108601762D01*
X79386961Y-108404225D01*
X79386961Y-108404224D01*
X79389284Y-108399243D01*
X79448543Y-108178087D01*
X79456888Y-108082703D01*
X86790743Y-108082703D01*
X86791302Y-108086947D01*
X86791302Y-108086951D01*
X86804000Y-108183402D01*
X86828268Y-108367734D01*
X86829401Y-108371874D01*
X86829401Y-108371876D01*
X86835326Y-108393534D01*
X86904129Y-108645036D01*
X86905813Y-108648984D01*
X87000741Y-108871537D01*
X87016923Y-108909476D01*
X87042553Y-108952301D01*
X87161497Y-109151041D01*
X87164561Y-109156161D01*
X87344313Y-109380528D01*
X87361397Y-109396740D01*
X87538209Y-109564528D01*
X87552851Y-109578423D01*
X87675175Y-109666322D01*
X87760689Y-109727770D01*
X87786317Y-109746186D01*
X87790112Y-109748195D01*
X87790113Y-109748196D01*
X87811869Y-109759715D01*
X88040392Y-109880712D01*
X88155600Y-109922872D01*
X88256005Y-109959615D01*
X88310373Y-109979511D01*
X88591264Y-110040755D01*
X88619841Y-110043004D01*
X88814282Y-110058307D01*
X88814291Y-110058307D01*
X88816739Y-110058500D01*
X88972271Y-110058500D01*
X88974407Y-110058354D01*
X88974418Y-110058354D01*
X89182548Y-110044165D01*
X89182554Y-110044164D01*
X89186825Y-110043873D01*
X89191020Y-110043004D01*
X89191022Y-110043004D01*
X89327584Y-110014723D01*
X89468342Y-109985574D01*
X89739343Y-109889607D01*
X89994812Y-109757750D01*
X89998313Y-109755289D01*
X89998317Y-109755287D01*
X90124901Y-109666322D01*
X90230023Y-109592441D01*
X90440622Y-109396740D01*
X90622713Y-109174268D01*
X90772927Y-108929142D01*
X90796487Y-108875472D01*
X90886757Y-108669830D01*
X90888483Y-108665898D01*
X90967244Y-108389406D01*
X91007751Y-108104784D01*
X91007780Y-108099408D01*
X91009235Y-107821583D01*
X91009235Y-107821576D01*
X91009257Y-107817297D01*
X90996700Y-107721913D01*
X90983994Y-107625405D01*
X90971732Y-107532266D01*
X90965319Y-107508822D01*
X90929175Y-107376705D01*
X90895871Y-107254964D01*
X90844589Y-107134735D01*
X90784763Y-106994476D01*
X90784761Y-106994472D01*
X90783077Y-106990524D01*
X90702105Y-106855229D01*
X90637643Y-106747521D01*
X90637640Y-106747517D01*
X90635439Y-106743839D01*
X90455687Y-106519472D01*
X90247149Y-106321577D01*
X90013683Y-106153814D01*
X89991843Y-106142250D01*
X89889667Y-106088151D01*
X89759608Y-106019288D01*
X89489627Y-105920489D01*
X89208736Y-105859245D01*
X89177685Y-105856801D01*
X88985718Y-105841693D01*
X88985709Y-105841693D01*
X88983261Y-105841500D01*
X88827729Y-105841500D01*
X88825593Y-105841646D01*
X88825582Y-105841646D01*
X88617452Y-105855835D01*
X88617446Y-105855836D01*
X88613175Y-105856127D01*
X88608980Y-105856996D01*
X88608978Y-105856996D01*
X88499518Y-105879664D01*
X88331658Y-105914426D01*
X88060657Y-106010393D01*
X87805188Y-106142250D01*
X87801687Y-106144711D01*
X87801683Y-106144713D01*
X87791594Y-106151804D01*
X87569977Y-106307559D01*
X87554892Y-106321577D01*
X87404284Y-106461531D01*
X87359378Y-106503260D01*
X87177287Y-106725732D01*
X87027073Y-106970858D01*
X87025347Y-106974791D01*
X87025346Y-106974792D01*
X86966247Y-107109424D01*
X86911517Y-107234102D01*
X86910342Y-107238229D01*
X86910341Y-107238230D01*
X86909410Y-107241500D01*
X86832756Y-107510594D01*
X86792249Y-107795216D01*
X86792227Y-107799505D01*
X86792226Y-107799512D01*
X86791438Y-107950000D01*
X86790743Y-108082703D01*
X79456888Y-108082703D01*
X79468498Y-107950000D01*
X79448543Y-107721913D01*
X79422684Y-107625405D01*
X79390707Y-107506067D01*
X79390706Y-107506065D01*
X79389284Y-107500757D01*
X79321885Y-107356218D01*
X79294849Y-107298238D01*
X79294846Y-107298233D01*
X79292523Y-107293251D01*
X79203220Y-107165714D01*
X79164357Y-107110211D01*
X79164355Y-107110208D01*
X79161198Y-107105700D01*
X79132365Y-107076867D01*
X79098339Y-107014555D01*
X79103404Y-106943740D01*
X79145951Y-106886904D01*
X79177232Y-106869790D01*
X79193293Y-106863769D01*
X79193296Y-106863767D01*
X79201705Y-106860615D01*
X79318261Y-106773261D01*
X79405615Y-106656705D01*
X79456745Y-106520316D01*
X79463500Y-106458134D01*
X79463500Y-104774500D01*
X79483502Y-104706379D01*
X79537158Y-104659886D01*
X79589500Y-104648500D01*
X99328543Y-104648500D01*
X99396664Y-104668502D01*
G37*
%TD.AperFunction*%
%TD*%
M02*
