M48
; DRILL file {KiCad 6.0.11+dfsg-1~bpo11+1} date Út 11. dubna 2023, 20:42:03
; FORMAT={-:-/ absolute / inch / decimal}
; #@! TF.CreationDate,2023-04-11T20:42:03+02:00
; #@! TF.GenerationSoftware,Kicad,Pcbnew,6.0.11+dfsg-1~bpo11+1
; #@! TF.FileFunction,Plated,1,2,PTH
FMAT,2
INCH
; #@! TA.AperFunction,Plated,PTH,ViaDrill
T1C0.0157
; #@! TA.AperFunction,Plated,PTH,ComponentDrill
T2C0.0315
; #@! TA.AperFunction,Plated,PTH,ComponentDrill
T3C0.0394
; #@! TA.AperFunction,Plated,PTH,ComponentDrill
T4C0.0472
%
G90
G05
T1
X3.05Y-5.0
X3.05Y-5.05
X3.1Y-5.05
X3.15Y-4.15
X3.2Y-4.15
X3.25Y-4.4
X3.25Y-4.8
X3.325Y-4.7
X3.575Y-4.725
X3.625Y-4.8
X3.725Y-4.675
X3.775Y-4.725
X3.825Y-4.15
X3.825Y-4.775
X3.825Y-5.05
X3.875Y-4.15
X3.875Y-5.05
X4.325Y-4.15
X4.325Y-4.475
X4.375Y-4.15
X4.375Y-4.525
X4.4Y-4.8
X4.45Y-4.425
X4.45Y-4.775
X4.45Y-5.05
X4.5Y-4.475
X4.6Y-4.6
X4.6Y-4.7
X4.65Y-4.7
X5.45Y-4.15
X5.45Y-5.05
X5.5Y-4.15
X5.5Y-4.2
X5.5Y-5.0
X5.5Y-5.05
T2
X3.175Y-4.6
X3.275Y-4.6
X3.375Y-4.6
X3.475Y-4.6
X3.575Y-4.6
X3.675Y-4.6
X3.775Y-4.6
X3.875Y-4.6
X4.125Y-4.2
X4.125Y-4.3
X4.125Y-4.4
X4.125Y-4.5
X4.675Y-4.6
X4.775Y-4.6
X4.875Y-4.6
X4.975Y-4.6
X5.075Y-4.6
X5.175Y-4.6
X5.275Y-4.6
X5.375Y-4.6
T3
X3.0691Y-4.15
X3.0691Y-4.25
X3.0691Y-4.35
X3.0691Y-4.45
X3.0691Y-4.55
X3.0691Y-4.65
X3.0691Y-4.75
X3.0691Y-4.85
X3.9691Y-4.15
X3.9691Y-4.25
X3.9691Y-4.35
X3.9691Y-4.45
X3.9691Y-4.55
X3.9691Y-4.65
X3.9691Y-4.75
X3.9691Y-4.85
T4
X4.2061Y-4.9224
X4.3439Y-4.9224
T0
M30
