%TF.GenerationSoftware,KiCad,Pcbnew,6.0.11+dfsg-1~bpo11+1*%
%TF.CreationDate,2023-04-11T20:41:58+02:00*%
%TF.ProjectId,double_pt100,646f7562-6c65-45f7-9074-3130302e6b69,rev?*%
%TF.SameCoordinates,Original*%
%TF.FileFunction,Soldermask,Top*%
%TF.FilePolarity,Negative*%
%FSLAX46Y46*%
G04 Gerber Fmt 4.6, Leading zero omitted, Abs format (unit mm)*
G04 Created by KiCad (PCBNEW 6.0.11+dfsg-1~bpo11+1) date 2023-04-11 20:41:58*
%MOMM*%
%LPD*%
G01*
G04 APERTURE LIST*
G04 Aperture macros list*
%AMRoundRect*
0 Rectangle with rounded corners*
0 $1 Rounding radius*
0 $2 $3 $4 $5 $6 $7 $8 $9 X,Y pos of 4 corners*
0 Add a 4 corners polygon primitive as box body*
4,1,4,$2,$3,$4,$5,$6,$7,$8,$9,$2,$3,0*
0 Add four circle primitives for the rounded corners*
1,1,$1+$1,$2,$3*
1,1,$1+$1,$4,$5*
1,1,$1+$1,$6,$7*
1,1,$1+$1,$8,$9*
0 Add four rect primitives between the rounded corners*
20,1,$1+$1,$2,$3,$4,$5,0*
20,1,$1+$1,$4,$5,$6,$7,0*
20,1,$1+$1,$6,$7,$8,$9,0*
20,1,$1+$1,$8,$9,$2,$3,0*%
G04 Aperture macros list end*
%ADD10C,1.524000*%
%ADD11C,2.400000*%
%ADD12R,2.400000X2.400000*%
%ADD13RoundRect,0.225000X0.225000X0.250000X-0.225000X0.250000X-0.225000X-0.250000X0.225000X-0.250000X0*%
%ADD14RoundRect,0.200000X-0.200000X-0.275000X0.200000X-0.275000X0.200000X0.275000X-0.200000X0.275000X0*%
%ADD15RoundRect,0.200000X0.200000X0.275000X-0.200000X0.275000X-0.200000X-0.275000X0.200000X-0.275000X0*%
%ADD16R,2.000000X2.000000*%
%ADD17O,2.000000X1.600000*%
%ADD18RoundRect,0.225000X-0.250000X0.225000X-0.250000X-0.225000X0.250000X-0.225000X0.250000X0.225000X0*%
%ADD19RoundRect,0.200000X0.275000X-0.200000X0.275000X0.200000X-0.275000X0.200000X-0.275000X-0.200000X0*%
%ADD20RoundRect,0.225000X0.250000X-0.225000X0.250000X0.225000X-0.250000X0.225000X-0.250000X-0.225000X0*%
%ADD21R,1.000000X2.800000*%
%ADD22RoundRect,0.200000X-0.275000X0.200000X-0.275000X-0.200000X0.275000X-0.200000X0.275000X0.200000X0*%
%ADD23RoundRect,0.225000X-0.225000X-0.250000X0.225000X-0.250000X0.225000X0.250000X-0.225000X0.250000X0*%
%ADD24C,0.800000*%
G04 APERTURE END LIST*
D10*
%TO.C,U4*%
X98425000Y-116840000D03*
X95885000Y-116840000D03*
X93345000Y-116840000D03*
X90805000Y-116840000D03*
X88265000Y-116840000D03*
X85725000Y-116840000D03*
X83185000Y-116840000D03*
X80645000Y-116840000D03*
%TD*%
%TO.C,U3*%
X136525000Y-116840000D03*
X133985000Y-116840000D03*
X131445000Y-116840000D03*
X128905000Y-116840000D03*
X126365000Y-116840000D03*
X123825000Y-116840000D03*
X121285000Y-116840000D03*
X118745000Y-116840000D03*
%TD*%
D11*
%TO.C,J1*%
X110335000Y-125030000D03*
D12*
X106835000Y-125030000D03*
%TD*%
D10*
%TO.C,U2*%
X104775000Y-106680000D03*
X104775000Y-109220000D03*
X104775000Y-111760000D03*
X104775000Y-114300000D03*
%TD*%
D13*
%TO.C,C6*%
X134480000Y-115570000D03*
X136030000Y-115570000D03*
%TD*%
D14*
%TO.C,R1*%
X79820000Y-120650000D03*
X81470000Y-120650000D03*
%TD*%
D15*
%TO.C,R6*%
X97980000Y-118745000D03*
X96330000Y-118745000D03*
%TD*%
%TO.C,R11*%
X108140000Y-109220000D03*
X106490000Y-109220000D03*
%TD*%
D16*
%TO.C,U1*%
X77955000Y-105410000D03*
D17*
X77955000Y-107950000D03*
X77955000Y-110490000D03*
X77955000Y-113030000D03*
X77955000Y-115570000D03*
X77955000Y-118110000D03*
X77955000Y-120650000D03*
X77955000Y-123190000D03*
X100815000Y-123190000D03*
X100815000Y-120650000D03*
X100815000Y-118110000D03*
X100815000Y-115570000D03*
X100815000Y-113030000D03*
X100815000Y-110490000D03*
X100815000Y-107950000D03*
X100815000Y-105410000D03*
%TD*%
D18*
%TO.C,C5*%
X106680000Y-112255000D03*
X106680000Y-113805000D03*
%TD*%
D14*
%TO.C,R2*%
X79820000Y-110490000D03*
X81470000Y-110490000D03*
%TD*%
D15*
%TO.C,R10*%
X108140000Y-106680000D03*
X106490000Y-106680000D03*
%TD*%
D19*
%TO.C,R4*%
X98425000Y-110680000D03*
X98425000Y-109030000D03*
%TD*%
D20*
%TO.C,C1*%
X103505000Y-122695000D03*
X103505000Y-121145000D03*
%TD*%
D21*
%TO.C,SW1*%
X137890000Y-125455000D03*
X137890000Y-119655000D03*
X133890000Y-125455000D03*
X133890000Y-119655000D03*
%TD*%
D14*
%TO.C,R7*%
X79820000Y-113030000D03*
X81470000Y-113030000D03*
%TD*%
D13*
%TO.C,C2*%
X97930000Y-114935000D03*
X96380000Y-114935000D03*
%TD*%
D22*
%TO.C,R5*%
X102870000Y-115380000D03*
X102870000Y-117030000D03*
%TD*%
D14*
%TO.C,R8*%
X79820000Y-114935000D03*
X81470000Y-114935000D03*
%TD*%
D19*
%TO.C,R3*%
X102870000Y-110680000D03*
X102870000Y-109030000D03*
%TD*%
D23*
%TO.C,C3*%
X135115000Y-127635000D03*
X136665000Y-127635000D03*
%TD*%
D14*
%TO.C,R9*%
X79820000Y-118745000D03*
X81470000Y-118745000D03*
%TD*%
D23*
%TO.C,C4*%
X79870000Y-123190000D03*
X81420000Y-123190000D03*
%TD*%
D24*
X113030000Y-128270000D03*
X118110000Y-119380000D03*
X116840000Y-119380000D03*
X82550000Y-121920000D03*
X97155000Y-128270000D03*
X98425000Y-128270000D03*
X114300000Y-113665000D03*
X113030000Y-112395000D03*
X111125000Y-114935000D03*
X109855000Y-113665000D03*
X111125000Y-105410000D03*
X109855000Y-105410000D03*
X97155000Y-105410000D03*
X81280000Y-105410000D03*
X80010000Y-105410000D03*
X98425000Y-105410000D03*
X138430000Y-105410000D03*
X139700000Y-106680000D03*
X139700000Y-105410000D03*
X138430000Y-128270000D03*
X139700000Y-127000000D03*
X139700000Y-128270000D03*
X78740000Y-128270000D03*
X77470000Y-127000000D03*
X77470000Y-128270000D03*
X92075000Y-121920000D03*
X90805000Y-120015000D03*
X97155000Y-121285000D03*
X95885000Y-120015000D03*
X111760000Y-121920000D03*
X116840000Y-116840000D03*
X113030000Y-121285000D03*
X82550000Y-111760000D03*
X84455000Y-119380000D03*
X94615000Y-118745000D03*
M02*
