%TF.GenerationSoftware,KiCad,Pcbnew,6.0.10+dfsg-1~bpo11+1*%
%TF.CreationDate,2023-02-01T20:55:54+01:00*%
%TF.ProjectId,double_pt100,646f7562-6c65-45f7-9074-3130302e6b69,rev?*%
%TF.SameCoordinates,Original*%
%TF.FileFunction,Soldermask,Top*%
%TF.FilePolarity,Negative*%
%FSLAX46Y46*%
G04 Gerber Fmt 4.6, Leading zero omitted, Abs format (unit mm)*
G04 Created by KiCad (PCBNEW 6.0.10+dfsg-1~bpo11+1) date 2023-02-01 20:55:54*
%MOMM*%
%LPD*%
G01*
G04 APERTURE LIST*
G04 Aperture macros list*
%AMRoundRect*
0 Rectangle with rounded corners*
0 $1 Rounding radius*
0 $2 $3 $4 $5 $6 $7 $8 $9 X,Y pos of 4 corners*
0 Add a 4 corners polygon primitive as box body*
4,1,4,$2,$3,$4,$5,$6,$7,$8,$9,$2,$3,0*
0 Add four circle primitives for the rounded corners*
1,1,$1+$1,$2,$3*
1,1,$1+$1,$4,$5*
1,1,$1+$1,$6,$7*
1,1,$1+$1,$8,$9*
0 Add four rect primitives between the rounded corners*
20,1,$1+$1,$2,$3,$4,$5,0*
20,1,$1+$1,$4,$5,$6,$7,0*
20,1,$1+$1,$6,$7,$8,$9,0*
20,1,$1+$1,$8,$9,$2,$3,0*%
G04 Aperture macros list end*
%ADD10C,3.200000*%
%ADD11RoundRect,0.200000X-0.200000X-0.275000X0.200000X-0.275000X0.200000X0.275000X-0.200000X0.275000X0*%
%ADD12RoundRect,0.225000X0.225000X0.250000X-0.225000X0.250000X-0.225000X-0.250000X0.225000X-0.250000X0*%
%ADD13RoundRect,0.225000X-0.250000X0.225000X-0.250000X-0.225000X0.250000X-0.225000X0.250000X0.225000X0*%
%ADD14RoundRect,0.200000X-0.275000X0.200000X-0.275000X-0.200000X0.275000X-0.200000X0.275000X0.200000X0*%
%ADD15RoundRect,0.225000X0.250000X-0.225000X0.250000X0.225000X-0.250000X0.225000X-0.250000X-0.225000X0*%
%ADD16R,1.000000X2.800000*%
%ADD17R,2.000000X2.000000*%
%ADD18O,2.000000X1.600000*%
%ADD19C,1.524000*%
%ADD20C,0.800000*%
G04 APERTURE END LIST*
D10*
%TO.C,H8*%
X88900000Y-107950000D03*
%TD*%
%TO.C,H7*%
X147320000Y-107950000D03*
%TD*%
D11*
%TO.C,R11*%
X117920000Y-110490000D03*
X119570000Y-110490000D03*
%TD*%
%TO.C,R6*%
X103315000Y-118077500D03*
X104965000Y-118077500D03*
%TD*%
D12*
%TO.C,C6*%
X155715000Y-119380000D03*
X154165000Y-119380000D03*
%TD*%
D10*
%TO.C,H3*%
X109220000Y-146050000D03*
%TD*%
D13*
%TO.C,C5*%
X119380000Y-113525000D03*
X119380000Y-115075000D03*
%TD*%
D14*
%TO.C,R1*%
X108585000Y-109030000D03*
X108585000Y-110680000D03*
%TD*%
D11*
%TO.C,R2*%
X103315000Y-125095000D03*
X104965000Y-125095000D03*
%TD*%
D10*
%TO.C,H1*%
X78740000Y-146050000D03*
%TD*%
D11*
%TO.C,R10*%
X117920000Y-107950000D03*
X119570000Y-107950000D03*
%TD*%
D10*
%TO.C,H5*%
X137160000Y-146050000D03*
%TD*%
D11*
%TO.C,R4*%
X103315000Y-113030000D03*
X104965000Y-113030000D03*
%TD*%
D15*
%TO.C,C1*%
X103505000Y-122695000D03*
X103505000Y-121145000D03*
%TD*%
D16*
%TO.C,SW1*%
X115210000Y-114660000D03*
X115210000Y-108860000D03*
X111210000Y-114660000D03*
X111210000Y-108860000D03*
%TD*%
D11*
%TO.C,R7*%
X103315000Y-127635000D03*
X104965000Y-127635000D03*
%TD*%
D12*
%TO.C,C2*%
X127775000Y-119380000D03*
X126225000Y-119380000D03*
%TD*%
D11*
%TO.C,R5*%
X103315000Y-115647500D03*
X104965000Y-115647500D03*
%TD*%
%TO.C,R8*%
X103315000Y-130175000D03*
X104965000Y-130175000D03*
%TD*%
D10*
%TO.C,H6*%
X157479999Y-146049999D03*
%TD*%
D11*
%TO.C,R3*%
X103315000Y-110490000D03*
X104965000Y-110490000D03*
%TD*%
D17*
%TO.C,U1*%
X77955000Y-105410000D03*
D18*
X77955000Y-107950000D03*
X77955000Y-110490000D03*
X77955000Y-113030000D03*
X77955000Y-115570000D03*
X77955000Y-118110000D03*
X77955000Y-120650000D03*
X77955000Y-123190000D03*
X100815000Y-123190000D03*
X100815000Y-120650000D03*
X100815000Y-118110000D03*
X100815000Y-115570000D03*
X100815000Y-113030000D03*
X100815000Y-110490000D03*
X100815000Y-107950000D03*
X100815000Y-105410000D03*
%TD*%
D13*
%TO.C,C3*%
X108585000Y-112890000D03*
X108585000Y-114440000D03*
%TD*%
D19*
%TO.C,U4*%
X128270000Y-123190000D03*
X125730000Y-123190000D03*
X123190000Y-123190000D03*
X120650000Y-123190000D03*
X118110000Y-123190000D03*
X115570000Y-123190000D03*
X113030000Y-123190000D03*
X110490000Y-123190000D03*
%TD*%
D11*
%TO.C,R9*%
X103315000Y-132715000D03*
X104965000Y-132715000D03*
%TD*%
D19*
%TO.C,U3*%
X138430000Y-123190000D03*
X140970000Y-123190000D03*
X143510000Y-123190000D03*
X146050000Y-123190000D03*
X148590000Y-123190000D03*
X151130000Y-123190000D03*
X153670000Y-123190000D03*
X156210000Y-123190000D03*
%TD*%
D10*
%TO.C,H2*%
X101600000Y-146050000D03*
%TD*%
D13*
%TO.C,C4*%
X78105000Y-126225000D03*
X78105000Y-127775000D03*
%TD*%
D19*
%TO.C,U2*%
X122555000Y-107950000D03*
X122555000Y-110490000D03*
X122555000Y-113030000D03*
X122555000Y-115570000D03*
%TD*%
D10*
%TO.C,H4*%
X129540000Y-146050000D03*
%TD*%
D20*
X131445000Y-123571000D03*
X106045000Y-110617000D03*
X107061000Y-109855000D03*
X106172000Y-115443000D03*
X112268000Y-125984000D03*
X106299000Y-116713000D03*
X98425000Y-105410000D03*
X97155000Y-105410000D03*
X160020000Y-148590000D03*
X113030000Y-108585000D03*
X80645000Y-105410000D03*
X104775000Y-148590000D03*
X132715000Y-148590000D03*
X115570000Y-117475000D03*
X80645000Y-120015000D03*
X80645000Y-121285000D03*
X128270000Y-116205000D03*
X104775000Y-105410000D03*
X106045000Y-148590000D03*
X161290000Y-147320000D03*
X108585000Y-116205000D03*
X160020000Y-105410000D03*
X81915000Y-105410000D03*
X98425000Y-106680000D03*
X74930000Y-106680000D03*
X74930000Y-147320000D03*
X133985000Y-148590000D03*
X76200000Y-148590000D03*
X103505000Y-105410000D03*
X74930000Y-105410000D03*
X161290000Y-105410000D03*
X80645000Y-106680000D03*
X74930000Y-148590000D03*
X103505000Y-106680000D03*
X161290000Y-106680000D03*
X161290000Y-148590000D03*
X129540000Y-117475000D03*
M02*
