%TF.GenerationSoftware,KiCad,Pcbnew,6.0.10+dfsg-1~bpo11+1*%
%TF.CreationDate,2023-02-01T20:55:54+01:00*%
%TF.ProjectId,double_pt100,646f7562-6c65-45f7-9074-3130302e6b69,rev?*%
%TF.SameCoordinates,Original*%
%TF.FileFunction,Legend,Top*%
%TF.FilePolarity,Positive*%
%FSLAX46Y46*%
G04 Gerber Fmt 4.6, Leading zero omitted, Abs format (unit mm)*
G04 Created by KiCad (PCBNEW 6.0.10+dfsg-1~bpo11+1) date 2023-02-01 20:55:54*
%MOMM*%
%LPD*%
G01*
G04 APERTURE LIST*
%ADD10C,0.500000*%
%ADD11C,0.300000*%
%ADD12C,0.150000*%
%ADD13C,0.120000*%
G04 APERTURE END LIST*
D10*
X82312857Y-137429761D02*
X82312857Y-135429761D01*
X83074761Y-135429761D01*
X83265238Y-135525000D01*
X83360476Y-135620238D01*
X83455714Y-135810714D01*
X83455714Y-136096428D01*
X83360476Y-136286904D01*
X83265238Y-136382142D01*
X83074761Y-136477380D01*
X82312857Y-136477380D01*
X84027142Y-135429761D02*
X85170000Y-135429761D01*
X84598571Y-137429761D02*
X84598571Y-135429761D01*
X86884285Y-137429761D02*
X85741428Y-137429761D01*
X86312857Y-137429761D02*
X86312857Y-135429761D01*
X86122380Y-135715476D01*
X85931904Y-135905952D01*
X85741428Y-136001190D01*
X88122380Y-135429761D02*
X88312857Y-135429761D01*
X88503333Y-135525000D01*
X88598571Y-135620238D01*
X88693809Y-135810714D01*
X88789047Y-136191666D01*
X88789047Y-136667857D01*
X88693809Y-137048809D01*
X88598571Y-137239285D01*
X88503333Y-137334523D01*
X88312857Y-137429761D01*
X88122380Y-137429761D01*
X87931904Y-137334523D01*
X87836666Y-137239285D01*
X87741428Y-137048809D01*
X87646190Y-136667857D01*
X87646190Y-136191666D01*
X87741428Y-135810714D01*
X87836666Y-135620238D01*
X87931904Y-135525000D01*
X88122380Y-135429761D01*
X90027142Y-135429761D02*
X90217619Y-135429761D01*
X90408095Y-135525000D01*
X90503333Y-135620238D01*
X90598571Y-135810714D01*
X90693809Y-136191666D01*
X90693809Y-136667857D01*
X90598571Y-137048809D01*
X90503333Y-137239285D01*
X90408095Y-137334523D01*
X90217619Y-137429761D01*
X90027142Y-137429761D01*
X89836666Y-137334523D01*
X89741428Y-137239285D01*
X89646190Y-137048809D01*
X89550952Y-136667857D01*
X89550952Y-136191666D01*
X89646190Y-135810714D01*
X89741428Y-135620238D01*
X89836666Y-135525000D01*
X90027142Y-135429761D01*
X92884285Y-135429761D02*
X93360476Y-137429761D01*
X93741428Y-136001190D01*
X94122380Y-137429761D01*
X94598571Y-135429761D01*
X95360476Y-137429761D02*
X95360476Y-136096428D01*
X95360476Y-135429761D02*
X95265238Y-135525000D01*
X95360476Y-135620238D01*
X95455714Y-135525000D01*
X95360476Y-135429761D01*
X95360476Y-135620238D01*
X96979523Y-136382142D02*
X96312857Y-136382142D01*
X96312857Y-137429761D02*
X96312857Y-135429761D01*
X97265238Y-135429761D01*
X98027142Y-137429761D02*
X98027142Y-136096428D01*
X98027142Y-135429761D02*
X97931904Y-135525000D01*
X98027142Y-135620238D01*
X98122380Y-135525000D01*
X98027142Y-135429761D01*
X98027142Y-135620238D01*
D11*
X84284285Y-139442857D02*
X84570000Y-140242857D01*
X84855714Y-139442857D01*
X85541428Y-139042857D02*
X85655714Y-139042857D01*
X85770000Y-139100000D01*
X85827142Y-139157142D01*
X85884285Y-139271428D01*
X85941428Y-139500000D01*
X85941428Y-139785714D01*
X85884285Y-140014285D01*
X85827142Y-140128571D01*
X85770000Y-140185714D01*
X85655714Y-140242857D01*
X85541428Y-140242857D01*
X85427142Y-140185714D01*
X85370000Y-140128571D01*
X85312857Y-140014285D01*
X85255714Y-139785714D01*
X85255714Y-139500000D01*
X85312857Y-139271428D01*
X85370000Y-139157142D01*
X85427142Y-139100000D01*
X85541428Y-139042857D01*
X86455714Y-140128571D02*
X86512857Y-140185714D01*
X86455714Y-140242857D01*
X86398571Y-140185714D01*
X86455714Y-140128571D01*
X86455714Y-140242857D01*
X87655714Y-140242857D02*
X86970000Y-140242857D01*
X87312857Y-140242857D02*
X87312857Y-139042857D01*
X87198571Y-139214285D01*
X87084285Y-139328571D01*
X86970000Y-139385714D01*
X89027142Y-139157142D02*
X89084285Y-139100000D01*
X89198571Y-139042857D01*
X89484285Y-139042857D01*
X89598571Y-139100000D01*
X89655714Y-139157142D01*
X89712857Y-139271428D01*
X89712857Y-139385714D01*
X89655714Y-139557142D01*
X88970000Y-140242857D01*
X89712857Y-140242857D01*
X90455714Y-139042857D02*
X90570000Y-139042857D01*
X90684285Y-139100000D01*
X90741428Y-139157142D01*
X90798571Y-139271428D01*
X90855714Y-139500000D01*
X90855714Y-139785714D01*
X90798571Y-140014285D01*
X90741428Y-140128571D01*
X90684285Y-140185714D01*
X90570000Y-140242857D01*
X90455714Y-140242857D01*
X90341428Y-140185714D01*
X90284285Y-140128571D01*
X90227142Y-140014285D01*
X90170000Y-139785714D01*
X90170000Y-139500000D01*
X90227142Y-139271428D01*
X90284285Y-139157142D01*
X90341428Y-139100000D01*
X90455714Y-139042857D01*
X91312857Y-139157142D02*
X91370000Y-139100000D01*
X91484285Y-139042857D01*
X91770000Y-139042857D01*
X91884285Y-139100000D01*
X91941428Y-139157142D01*
X91998571Y-139271428D01*
X91998571Y-139385714D01*
X91941428Y-139557142D01*
X91255714Y-140242857D01*
X91998571Y-140242857D01*
X92398571Y-139042857D02*
X93141428Y-139042857D01*
X92741428Y-139500000D01*
X92912857Y-139500000D01*
X93027142Y-139557142D01*
X93084285Y-139614285D01*
X93141428Y-139728571D01*
X93141428Y-140014285D01*
X93084285Y-140128571D01*
X93027142Y-140185714D01*
X92912857Y-140242857D01*
X92570000Y-140242857D01*
X92455714Y-140185714D01*
X92398571Y-140128571D01*
X93655714Y-140128571D02*
X93712857Y-140185714D01*
X93655714Y-140242857D01*
X93598571Y-140185714D01*
X93655714Y-140128571D01*
X93655714Y-140242857D01*
X94455714Y-139042857D02*
X94570000Y-139042857D01*
X94684285Y-139100000D01*
X94741428Y-139157142D01*
X94798571Y-139271428D01*
X94855714Y-139500000D01*
X94855714Y-139785714D01*
X94798571Y-140014285D01*
X94741428Y-140128571D01*
X94684285Y-140185714D01*
X94570000Y-140242857D01*
X94455714Y-140242857D01*
X94341428Y-140185714D01*
X94284285Y-140128571D01*
X94227142Y-140014285D01*
X94170000Y-139785714D01*
X94170000Y-139500000D01*
X94227142Y-139271428D01*
X94284285Y-139157142D01*
X94341428Y-139100000D01*
X94455714Y-139042857D01*
X95998571Y-140242857D02*
X95312857Y-140242857D01*
X95655714Y-140242857D02*
X95655714Y-139042857D01*
X95541428Y-139214285D01*
X95427142Y-139328571D01*
X95312857Y-139385714D01*
D12*
%TO.C,R11*%
X118295000Y-109536666D02*
X118061666Y-109203333D01*
X117895000Y-109536666D02*
X117895000Y-108836666D01*
X118161666Y-108836666D01*
X118228333Y-108870000D01*
X118261666Y-108903333D01*
X118295000Y-108970000D01*
X118295000Y-109070000D01*
X118261666Y-109136666D01*
X118228333Y-109170000D01*
X118161666Y-109203333D01*
X117895000Y-109203333D01*
X118961666Y-109536666D02*
X118561666Y-109536666D01*
X118761666Y-109536666D02*
X118761666Y-108836666D01*
X118695000Y-108936666D01*
X118628333Y-109003333D01*
X118561666Y-109036666D01*
X119628333Y-109536666D02*
X119228333Y-109536666D01*
X119428333Y-109536666D02*
X119428333Y-108836666D01*
X119361666Y-108936666D01*
X119295000Y-109003333D01*
X119228333Y-109036666D01*
%TO.C,R6*%
X104023333Y-117156666D02*
X103790000Y-116823333D01*
X103623333Y-117156666D02*
X103623333Y-116456666D01*
X103890000Y-116456666D01*
X103956666Y-116490000D01*
X103990000Y-116523333D01*
X104023333Y-116590000D01*
X104023333Y-116690000D01*
X103990000Y-116756666D01*
X103956666Y-116790000D01*
X103890000Y-116823333D01*
X103623333Y-116823333D01*
X104623333Y-116456666D02*
X104490000Y-116456666D01*
X104423333Y-116490000D01*
X104390000Y-116523333D01*
X104323333Y-116623333D01*
X104290000Y-116756666D01*
X104290000Y-117023333D01*
X104323333Y-117090000D01*
X104356666Y-117123333D01*
X104423333Y-117156666D01*
X104556666Y-117156666D01*
X104623333Y-117123333D01*
X104656666Y-117090000D01*
X104690000Y-117023333D01*
X104690000Y-116856666D01*
X104656666Y-116790000D01*
X104623333Y-116756666D01*
X104556666Y-116723333D01*
X104423333Y-116723333D01*
X104356666Y-116756666D01*
X104323333Y-116790000D01*
X104290000Y-116856666D01*
%TO.C,C6*%
X152283333Y-119630000D02*
X152250000Y-119663333D01*
X152150000Y-119696666D01*
X152083333Y-119696666D01*
X151983333Y-119663333D01*
X151916666Y-119596666D01*
X151883333Y-119530000D01*
X151850000Y-119396666D01*
X151850000Y-119296666D01*
X151883333Y-119163333D01*
X151916666Y-119096666D01*
X151983333Y-119030000D01*
X152083333Y-118996666D01*
X152150000Y-118996666D01*
X152250000Y-119030000D01*
X152283333Y-119063333D01*
X152883333Y-118996666D02*
X152750000Y-118996666D01*
X152683333Y-119030000D01*
X152650000Y-119063333D01*
X152583333Y-119163333D01*
X152550000Y-119296666D01*
X152550000Y-119563333D01*
X152583333Y-119630000D01*
X152616666Y-119663333D01*
X152683333Y-119696666D01*
X152816666Y-119696666D01*
X152883333Y-119663333D01*
X152916666Y-119630000D01*
X152950000Y-119563333D01*
X152950000Y-119396666D01*
X152916666Y-119330000D01*
X152883333Y-119296666D01*
X152816666Y-119263333D01*
X152683333Y-119263333D01*
X152616666Y-119296666D01*
X152583333Y-119330000D01*
X152550000Y-119396666D01*
%TO.C,C5*%
X117739333Y-114550000D02*
X117706000Y-114583333D01*
X117606000Y-114616666D01*
X117539333Y-114616666D01*
X117439333Y-114583333D01*
X117372666Y-114516666D01*
X117339333Y-114450000D01*
X117306000Y-114316666D01*
X117306000Y-114216666D01*
X117339333Y-114083333D01*
X117372666Y-114016666D01*
X117439333Y-113950000D01*
X117539333Y-113916666D01*
X117606000Y-113916666D01*
X117706000Y-113950000D01*
X117739333Y-113983333D01*
X118372666Y-113916666D02*
X118039333Y-113916666D01*
X118006000Y-114250000D01*
X118039333Y-114216666D01*
X118106000Y-114183333D01*
X118272666Y-114183333D01*
X118339333Y-114216666D01*
X118372666Y-114250000D01*
X118406000Y-114316666D01*
X118406000Y-114483333D01*
X118372666Y-114550000D01*
X118339333Y-114583333D01*
X118272666Y-114616666D01*
X118106000Y-114616666D01*
X118039333Y-114583333D01*
X118006000Y-114550000D01*
%TO.C,R1*%
X107198333Y-108901666D02*
X106965000Y-108568333D01*
X106798333Y-108901666D02*
X106798333Y-108201666D01*
X107065000Y-108201666D01*
X107131666Y-108235000D01*
X107165000Y-108268333D01*
X107198333Y-108335000D01*
X107198333Y-108435000D01*
X107165000Y-108501666D01*
X107131666Y-108535000D01*
X107065000Y-108568333D01*
X106798333Y-108568333D01*
X107865000Y-108901666D02*
X107465000Y-108901666D01*
X107665000Y-108901666D02*
X107665000Y-108201666D01*
X107598333Y-108301666D01*
X107531666Y-108368333D01*
X107465000Y-108401666D01*
%TO.C,R2*%
X104023333Y-124141666D02*
X103790000Y-123808333D01*
X103623333Y-124141666D02*
X103623333Y-123441666D01*
X103890000Y-123441666D01*
X103956666Y-123475000D01*
X103990000Y-123508333D01*
X104023333Y-123575000D01*
X104023333Y-123675000D01*
X103990000Y-123741666D01*
X103956666Y-123775000D01*
X103890000Y-123808333D01*
X103623333Y-123808333D01*
X104290000Y-123508333D02*
X104323333Y-123475000D01*
X104390000Y-123441666D01*
X104556666Y-123441666D01*
X104623333Y-123475000D01*
X104656666Y-123508333D01*
X104690000Y-123575000D01*
X104690000Y-123641666D01*
X104656666Y-123741666D01*
X104256666Y-124141666D01*
X104690000Y-124141666D01*
%TO.C,R10*%
X118295000Y-106996666D02*
X118061666Y-106663333D01*
X117895000Y-106996666D02*
X117895000Y-106296666D01*
X118161666Y-106296666D01*
X118228333Y-106330000D01*
X118261666Y-106363333D01*
X118295000Y-106430000D01*
X118295000Y-106530000D01*
X118261666Y-106596666D01*
X118228333Y-106630000D01*
X118161666Y-106663333D01*
X117895000Y-106663333D01*
X118961666Y-106996666D02*
X118561666Y-106996666D01*
X118761666Y-106996666D02*
X118761666Y-106296666D01*
X118695000Y-106396666D01*
X118628333Y-106463333D01*
X118561666Y-106496666D01*
X119395000Y-106296666D02*
X119461666Y-106296666D01*
X119528333Y-106330000D01*
X119561666Y-106363333D01*
X119595000Y-106430000D01*
X119628333Y-106563333D01*
X119628333Y-106730000D01*
X119595000Y-106863333D01*
X119561666Y-106930000D01*
X119528333Y-106963333D01*
X119461666Y-106996666D01*
X119395000Y-106996666D01*
X119328333Y-106963333D01*
X119295000Y-106930000D01*
X119261666Y-106863333D01*
X119228333Y-106730000D01*
X119228333Y-106563333D01*
X119261666Y-106430000D01*
X119295000Y-106363333D01*
X119328333Y-106330000D01*
X119395000Y-106296666D01*
%TO.C,R4*%
X104023333Y-112076666D02*
X103790000Y-111743333D01*
X103623333Y-112076666D02*
X103623333Y-111376666D01*
X103890000Y-111376666D01*
X103956666Y-111410000D01*
X103990000Y-111443333D01*
X104023333Y-111510000D01*
X104023333Y-111610000D01*
X103990000Y-111676666D01*
X103956666Y-111710000D01*
X103890000Y-111743333D01*
X103623333Y-111743333D01*
X104623333Y-111610000D02*
X104623333Y-112076666D01*
X104456666Y-111343333D02*
X104290000Y-111843333D01*
X104723333Y-111843333D01*
%TO.C,C1*%
X104912333Y-122170000D02*
X104879000Y-122203333D01*
X104779000Y-122236666D01*
X104712333Y-122236666D01*
X104612333Y-122203333D01*
X104545666Y-122136666D01*
X104512333Y-122070000D01*
X104479000Y-121936666D01*
X104479000Y-121836666D01*
X104512333Y-121703333D01*
X104545666Y-121636666D01*
X104612333Y-121570000D01*
X104712333Y-121536666D01*
X104779000Y-121536666D01*
X104879000Y-121570000D01*
X104912333Y-121603333D01*
X105579000Y-122236666D02*
X105179000Y-122236666D01*
X105379000Y-122236666D02*
X105379000Y-121536666D01*
X105312333Y-121636666D01*
X105245666Y-121703333D01*
X105179000Y-121736666D01*
%TO.C,SW1*%
X111950666Y-116736761D02*
X112093523Y-116784380D01*
X112331619Y-116784380D01*
X112426857Y-116736761D01*
X112474476Y-116689142D01*
X112522095Y-116593904D01*
X112522095Y-116498666D01*
X112474476Y-116403428D01*
X112426857Y-116355809D01*
X112331619Y-116308190D01*
X112141142Y-116260571D01*
X112045904Y-116212952D01*
X111998285Y-116165333D01*
X111950666Y-116070095D01*
X111950666Y-115974857D01*
X111998285Y-115879619D01*
X112045904Y-115832000D01*
X112141142Y-115784380D01*
X112379238Y-115784380D01*
X112522095Y-115832000D01*
X112855428Y-115784380D02*
X113093523Y-116784380D01*
X113284000Y-116070095D01*
X113474476Y-116784380D01*
X113712571Y-115784380D01*
X114617333Y-116784380D02*
X114045904Y-116784380D01*
X114331619Y-116784380D02*
X114331619Y-115784380D01*
X114236380Y-115927238D01*
X114141142Y-116022476D01*
X114045904Y-116070095D01*
%TO.C,R7*%
X104023333Y-126681666D02*
X103790000Y-126348333D01*
X103623333Y-126681666D02*
X103623333Y-125981666D01*
X103890000Y-125981666D01*
X103956666Y-126015000D01*
X103990000Y-126048333D01*
X104023333Y-126115000D01*
X104023333Y-126215000D01*
X103990000Y-126281666D01*
X103956666Y-126315000D01*
X103890000Y-126348333D01*
X103623333Y-126348333D01*
X104256666Y-125981666D02*
X104723333Y-125981666D01*
X104423333Y-126681666D01*
%TO.C,C2*%
X124343333Y-119630000D02*
X124310000Y-119663333D01*
X124210000Y-119696666D01*
X124143333Y-119696666D01*
X124043333Y-119663333D01*
X123976666Y-119596666D01*
X123943333Y-119530000D01*
X123910000Y-119396666D01*
X123910000Y-119296666D01*
X123943333Y-119163333D01*
X123976666Y-119096666D01*
X124043333Y-119030000D01*
X124143333Y-118996666D01*
X124210000Y-118996666D01*
X124310000Y-119030000D01*
X124343333Y-119063333D01*
X124610000Y-119063333D02*
X124643333Y-119030000D01*
X124710000Y-118996666D01*
X124876666Y-118996666D01*
X124943333Y-119030000D01*
X124976666Y-119063333D01*
X125010000Y-119130000D01*
X125010000Y-119196666D01*
X124976666Y-119296666D01*
X124576666Y-119696666D01*
X125010000Y-119696666D01*
%TO.C,R5*%
X104023333Y-114743666D02*
X103790000Y-114410333D01*
X103623333Y-114743666D02*
X103623333Y-114043666D01*
X103890000Y-114043666D01*
X103956666Y-114077000D01*
X103990000Y-114110333D01*
X104023333Y-114177000D01*
X104023333Y-114277000D01*
X103990000Y-114343666D01*
X103956666Y-114377000D01*
X103890000Y-114410333D01*
X103623333Y-114410333D01*
X104656666Y-114043666D02*
X104323333Y-114043666D01*
X104290000Y-114377000D01*
X104323333Y-114343666D01*
X104390000Y-114310333D01*
X104556666Y-114310333D01*
X104623333Y-114343666D01*
X104656666Y-114377000D01*
X104690000Y-114443666D01*
X104690000Y-114610333D01*
X104656666Y-114677000D01*
X104623333Y-114710333D01*
X104556666Y-114743666D01*
X104390000Y-114743666D01*
X104323333Y-114710333D01*
X104290000Y-114677000D01*
%TO.C,R8*%
X104023333Y-129221666D02*
X103790000Y-128888333D01*
X103623333Y-129221666D02*
X103623333Y-128521666D01*
X103890000Y-128521666D01*
X103956666Y-128555000D01*
X103990000Y-128588333D01*
X104023333Y-128655000D01*
X104023333Y-128755000D01*
X103990000Y-128821666D01*
X103956666Y-128855000D01*
X103890000Y-128888333D01*
X103623333Y-128888333D01*
X104423333Y-128821666D02*
X104356666Y-128788333D01*
X104323333Y-128755000D01*
X104290000Y-128688333D01*
X104290000Y-128655000D01*
X104323333Y-128588333D01*
X104356666Y-128555000D01*
X104423333Y-128521666D01*
X104556666Y-128521666D01*
X104623333Y-128555000D01*
X104656666Y-128588333D01*
X104690000Y-128655000D01*
X104690000Y-128688333D01*
X104656666Y-128755000D01*
X104623333Y-128788333D01*
X104556666Y-128821666D01*
X104423333Y-128821666D01*
X104356666Y-128855000D01*
X104323333Y-128888333D01*
X104290000Y-128955000D01*
X104290000Y-129088333D01*
X104323333Y-129155000D01*
X104356666Y-129188333D01*
X104423333Y-129221666D01*
X104556666Y-129221666D01*
X104623333Y-129188333D01*
X104656666Y-129155000D01*
X104690000Y-129088333D01*
X104690000Y-128955000D01*
X104656666Y-128888333D01*
X104623333Y-128855000D01*
X104556666Y-128821666D01*
%TO.C,R3*%
X104023333Y-109536666D02*
X103790000Y-109203333D01*
X103623333Y-109536666D02*
X103623333Y-108836666D01*
X103890000Y-108836666D01*
X103956666Y-108870000D01*
X103990000Y-108903333D01*
X104023333Y-108970000D01*
X104023333Y-109070000D01*
X103990000Y-109136666D01*
X103956666Y-109170000D01*
X103890000Y-109203333D01*
X103623333Y-109203333D01*
X104256666Y-108836666D02*
X104690000Y-108836666D01*
X104456666Y-109103333D01*
X104556666Y-109103333D01*
X104623333Y-109136666D01*
X104656666Y-109170000D01*
X104690000Y-109236666D01*
X104690000Y-109403333D01*
X104656666Y-109470000D01*
X104623333Y-109503333D01*
X104556666Y-109536666D01*
X104356666Y-109536666D01*
X104290000Y-109503333D01*
X104256666Y-109470000D01*
%TO.C,U1*%
X88773095Y-112482380D02*
X88773095Y-113291904D01*
X88820714Y-113387142D01*
X88868333Y-113434761D01*
X88963571Y-113482380D01*
X89154047Y-113482380D01*
X89249285Y-113434761D01*
X89296904Y-113387142D01*
X89344523Y-113291904D01*
X89344523Y-112482380D01*
X90344523Y-113482380D02*
X89773095Y-113482380D01*
X90058809Y-113482380D02*
X90058809Y-112482380D01*
X89963571Y-112625238D01*
X89868333Y-112720476D01*
X89773095Y-112768095D01*
%TO.C,C3*%
X106944333Y-113915000D02*
X106911000Y-113948333D01*
X106811000Y-113981666D01*
X106744333Y-113981666D01*
X106644333Y-113948333D01*
X106577666Y-113881666D01*
X106544333Y-113815000D01*
X106511000Y-113681666D01*
X106511000Y-113581666D01*
X106544333Y-113448333D01*
X106577666Y-113381666D01*
X106644333Y-113315000D01*
X106744333Y-113281666D01*
X106811000Y-113281666D01*
X106911000Y-113315000D01*
X106944333Y-113348333D01*
X107177666Y-113281666D02*
X107611000Y-113281666D01*
X107377666Y-113548333D01*
X107477666Y-113548333D01*
X107544333Y-113581666D01*
X107577666Y-113615000D01*
X107611000Y-113681666D01*
X107611000Y-113848333D01*
X107577666Y-113915000D01*
X107544333Y-113948333D01*
X107477666Y-113981666D01*
X107277666Y-113981666D01*
X107211000Y-113948333D01*
X107177666Y-113915000D01*
%TO.C,U4*%
X118618095Y-131532380D02*
X118618095Y-132341904D01*
X118665714Y-132437142D01*
X118713333Y-132484761D01*
X118808571Y-132532380D01*
X118999047Y-132532380D01*
X119094285Y-132484761D01*
X119141904Y-132437142D01*
X119189523Y-132341904D01*
X119189523Y-131532380D01*
X120094285Y-131865714D02*
X120094285Y-132532380D01*
X119856190Y-131484761D02*
X119618095Y-132199047D01*
X120237142Y-132199047D01*
%TO.C,R9*%
X104023333Y-131761666D02*
X103790000Y-131428333D01*
X103623333Y-131761666D02*
X103623333Y-131061666D01*
X103890000Y-131061666D01*
X103956666Y-131095000D01*
X103990000Y-131128333D01*
X104023333Y-131195000D01*
X104023333Y-131295000D01*
X103990000Y-131361666D01*
X103956666Y-131395000D01*
X103890000Y-131428333D01*
X103623333Y-131428333D01*
X104356666Y-131761666D02*
X104490000Y-131761666D01*
X104556666Y-131728333D01*
X104590000Y-131695000D01*
X104656666Y-131595000D01*
X104690000Y-131461666D01*
X104690000Y-131195000D01*
X104656666Y-131128333D01*
X104623333Y-131095000D01*
X104556666Y-131061666D01*
X104423333Y-131061666D01*
X104356666Y-131095000D01*
X104323333Y-131128333D01*
X104290000Y-131195000D01*
X104290000Y-131361666D01*
X104323333Y-131428333D01*
X104356666Y-131461666D01*
X104423333Y-131495000D01*
X104556666Y-131495000D01*
X104623333Y-131461666D01*
X104656666Y-131428333D01*
X104690000Y-131361666D01*
%TO.C,U3*%
X146558095Y-131532380D02*
X146558095Y-132341904D01*
X146605714Y-132437142D01*
X146653333Y-132484761D01*
X146748571Y-132532380D01*
X146939047Y-132532380D01*
X147034285Y-132484761D01*
X147081904Y-132437142D01*
X147129523Y-132341904D01*
X147129523Y-131532380D01*
X147510476Y-131532380D02*
X148129523Y-131532380D01*
X147796190Y-131913333D01*
X147939047Y-131913333D01*
X148034285Y-131960952D01*
X148081904Y-132008571D01*
X148129523Y-132103809D01*
X148129523Y-132341904D01*
X148081904Y-132437142D01*
X148034285Y-132484761D01*
X147939047Y-132532380D01*
X147653333Y-132532380D01*
X147558095Y-132484761D01*
X147510476Y-132437142D01*
%TO.C,C4*%
X77303333Y-129897142D02*
X77255714Y-129944761D01*
X77112857Y-129992380D01*
X77017619Y-129992380D01*
X76874761Y-129944761D01*
X76779523Y-129849523D01*
X76731904Y-129754285D01*
X76684285Y-129563809D01*
X76684285Y-129420952D01*
X76731904Y-129230476D01*
X76779523Y-129135238D01*
X76874761Y-129040000D01*
X77017619Y-128992380D01*
X77112857Y-128992380D01*
X77255714Y-129040000D01*
X77303333Y-129087619D01*
X78160476Y-129325714D02*
X78160476Y-129992380D01*
X77922380Y-128944761D02*
X77684285Y-129659047D01*
X78303333Y-129659047D01*
%TO.C,U2*%
X140208095Y-111212380D02*
X140208095Y-112021904D01*
X140255714Y-112117142D01*
X140303333Y-112164761D01*
X140398571Y-112212380D01*
X140589047Y-112212380D01*
X140684285Y-112164761D01*
X140731904Y-112117142D01*
X140779523Y-112021904D01*
X140779523Y-111212380D01*
X141208095Y-111307619D02*
X141255714Y-111260000D01*
X141350952Y-111212380D01*
X141589047Y-111212380D01*
X141684285Y-111260000D01*
X141731904Y-111307619D01*
X141779523Y-111402857D01*
X141779523Y-111498095D01*
X141731904Y-111640952D01*
X141160476Y-112212380D01*
X141779523Y-112212380D01*
D13*
%TO.C,R11*%
X118507742Y-111012500D02*
X118982258Y-111012500D01*
X118507742Y-109967500D02*
X118982258Y-109967500D01*
%TO.C,R6*%
X103902742Y-118600000D02*
X104377258Y-118600000D01*
X103902742Y-117555000D02*
X104377258Y-117555000D01*
%TO.C,C6*%
X155080580Y-119890000D02*
X154799420Y-119890000D01*
X155080580Y-118870000D02*
X154799420Y-118870000D01*
%TO.C,C5*%
X118870000Y-114159420D02*
X118870000Y-114440580D01*
X119890000Y-114159420D02*
X119890000Y-114440580D01*
%TO.C,R1*%
X108062500Y-109617742D02*
X108062500Y-110092258D01*
X109107500Y-109617742D02*
X109107500Y-110092258D01*
%TO.C,R2*%
X103902742Y-124572500D02*
X104377258Y-124572500D01*
X103902742Y-125617500D02*
X104377258Y-125617500D01*
%TO.C,R10*%
X118507742Y-107427500D02*
X118982258Y-107427500D01*
X118507742Y-108472500D02*
X118982258Y-108472500D01*
%TO.C,R4*%
X103902742Y-112507500D02*
X104377258Y-112507500D01*
X103902742Y-113552500D02*
X104377258Y-113552500D01*
%TO.C,C1*%
X102995000Y-122060580D02*
X102995000Y-121779420D01*
X104015000Y-122060580D02*
X104015000Y-121779420D01*
%TO.C,SW1*%
X116420000Y-108550000D02*
X116010000Y-108550000D01*
X110000000Y-108550000D02*
X110000000Y-114970000D01*
X116010000Y-114970000D02*
X116420000Y-114970000D01*
X116420000Y-114970000D02*
X116420000Y-108550000D01*
X112010000Y-114970000D02*
X114410000Y-114970000D01*
X110410000Y-108550000D02*
X110000000Y-108550000D01*
X114410000Y-108550000D02*
X112010000Y-108550000D01*
X110000000Y-114970000D02*
X110280000Y-114970000D01*
%TO.C,R7*%
X103902742Y-127112500D02*
X104377258Y-127112500D01*
X103902742Y-128157500D02*
X104377258Y-128157500D01*
%TO.C,C2*%
X127140580Y-119890000D02*
X126859420Y-119890000D01*
X127140580Y-118870000D02*
X126859420Y-118870000D01*
%TO.C,R5*%
X103902742Y-116170000D02*
X104377258Y-116170000D01*
X103902742Y-115125000D02*
X104377258Y-115125000D01*
%TO.C,R8*%
X103902742Y-130697500D02*
X104377258Y-130697500D01*
X103902742Y-129652500D02*
X104377258Y-129652500D01*
%TO.C,R3*%
X103902742Y-111012500D02*
X104377258Y-111012500D01*
X103902742Y-109967500D02*
X104377258Y-109967500D01*
%TO.C,U1*%
X78995000Y-131530000D02*
X102315000Y-131530000D01*
X100195000Y-97070000D02*
X78585000Y-97070000D01*
X76455000Y-124630000D02*
X78995000Y-124630000D01*
X76455000Y-124630000D02*
X76455000Y-99200000D01*
X102315000Y-131530000D02*
X102315000Y-99200000D01*
X78995000Y-124630000D02*
X78995000Y-131530000D01*
X102315000Y-99200000D02*
G75*
G03*
X100185000Y-97070000I-2130000J0D01*
G01*
X78585000Y-97070000D02*
G75*
G03*
X76455000Y-99200000I2J-2130002D01*
G01*
G36*
X76050000Y-105410000D02*
G01*
X75415000Y-106045000D01*
X75415000Y-104775000D01*
X76050000Y-105410000D01*
G37*
D12*
X76050000Y-105410000D02*
X75415000Y-106045000D01*
X75415000Y-104775000D01*
X76050000Y-105410000D01*
D13*
%TO.C,C3*%
X109095000Y-113524420D02*
X109095000Y-113805580D01*
X108075000Y-113524420D02*
X108075000Y-113805580D01*
%TO.C,U4*%
X114300000Y-123825000D02*
X113665000Y-124460000D01*
X111760000Y-140970000D02*
X111760000Y-148590000D01*
X127000000Y-148590000D02*
X127000000Y-140970000D01*
X116205000Y-124460000D02*
X114935000Y-124460000D01*
X125095000Y-121920000D02*
X126365000Y-121920000D01*
X128905000Y-124460000D02*
X129540000Y-123825000D01*
X127635000Y-124460000D02*
X128905000Y-124460000D01*
X124460000Y-123825000D02*
X123825000Y-124460000D01*
X111760000Y-122555000D02*
X112395000Y-121920000D01*
X116840000Y-129540000D02*
X121920000Y-129540000D01*
X122555000Y-121920000D02*
X123825000Y-121920000D01*
X121285000Y-124460000D02*
X120015000Y-124460000D01*
X127000000Y-146050000D02*
X111760000Y-146050000D01*
X123825000Y-121920000D02*
X124460000Y-122555000D01*
X121920000Y-122555000D02*
X122555000Y-121920000D01*
X120015000Y-121920000D02*
X121285000Y-121920000D01*
X122555000Y-124460000D02*
X121920000Y-123825000D01*
X129540000Y-148590000D02*
X109220000Y-148590000D01*
X121920000Y-134620000D02*
X116840000Y-134620000D01*
X121920000Y-129540000D02*
X121920000Y-134620000D01*
X106680000Y-146050000D02*
X106680000Y-123190000D01*
X121920000Y-123825000D02*
X121285000Y-124460000D01*
X125730000Y-142875000D02*
X124460000Y-144145000D01*
X116205000Y-121920000D02*
X116840000Y-122555000D01*
X111760000Y-123825000D02*
X111125000Y-124460000D01*
X111125000Y-121920000D02*
X111760000Y-122555000D01*
X116840000Y-123825000D02*
X116205000Y-124460000D01*
X123825000Y-124460000D02*
X122555000Y-124460000D01*
X114935000Y-124460000D02*
X114300000Y-123825000D01*
X117475000Y-124460000D02*
X116840000Y-123825000D01*
X114300000Y-122555000D02*
X114935000Y-121920000D01*
X128905000Y-121920000D02*
X127635000Y-121920000D01*
X109855000Y-124460000D02*
X109220000Y-123825000D01*
X109855000Y-121920000D02*
X111125000Y-121920000D01*
X118745000Y-124460000D02*
X117475000Y-124460000D01*
X119380000Y-140970000D02*
X111760000Y-140970000D01*
X118110000Y-142875000D02*
X116840000Y-144145000D01*
X109220000Y-123825000D02*
X109220000Y-122555000D01*
X116840000Y-122555000D02*
X117475000Y-121920000D01*
X126365000Y-121920000D02*
X127000000Y-122555000D01*
X113665000Y-124460000D02*
X112395000Y-124460000D01*
X127000000Y-123825000D02*
X126365000Y-124460000D01*
X127635000Y-121920000D02*
X127000000Y-122555000D01*
X132080000Y-123190000D02*
X132080000Y-146050000D01*
X129540000Y-123825000D02*
X129540000Y-122555000D01*
X124460000Y-122555000D02*
X125095000Y-121920000D01*
X120015000Y-124460000D02*
X119380000Y-123825000D01*
X112395000Y-124460000D02*
X111760000Y-123825000D01*
X119380000Y-148590000D02*
X119380000Y-140970000D01*
X116840000Y-134620000D02*
X116840000Y-129540000D01*
X127000000Y-123825000D02*
X127635000Y-124460000D01*
X129540000Y-122555000D02*
X128905000Y-121920000D01*
X125095000Y-124460000D02*
X124460000Y-123825000D01*
X119380000Y-123825000D02*
X118745000Y-124460000D01*
X114935000Y-121920000D02*
X116205000Y-121920000D01*
X119380000Y-122555000D02*
X120015000Y-121920000D01*
X111125000Y-124460000D02*
X109855000Y-124460000D01*
X121285000Y-121920000D02*
X121920000Y-122555000D01*
X118745000Y-121920000D02*
X119380000Y-122555000D01*
X109220000Y-122555000D02*
X109855000Y-121920000D01*
X112395000Y-121920000D02*
X113665000Y-121920000D01*
X121920000Y-142875000D02*
X120650000Y-144145000D01*
X114300000Y-142875000D02*
X113030000Y-144145000D01*
X109220000Y-120650000D02*
X129540000Y-120650000D01*
X113665000Y-121920000D02*
X114300000Y-122555000D01*
X126365000Y-124460000D02*
X125095000Y-124460000D01*
X117475000Y-121920000D02*
X118745000Y-121920000D01*
X127000000Y-140970000D02*
X119380000Y-140970000D01*
X132080000Y-123190000D02*
G75*
G03*
X129540000Y-120650000I-2540001J-1D01*
G01*
X106680000Y-146050000D02*
G75*
G03*
X109220000Y-148590000I2540000J0D01*
G01*
X109220000Y-120650000D02*
G75*
G03*
X106680000Y-123190000I0J-2540000D01*
G01*
X129540000Y-148590000D02*
G75*
G03*
X132080000Y-146050000I-1J2540001D01*
G01*
X126365000Y-143510000D02*
G75*
G03*
X126365000Y-143510000I-1270000J0D01*
G01*
X118745000Y-143510000D02*
G75*
G03*
X118745000Y-143510000I-1270000J0D01*
G01*
X114935000Y-143510000D02*
G75*
G03*
X114935000Y-143510000I-1270000J0D01*
G01*
X122555000Y-143510000D02*
G75*
G03*
X122555000Y-143510000I-1270000J0D01*
G01*
X111016051Y-146050000D02*
G75*
G03*
X111016051Y-146050000I-1796051J0D01*
G01*
X131336051Y-146050000D02*
G75*
G03*
X131336051Y-146050000I-1796051J0D01*
G01*
%TO.C,R9*%
X103902742Y-133237500D02*
X104377258Y-133237500D01*
X103902742Y-132192500D02*
X104377258Y-132192500D01*
%TO.C,U3*%
X146685000Y-143510000D02*
G75*
G03*
X146685000Y-143510000I-1270000J0D01*
G01*
X138956051Y-146050000D02*
G75*
G03*
X138956051Y-146050000I-1796051J0D01*
G01*
X142875000Y-143510000D02*
G75*
G03*
X142875000Y-143510000I-1270000J0D01*
G01*
X154305000Y-143510000D02*
G75*
G03*
X154305000Y-143510000I-1270000J0D01*
G01*
X150495000Y-143510000D02*
G75*
G03*
X150495000Y-143510000I-1270000J0D01*
G01*
X159276051Y-146050000D02*
G75*
G03*
X159276051Y-146050000I-1796051J0D01*
G01*
X134620000Y-146050000D02*
G75*
G03*
X137160000Y-148590000I2540000J0D01*
G01*
X137160000Y-120650000D02*
G75*
G03*
X134620000Y-123190000I0J-2540000D01*
G01*
X157480000Y-148590000D02*
G75*
G03*
X160020000Y-146050000I-1J2540001D01*
G01*
X160020000Y-123190000D02*
G75*
G03*
X157480000Y-120650000I-2540001J-1D01*
G01*
X142240000Y-123825000D02*
X141605000Y-124460000D01*
X137160000Y-123825000D02*
X137160000Y-122555000D01*
X149860000Y-142875000D02*
X148590000Y-144145000D01*
X154305000Y-124460000D02*
X153035000Y-124460000D01*
X139700000Y-123825000D02*
X139065000Y-124460000D01*
X146050000Y-142875000D02*
X144780000Y-144145000D01*
X137160000Y-120650000D02*
X157480000Y-120650000D01*
X149225000Y-124460000D02*
X147955000Y-124460000D01*
X144780000Y-122555000D02*
X145415000Y-121920000D01*
X154305000Y-121920000D02*
X154940000Y-122555000D01*
X139065000Y-124460000D02*
X137795000Y-124460000D01*
X137160000Y-122555000D02*
X137795000Y-121920000D01*
X152400000Y-123825000D02*
X151765000Y-124460000D01*
X141605000Y-121920000D02*
X142240000Y-122555000D01*
X147955000Y-121920000D02*
X149225000Y-121920000D01*
X144145000Y-121920000D02*
X144780000Y-122555000D01*
X149225000Y-121920000D02*
X149860000Y-122555000D01*
X139700000Y-122555000D02*
X140335000Y-121920000D01*
X142875000Y-124460000D02*
X142240000Y-123825000D01*
X139700000Y-140970000D02*
X139700000Y-148590000D01*
X150495000Y-124460000D02*
X149860000Y-123825000D01*
X151765000Y-121920000D02*
X152400000Y-122555000D01*
X153670000Y-142875000D02*
X152400000Y-144145000D01*
X153035000Y-121920000D02*
X154305000Y-121920000D01*
X154940000Y-123825000D02*
X154305000Y-124460000D01*
X155575000Y-121920000D02*
X154940000Y-122555000D01*
X149860000Y-123825000D02*
X149225000Y-124460000D01*
X147955000Y-124460000D02*
X147320000Y-123825000D01*
X160020000Y-123190000D02*
X160020000Y-146050000D01*
X153035000Y-124460000D02*
X152400000Y-123825000D01*
X144780000Y-123825000D02*
X144145000Y-124460000D01*
X147320000Y-148590000D02*
X147320000Y-140970000D01*
X154940000Y-140970000D02*
X147320000Y-140970000D01*
X151765000Y-124460000D02*
X150495000Y-124460000D01*
X157480000Y-122555000D02*
X156845000Y-121920000D01*
X144780000Y-134620000D02*
X144780000Y-129540000D01*
X150495000Y-121920000D02*
X151765000Y-121920000D01*
X145415000Y-121920000D02*
X146685000Y-121920000D01*
X140335000Y-121920000D02*
X141605000Y-121920000D01*
X139065000Y-121920000D02*
X139700000Y-122555000D01*
X152400000Y-122555000D02*
X153035000Y-121920000D01*
X134620000Y-146050000D02*
X134620000Y-123190000D01*
X149860000Y-129540000D02*
X149860000Y-134620000D01*
X149860000Y-122555000D02*
X150495000Y-121920000D01*
X142875000Y-121920000D02*
X144145000Y-121920000D01*
X146685000Y-121920000D02*
X147320000Y-122555000D01*
X146685000Y-124460000D02*
X145415000Y-124460000D01*
X142240000Y-122555000D02*
X142875000Y-121920000D01*
X154940000Y-123825000D02*
X155575000Y-124460000D01*
X141605000Y-124460000D02*
X140335000Y-124460000D01*
X154940000Y-148590000D02*
X154940000Y-140970000D01*
X144145000Y-124460000D02*
X142875000Y-124460000D01*
X137795000Y-121920000D02*
X139065000Y-121920000D01*
X144780000Y-129540000D02*
X149860000Y-129540000D01*
X145415000Y-124460000D02*
X144780000Y-123825000D01*
X157480000Y-123825000D02*
X157480000Y-122555000D01*
X149860000Y-134620000D02*
X144780000Y-134620000D01*
X147320000Y-123825000D02*
X146685000Y-124460000D01*
X154940000Y-146050000D02*
X139700000Y-146050000D01*
X147320000Y-140970000D02*
X139700000Y-140970000D01*
X157480000Y-148590000D02*
X137160000Y-148590000D01*
X147320000Y-122555000D02*
X147955000Y-121920000D01*
X156845000Y-121920000D02*
X155575000Y-121920000D01*
X140335000Y-124460000D02*
X139700000Y-123825000D01*
X155575000Y-124460000D02*
X156845000Y-124460000D01*
X142240000Y-142875000D02*
X140970000Y-144145000D01*
X137795000Y-124460000D02*
X137160000Y-123825000D01*
X156845000Y-124460000D02*
X157480000Y-123825000D01*
%TO.C,C4*%
X78615000Y-126859420D02*
X78615000Y-127140580D01*
X77595000Y-126859420D02*
X77595000Y-127140580D01*
%TO.C,U2*%
X157480000Y-106680000D02*
X125095000Y-106680000D01*
X120650000Y-105410000D02*
X158750000Y-105410000D01*
X125095000Y-116840000D02*
X157480000Y-116840000D01*
X158750000Y-118110000D02*
X120650000Y-118110000D01*
X157480000Y-116840000D02*
X157480000Y-106680000D01*
X125095000Y-106680000D02*
X125095000Y-116840000D01*
X158750000Y-105410000D02*
X158750000Y-118110000D01*
X120650000Y-105410000D02*
X120650000Y-118110000D01*
%TD*%
M02*
