M48
; DRILL file {KiCad 6.0.10+dfsg-1~bpo11+1} date St 1. února 2023, 20:55:50
; FORMAT={-:-/ absolute / inch / decimal}
; #@! TF.CreationDate,2023-02-01T20:55:50+01:00
; #@! TF.GenerationSoftware,Kicad,Pcbnew,6.0.10+dfsg-1~bpo11+1
; #@! TF.FileFunction,Plated,1,2,PTH
FMAT,2
INCH
; #@! TA.AperFunction,Plated,PTH,ViaDrill
T1C0.0157
; #@! TA.AperFunction,Plated,PTH,ComponentDrill
T2C0.0315
; #@! TA.AperFunction,Plated,PTH,ComponentDrill
T3C0.0394
%
G90
G05
T1
X2.95Y-4.15
X2.95Y-4.2
X2.95Y-5.8
X2.95Y-5.85
X3.0Y-5.85
X3.175Y-4.15
X3.175Y-4.2
X3.175Y-4.725
X3.175Y-4.775
X3.225Y-4.15
X3.825Y-4.15
X3.875Y-4.15
X3.875Y-4.2
X4.075Y-4.15
X4.075Y-4.2
X4.125Y-4.15
X4.125Y-5.85
X4.175Y-4.355
X4.175Y-5.85
X4.18Y-4.545
X4.185Y-4.595
X4.215Y-4.325
X4.275Y-4.575
X4.42Y-4.96
X4.45Y-4.275
X4.55Y-4.625
X5.05Y-4.575
X5.1Y-4.625
X5.175Y-4.865
X5.225Y-5.85
X5.275Y-5.85
X6.3Y-4.15
X6.3Y-5.85
X6.35Y-4.15
X6.35Y-4.2
X6.35Y-5.8
X6.35Y-5.85
T2
X4.35Y-4.85
X4.45Y-4.85
X4.55Y-4.85
X4.65Y-4.85
X4.75Y-4.85
X4.825Y-4.25
X4.825Y-4.35
X4.825Y-4.45
X4.825Y-4.55
X4.85Y-4.85
X4.95Y-4.85
X5.05Y-4.85
X5.45Y-4.85
X5.55Y-4.85
X5.65Y-4.85
X5.75Y-4.85
X5.85Y-4.85
X5.95Y-4.85
X6.05Y-4.85
X6.15Y-4.85
T3
X3.0691Y-4.15
X3.0691Y-4.25
X3.0691Y-4.35
X3.0691Y-4.45
X3.0691Y-4.55
X3.0691Y-4.65
X3.0691Y-4.75
X3.0691Y-4.85
X3.9691Y-4.15
X3.9691Y-4.25
X3.9691Y-4.35
X3.9691Y-4.45
X3.9691Y-4.55
X3.9691Y-4.65
X3.9691Y-4.75
X3.9691Y-4.85
T0
M30
